<svg width="65" height="65" viewBox="0 0 65 65" fill="none" xmlns="http://www.w3.org/2000/svg"><g clip-path="url(#clip0_9_589)" fill="#F7F9FC"><path d="M33.661 56.695c3.3-.51 6.252-3.184 8.44-7.248a27.011 27.011 0 00-8.44-1.741v8.989zm7.007-1.321a24.187 24.187 0 006.436-3.485 29.467 29.467 0 00-2.846-1.516 21.192 21.192 0 01-3.59 5.001zm-19.914-5.001a29.46 29.46 0 00-2.848 1.518 24.189 24.189 0 006.437 3.485 21.197 21.197 0 01-3.589-5.002zm10.594 6.322v-8.99a27.009 27.009 0 00-8.44 1.748c2.188 4.058 5.141 6.732 8.44 7.242zM20.754 14.62a21.2 21.2 0 013.59-5.001 24.186 24.186 0 00-6.437 3.484 29.48 29.48 0 002.847 1.518zM8.25 33.66a24.246 24.246 0 007.781 16.67 31.527 31.527 0 013.73-2.045 40.034 40.034 0 01-2.978-14.625H8.251zm0-2.32h8.533a40.035 40.035 0 012.976-14.625 31.526 31.526 0 01-3.73-2.049A24.246 24.246 0 008.25 31.34l.002.001zm23.098 2.32H19.12c.064 4.7 1.01 9.345 2.79 13.696a29.38 29.38 0 019.436-2.004l.002-11.692zm0-14.015a29.383 29.383 0 01-9.437-2.006 37.499 37.499 0 00-2.79 13.695h12.227v-11.69zm2.313 25.705c3.234.143 6.422.82 9.435 2.002A37.496 37.496 0 0045.89 33.66H33.66v11.69zm0-14.011h12.226a37.498 37.498 0 00-2.789-13.7 29.383 29.383 0 01-9.437 2.006v11.694zM56.76 33.66h-8.532a40.033 40.033 0 01-2.975 14.625 31.54 31.54 0 013.729 2.049A24.246 24.246 0 0056.76 33.66zm-7.78-18.992a31.522 31.522 0 01-3.728 2.049 40.033 40.033 0 012.976 14.623h8.533a24.247 24.247 0 00-7.78-16.672zm-4.722-.048c.976-.453 1.927-.96 2.848-1.517a24.185 24.185 0 00-6.437-3.484 21.197 21.197 0 013.589 5.002zM33.661 8.3v8.996a27.015 27.015 0 008.44-1.748c-2.187-4.064-5.138-6.736-8.44-7.247v-.002zm-2.313 0c-3.3.509-6.252 3.183-8.44 7.247a27.011 27.011 0 008.44 1.747V8.3z"/><path d="M16.238 4.467a1.153 1.153 0 101.158 1.992C36.99-5.265 62.9 9.635 62.606 32.496a29.934 29.934 0 01-4.075 15.11 29.001 29.001 0 01-1.898 2.847 4.62 4.62 0 101.76 1.494 28.286 28.286 0 002.141-3.184C76.932 19.986 45.023-11.932 16.238 4.467zm31.376 54.068C19.204 74.537-10.814 40.924 8.378 14.541a4.62 4.62 0 10-1.76-1.492c-20.816 28.437 11.405 64.728 42.154 47.478a1.15 1.15 0 00-.272-2.13 1.153 1.153 0 00-.886.139z"/></g><defs><clipPath id="clip0_9_589"><rect width="65" height="65" fill="#fff"/></clipPath></defs></svg>