<svg width="62" height="62" viewBox="0 0 62 62" fill="none" xmlns="http://www.w3.org/2000/svg"><path d="M60.23 31C60.23 14.856 47.145 1.77 31 1.77S1.77 14.855 1.77 31 14.855 60.23 31 60.23 60.23 47.145 60.23 31z" stroke="#3271B2" stroke-width="2"/><path d="M29.439 13.37h1.438v2.607h-1.438v-2.608zm4.315 3.884l1.846-1.846 1.008 1.015-1.839 1.846-1.015-1.015zm-10.184-.831l1.015-1.015 1.846 1.846-1.015 1.008-1.847-1.839zm-1.862 3.839h2.608v1.43h-2.608v-1.43zm14.415 0h2.608v1.43h-2.608v-1.43z" fill="#E0027A"/><path d="M47.53 25.37l-9.276-.055.407 1.7-4.907-2.161c-2.131-1.054-4.662-.538-6.27 1.277l-.215.254-5.5.054.408-1.793-9.262.046.008 1.439 7.53-.039-2.96 12.939-4.478.046.008 1.43 5.538-.045.5-2.193 3.039 4.047c.23.192 5.53 4.6 6.07 5.046a2.09 2.09 0 001.991.561c.708-.177 1.285-.715 1.547-1.446a2.06 2.06 0 001.9.185 2.266 2.266 0 001.307-1.477 2.088 2.088 0 001.862.069 2.285 2.285 0 001.23-1.477c.824.338 1.762.13 2.378-.538.838-.923.823-2.393-.039-3.285l-.492-.508 1.538-1.038.5 2.054 5.523.046.008-1.431-4.485-.046L40 26.76l7.523.04.008-1.432zm-8.115 16.86a.791.791 0 01-1.177.016l-.807-.8-4.054-4.215-.946 1.03 4.061 4.224c.331.338.339.9.016 1.254a.803.803 0 01-1.177.015l-.985-.938L31.27 39.6l-.946 1.023 3.092 3.231a.924.924 0 01.016 1.254.791.791 0 01-1.177.015l-1.062-1.092-1.73-1.83-.254-.27-.477.508-.477.515 1.977 2.085c.323.338.346.9.03 1.246a.805.805 0 01-1.184.007c-.17-.13-3.693-3.069-6.016-5.007l-3.6-4.777 1.977-8.631 4.6-.046-2.23 2.63c-.77.916-.708 2.324.138 3.162 1.177 1.139 3 1.07 4.1-.161l1.346-1.516.87.016h.076l.4.007 8.662 9.008c.33.346.338.908.015 1.254zm1.631-5.284l-2.185 1.462-6.192-6.446h1.254v-1.439h-3.577l-1.53-.023-1.755 1.977c-.592.662-1.569.7-2.2.085a.84.84 0 01-.046-1.139l3.654-4.315c1.215-1.362 3.123-1.746 4.723-.946l5.885 2.592 1.97 8.192z" fill="#00AEEF"/></svg>