<svg width="60" height="60" viewBox="0 0 60 60" fill="none" xmlns="http://www.w3.org/2000/svg"><g clip-path="url(#clip0_52_1039)"><path d="M59.23 30C59.23 13.856 46.145.77 30 .77S.77 13.855.77 30 13.855 59.23 30 59.23 59.23 46.145 59.23 30z" stroke="#3271B2" stroke-width="2"/><path d="M32.608 46.07l-1.346-7.555 1.2-1.738-1.1-.762-1.516 2.193 1.408 7.861h1.354zm-6.008-.016h1.37l1.392-7.846-1.516-2.193-1.1.762 1.2 1.738-1.346 7.539z" fill="#E0027A"/><path d="M41.908 36.361l-8.347-3.823v-2.384l.354-.27a6.237 6.237 0 001.87-3.861 2.338 2.338 0 002.1-1.6 2.385 2.385 0 00-.685-2.577l.008-1.223a8.19 8.19 0 00-1.993-5.37c-1.315-1.5-3.054-2.322-4.892-2.322-2.754 0-4.854 1.215-5.97 3.43-1.353.223-2.345 1.408-2.353 2.8v2.685a2.412 2.412 0 00-.677 2.585 2.339 2.339 0 002.115 1.592 6.046 6.046 0 001.67 3.546l.538.446v2.5L17.3 36.338l-2.308 10.439h29.231L41.908 36.36zm-8.062-2.23l-1.023 2.707-1.762-2.33 1.685-.885 1.1.508zm-3.946-.516h-.608l-2.338-1.23v-1.377a5.245 5.245 0 002.707.753c.908.008 1.8-.23 2.593-.692v1.316l-2.354 1.23zm6.808-9.969c0 .523-.385.97-.893 1.038v-2.076c.508.069.893.515.893 1.038zm-13.316 1.038a1.045 1.045 0 01-.892-1.038c0-.523.384-.97.892-1.038v2.076zm-.084-3.869v-1.654c0-.83.661-1.5 1.477-1.5h.423l.169-.4c.838-1.938 2.6-3 4.946-3 3.023 0 5.577 2.916 5.577 6.362v.485c-1.162.023-3.9-.008-5.454-.754a12.389 12.389 0 01-3.362-2.408l-.638-.685-.423.831c-.346.685-1.43 2.316-2.715 2.723zm1.392 4.493V21.6c.923-.608 1.623-1.516 2.046-2.154.946.838 2 1.546 3.139 2.108 1.3.623 3.192.823 4.623.877v3.007a4.78 4.78 0 01-1.431 3.423l-1.077.8a3.9 3.9 0 01-2.339.777 4.018 4.018 0 01-2.484-.884l-1.17-.946a4.765 4.765 0 01-1.307-3.3zm1.677 8.33l1.738.908-1.73 2.3-1.047-2.73 1.039-.478zm-7.946 3.639l5.715-2.616 1.862 4.862 3.43-4.554h.331l3.43 4.554 1.84-4.854 5.738 2.63 1.807 8.147h-3.992v-4.03h-1.3v4.03H21.915v-4.03h-1.307v4.03h-3.985l1.808-8.17z" fill="#00AEEF"/></g><defs><clipPath id="clip0_52_1039"><rect width="60" height="60" fill="#fff"/></clipPath></defs></svg>