<svg width="31" height="31" viewBox="0 0 31 31" fill="none" xmlns="http://www.w3.org/2000/svg"><path fill-rule="evenodd" clip-rule="evenodd" d="M15.3 30.76c8.406 0 15.22-6.815 15.22-15.222C30.52 7.132 23.707.317 15.3.317 6.892.317.077 7.132.077 15.538c0 8.407 6.815 15.221 15.221 15.221zM8.916 12.706h2.905v9.474H8.917v-9.474zm1.468-4.675a1.707 1.707 0 11-1.687 1.677 1.697 1.697 0 011.687-1.677zm6.153 4.675h-2.832v9.485h2.946v-4.685c0-1.24.24-2.437 1.77-2.437s1.53 1.468 1.53 2.51v4.612h2.905v-5.206c0-2.55-.551-4.508-3.529-4.508a3.124 3.124 0 00-2.79 1.52v-1.291z" fill="#fff"/></svg>