<svg width="203" height="50" viewBox="0 0 203 50" fill="none" xmlns="http://www.w3.org/2000/svg"><g clip-path="url(#clip0_9_266)"><path d="M79.175 28.652a14.49 14.49 0 01-3.744 1.35 18.918 18.918 0 01-3.976.415c-1.438 0-2.764-.226-3.976-.677-1.213-.452-2.264-1.094-3.144-1.938-.886-.838-1.575-1.86-2.068-3.055-.494-1.194-.743-2.531-.743-4.005 0-1.474.25-2.811.743-4.006.493-1.195 1.182-2.217 2.068-3.055a9.177 9.177 0 013.144-1.937c1.212-.452 2.538-.678 3.976-.678 1.438 0 2.829.178 4.071.535a8.071 8.071 0 013.263 1.83l-2.859 3.12a5.72 5.72 0 00-1.872-1.3c-.695-.298-1.557-.44-2.603-.44-.868 0-1.652.148-2.354.44a5.287 5.287 0 00-1.806 1.235 5.399 5.399 0 00-1.16 1.884 6.818 6.818 0 00-.403 2.366c0 .85.136 1.658.404 2.377a5.311 5.311 0 002.965 3.108c.702.297 1.486.44 2.354.44.868 0 1.646-.1 2.288-.297.642-.196 1.153-.404 1.533-.612v-2.99h-3.304v-3.744h7.203v9.634zm7.019-18.358h-3.899v19.66h3.899v-19.66zM96.94 28.367h-.054a3.645 3.645 0 01-1.73 1.456c-.719.297-1.48.44-2.276.44a6.036 6.036 0 01-1.706-.244 4.268 4.268 0 01-1.444-.743 3.551 3.551 0 01-.986-1.224c-.244-.488-.363-1.046-.363-1.688 0-.731.137-1.343.404-1.848a3.51 3.51 0 011.094-1.248 5.545 5.545 0 011.575-.767 11.45 11.45 0 011.836-.404c.63-.09 1.266-.137 1.896-.155.63-.018 1.218-.023 1.753-.023 0-.696-.25-1.243-.743-1.653-.493-.41-1.075-.612-1.753-.612-.677 0-1.224.137-1.753.404a4.738 4.738 0 00-1.415 1.106l-2.08-2.134a7.095 7.095 0 012.55-1.521 9.062 9.062 0 013.013-.506c1.147 0 2.086.143 2.823.428.737.286 1.325.708 1.771 1.26.44.553.749 1.236.921 2.045.173.808.262 1.735.262 2.793v6.425h-3.59v-1.587h-.006zm-.963-3.952c-.298 0-.666.012-1.106.041-.44.024-.868.101-1.272.22a2.895 2.895 0 00-1.04.547c-.285.244-.428.582-.428 1.01 0 .47.196.814.6 1.04.399.226.815.339 1.249.339.38 0 .748-.053 1.105-.154s.672-.25.95-.44a2.089 2.089 0 00.91-1.771v-.832h-.968zm14.144-3.382c-.57-.707-1.325-1.064-2.264-1.064-.327 0-.648.077-.963.232-.315.154-.469.422-.469.808 0 .31.16.541.481.69.321.148.725.279 1.224.392.494.113 1.022.232 1.587.362a5.88 5.88 0 011.587.613c.493.279.903.653 1.224 1.129.321.475.482 1.111.482 1.907 0 .797-.179 1.486-.535 2.015a4.013 4.013 0 01-1.367 1.272 5.854 5.854 0 01-1.872.678c-.696.13-1.379.196-2.057.196-.885 0-1.777-.125-2.68-.375a4.973 4.973 0 01-2.288-1.337l2.365-2.627c.363.452.767.79 1.207 1.028.439.238.957.351 1.545.351a3.62 3.62 0 001.224-.196c.363-.13.547-.369.547-.713 0-.345-.16-.577-.481-.743-.321-.167-.731-.303-1.225-.416-.493-.113-1.022-.238-1.587-.363a6.744 6.744 0 01-1.586-.582 3.355 3.355 0 01-1.225-1.106c-.321-.475-.481-1.111-.481-1.913 0-.743.154-1.385.458-1.926.303-.535.701-.98 1.194-1.325.493-.35 1.064-.6 1.706-.767a7.728 7.728 0 011.949-.25c.832 0 1.67.125 2.52.363.85.244 1.569.678 2.157 1.302l-2.389 2.365h.012zm12.035 0c-.57-.707-1.325-1.064-2.264-1.064-.327 0-.648.077-.963.232-.315.154-.469.422-.469.808 0 .31.16.541.481.69.321.148.725.279 1.224.392.493.113 1.022.232 1.587.362a5.88 5.88 0 011.587.613c.493.279.903.653 1.224 1.129.321.475.482 1.111.482 1.907 0 .797-.179 1.486-.535 2.015a4.013 4.013 0 01-1.367 1.272 5.854 5.854 0 01-1.872.678c-.696.13-1.379.196-2.057.196-.885 0-1.777-.125-2.68-.375a4.973 4.973 0 01-2.288-1.337l2.365-2.627c.363.452.767.79 1.207 1.028.439.238.956.351 1.545.351a3.62 3.62 0 001.224-.196c.363-.13.547-.369.547-.713 0-.345-.161-.577-.481-.743-.321-.167-.731-.303-1.225-.416-.493-.113-1.022-.238-1.587-.363a6.744 6.744 0 01-1.586-.582 3.355 3.355 0 01-1.225-1.106c-.321-.475-.481-1.111-.481-1.913 0-.743.154-1.385.458-1.926.303-.535.701-.98 1.194-1.325.493-.35 1.064-.6 1.706-.767a7.722 7.722 0 011.949-.25c.832 0 1.67.125 2.52.363.85.244 1.569.678 2.157 1.302l-2.389 2.365h.012zm5.385-9.485h4.053v6.864h7.881v-6.864h4.053v18.406h-4.053v-7.958h-7.881v7.958h-4.053V11.548zm18.768 12.088c0-1.004.185-1.914.547-2.728a6.25 6.25 0 011.498-2.092 6.518 6.518 0 012.234-1.337 8.027 8.027 0 012.746-.47 7.91 7.91 0 012.746.47c.856.315 1.605.76 2.235 1.337a6.333 6.333 0 011.497 2.092c.363.814.547 1.724.547 2.728 0 1.004-.184 1.914-.547 2.728a6.248 6.248 0 01-1.497 2.092 6.514 6.514 0 01-2.235 1.337 7.886 7.886 0 01-2.746.47 7.91 7.91 0 01-2.746-.47 6.613 6.613 0 01-2.234-1.337 6.422 6.422 0 01-1.498-2.092c-.362-.814-.547-1.724-.547-2.728zm3.905 0c0 .957.273 1.724.82 2.312.547.588 1.314.886 2.3.886.987 0 1.753-.298 2.3-.886.547-.588.82-1.361.82-2.312 0-.95-.273-1.723-.82-2.312-.547-.588-1.313-.885-2.3-.885-.986 0-1.753.297-2.3.885-.547.588-.82 1.361-.82 2.312zm24.593 6.318h-3.744v-1.718h-.054a3.858 3.858 0 01-.535.725 3.438 3.438 0 01-.79.648c-.315.19-.666.345-1.064.47a4.533 4.533 0 01-1.302.184c-.986 0-1.788-.149-2.407-.458a3.45 3.45 0 01-1.432-1.26c-.339-.535-.564-1.17-.677-1.896a15.427 15.427 0 01-.167-2.365v-6.971h3.899v6.186c0 .363.012.743.036 1.13.023.392.107.748.237 1.081.131.333.327.6.601.808.267.209.653.316 1.159.316.505 0 .909-.09 1.224-.274a1.83 1.83 0 00.713-.73c.166-.304.273-.649.327-1.03a8.65 8.65 0 00.077-1.194v-6.294h3.899v12.642zm9.907-8.921c-.57-.707-1.325-1.064-2.264-1.064-.327 0-.648.077-.963.232-.309.154-.47.422-.47.808 0 .31.161.541.482.69.321.148.725.279 1.224.392.493.113 1.022.232 1.587.362a5.88 5.88 0 011.587.613c.493.279.903.653 1.224 1.129.321.475.482 1.111.482 1.907 0 .797-.179 1.486-.535 2.015a4.013 4.013 0 01-1.367 1.272 5.854 5.854 0 01-1.872.678c-.696.13-1.379.196-2.057.196-.885 0-1.777-.125-2.68-.375a4.973 4.973 0 01-2.288-1.337l2.365-2.627c.363.452.767.79 1.207 1.028.439.238.956.351 1.545.351a3.62 3.62 0 001.224-.196c.363-.13.547-.369.547-.713 0-.345-.161-.577-.482-.743-.32-.167-.731-.303-1.224-.416-.493-.113-1.022-.238-1.587-.363a6.744 6.744 0 01-1.586-.582 3.355 3.355 0 01-1.225-1.106c-.321-.475-.481-1.111-.481-1.913 0-.743.154-1.385.457-1.926.304-.535.702-.98 1.195-1.325.493-.35 1.064-.6 1.706-.767a7.722 7.722 0 011.949-.25c.832 0 1.67.125 2.52.363.85.244 1.569.678 2.157 1.302l-2.389 2.365h.012zm16.849 6.74a6.257 6.257 0 01-2.365 1.848 7.1 7.1 0 01-2.966.648 7.723 7.723 0 01-2.746-.47 6.601 6.601 0 01-2.234-1.337 6.304 6.304 0 01-1.492-2.092c-.363-.814-.547-1.724-.547-2.728 0-1.004.184-1.914.547-2.728a6.303 6.303 0 011.492-2.092 6.508 6.508 0 012.234-1.337 8.027 8.027 0 012.746-.47c.903 0 1.718.155 2.455.47.736.315 1.361.76 1.872 1.337.511.582.903 1.278 1.182 2.092.28.814.416 1.724.416 2.728v1.224h-9.045c.154.743.493 1.337 1.016 1.783.517.44 1.159.666 1.926.666.642 0 1.182-.143 1.622-.428.44-.285.826-.654 1.159-1.105l2.728 2.002v-.011zm-3.298-5.57a2.262 2.262 0 00-.648-1.687c-.452-.47-1.034-.701-1.742-.701-.433 0-.814.07-1.141.208a2.768 2.768 0 00-.844.535 2.352 2.352 0 00-.546.754 2.457 2.457 0 00-.22.898h5.147l-.006-.006zm-175.717-.95v4.808h5.278c-1.13 1.64-3.132 2.692-5.278 2.692-3.351 0-6.442-2.734-6.442-6.484a6.444 6.444 0 016.442-6.484H27V8.612h-4.452c-7.535 0-13.621 6.115-13.621 13.657s6.08 13.657 13.621 13.657c7.542 0 13.658-6.115 13.658-13.657v-1.022H22.548v.006z" fill="#fff"/><path d="M40.408.113v8.499h-4.202V0h-7.037v19.101h7.037v-3.31h4.202v14.37h7.036V.114h-7.036z" fill="#fff"/><path d="M21.948 41.442c-10.495 0-19.036-8.552-19.036-19.072 0-3.625 1.022-7.156 2.96-10.204a19.111 19.111 0 017.684-6.912.548.548 0 01.737.25c.137.273.024.6-.25.736a18.003 18.003 0 00-7.238 6.514 17.915 17.915 0 00-2.787 9.616c0 9.907 8.047 17.966 17.93 17.966 2.627 0 5.159-.558 7.53-1.652a.55.55 0 11.464.999 18.883 18.883 0 01-7.994 1.753" fill="#00AEEF"/><path d="M22.447 38.91c-9.152 0-16.605-7.465-16.605-16.64 0-9.177 7.447-16.642 16.605-16.642H26.9a.552.552 0 110 1.106h-4.452c-8.546 0-15.5 6.971-15.5 15.535s6.954 15.536 15.5 15.536c8.547 0 15.536-6.972 15.536-15.536V21.3c0-.303.244-.552.553-.552.309 0 .552.243.552.552v.97c0 9.175-7.464 16.64-16.64 16.64z" fill="#EC008C"/><path d="M9.515 40.176a.534.534 0 01-.32-.107 22.318 22.318 0 01-6.681-7.714A22.126 22.126 0 010 22.115c0-4.921 1.58-9.58 4.576-13.474a.55.55 0 01.773-.1.55.55 0 01.1.772A20.832 20.832 0 001.1 22.12c0 3.382.827 6.746 2.384 9.73a21.256 21.256 0 006.353 7.333.551.551 0 01.125.767.544.544 0 01-.446.226z" fill="#FFF200"/><path d="M90.847 45.733c.464-.814.737-1.73.839-2.627h-1.433a5.636 5.636 0 01-.333 1.61 4.278 4.278 0 01-.737 1.29c-.463.535-1.063.886-1.74.886-.803 0-1.356-.345-1.564-.922h-1.527c-.25.595-.838.898-1.575.898-.815 0-1.647-.583-1.742-1.777h4.79c.125-.588.589-1.028 1.338-1.313 0 0 .695-.256 1.385-.547.956-.44 1.67-1.23 1.67-2.235 0-1.42-1.219-1.908-2.318-1.908-1.385 0-2.413.731-2.413 1.884 0 .678.368 1.326.92 1.968-.29.107-.57.237-.825.398-.44-1.219-1.462-2.01-2.841-2.01-1.825 0-3.15 1.374-3.15 3.305 0 1.932 1.183 3.412 3.245 3.412.951 0 1.664-.345 2.163-.832.506.517 1.266.832 2.2.832 1.146 0 2.073-.452 2.793-1.16l.92 1.005h1.944l-1.99-2.163-.019.006zM87.9 40.158c.523 0 .956.297.956.886 0 .535-.32 1.063-1.051 1.384l-.012-.011c-.428-.452-.838-.981-.838-1.48 0-.5.44-.779.945-.779zm-5.177 2.276c.838 0 1.599.607 1.635 1.61h-3.34c.118-1.217 1.04-1.61 1.705-1.61zm14.84 4.446c.737 0 1.326-.297 1.575-.898h1.397c-.297 1.029-1.254 2.08-2.912 2.08-2.063 0-3.245-1.574-3.245-3.417 0-1.937 1.325-3.31 3.15-3.31 1.967 0 3.197 1.599 3.078 3.762h-4.778c.095 1.194.927 1.777 1.741 1.777m1.593-2.811c-.036-1.005-.796-1.61-1.634-1.61-.666 0-1.587.391-1.706 1.61h3.34zm5.694-2.723c1.551 0 2.181 1.005 2.181 2.533v4.035h-1.421v-3.69c0-.874-.13-1.718-1.218-1.718s-1.492.838-1.492 1.997v3.417h-1.42v-6.425h1.42v.898c.369-.672 1.046-1.04 1.944-1.04m5.01-1.563v1.694h1.289v1.028h-1.289v3.5c0 .66.154.814.76.814h.512v1.088h-1.052c-1.373 0-1.647-.369-1.647-1.682v-3.714h-.951v-1.029h.951V39.79h1.421l.006-.006zm4.707 7.096c.737 0 1.325-.297 1.575-.898h1.396c-.297 1.029-1.254 2.08-2.912 2.08-2.062 0-3.245-1.574-3.245-3.417 0-1.937 1.326-3.31 3.15-3.31 1.967 0 3.198 1.599 3.079 3.762h-4.779c.095 1.194.927 1.777 1.742 1.777m1.592-2.811c-.035-1.005-.796-1.61-1.634-1.61-.666 0-1.587.391-1.706 1.61h3.34zm5.159-1.171c-.897 0-1.408.357-1.408 1.646v3.37h-1.421v-6.425h1.397v1.148c.345-.72.963-1.148 1.741-1.16.107 0 .262.012.369.024v1.433a6.856 6.856 0 00-.678-.036zm2.71-.552c.381-.637 1.052-1.005 1.908-1.005 1.563 0 2.752 1.301 2.752 3.358 0 2.056-1.195 3.37-2.752 3.37-.856 0-1.527-.369-1.908-1.005v2.936h-1.42v-8.517h1.42v.862zm3.186 2.353c0-1.35-.595-2.2-1.587-2.2-.927 0-1.658.72-1.658 2.2 0 1.48.725 2.21 1.658 2.21.987 0 1.587-.85 1.587-2.21zm5.224-1.801c-.898 0-1.409.357-1.409 1.646v3.37h-1.42v-6.425h1.397v1.148c.344-.72.962-1.148 1.741-1.16.107 0 .261.012.368.024v1.433a6.82 6.82 0 00-.677-.036zm2.71-2.211h-1.42V39.25h1.42v1.432zm0 7.227h-1.42v-6.425h1.42v6.425zm3.554-5.48c-.618 0-1.195.274-1.195.708 0 .433.309.66.862.766l.909.179c1.302.25 2.289.653 2.289 1.913 0 1.337-1.266 2.08-2.716 2.08-1.575 0-2.621-.897-2.776-2.115h1.385c.131.66.606 1.04 1.444 1.04.737 0 1.29-.31 1.29-.838 0-.53-.476-.767-1.112-.886l-.962-.19c-1.088-.214-1.932-.707-1.932-1.878 0-1.17 1.218-1.866 2.609-1.866 1.254 0 2.395.612 2.657 1.902h-1.338c-.154-.583-.689-.815-1.408-.815m6.531 4.452c.737 0 1.326-.297 1.575-.898h1.397c-.297 1.029-1.254 2.08-2.912 2.08-2.062 0-3.245-1.574-3.245-3.417 0-1.937 1.325-3.31 3.15-3.31 1.967 0 3.197 1.599 3.078 3.762h-4.778c.095 1.194.927 1.777 1.741 1.777m1.593-2.811c-.035-1.005-.796-1.61-1.634-1.61-.666 0-1.587.391-1.706 1.61h3.34zm-80.53-2.746c.392 0 .76.048 1.094.143a2.3 2.3 0 01.873.463c.244.214.434.493.565.838.13.345.19.773.184 1.278 0 .077 0 .184-.006.315v.892c0 .16-.006.314-.006.457 0 .404.018.802.048 1.189.03.392.077.719.142.986h-1.29c-.023-.136-.047-.267-.065-.392a9.445 9.445 0 01-.053-.523 1.885 1.885 0 01-.838.802c-.363.179-.779.268-1.254.268-.345 0-.666-.048-.951-.137a2.202 2.202 0 01-.743-.386 1.7 1.7 0 01-.66-1.39c0-.393.113-.72.345-.981a2.56 2.56 0 01.927-.642 6.163 6.163 0 011.361-.38c.517-.09 1.07-.161 1.652-.227v-.154c0-.268-.035-.493-.107-.672a1.073 1.073 0 00-.29-.428 1.047 1.047 0 00-.435-.225 2.26 2.26 0 00-.546-.066c-.363 0-.666.095-.91.285-.243.19-.374.476-.392.862h-1.385a2.212 2.212 0 01.826-1.58 2.63 2.63 0 01.85-.452c.327-.107.69-.16 1.082-.16m1.325 3.583c-.505.047-.933.101-1.29.166a4.307 4.307 0 00-.873.238c-.232.095-.398.208-.505.339a.714.714 0 00-.16.47c0 .273.106.493.32.653.214.16.5.238.85.238.523 0 .927-.143 1.218-.434.292-.291.44-.767.44-1.438v-.232zm4.202-2.49c.184-.333.434-.589.767-.767.327-.178.719-.267 1.165-.267.386 0 .719.059.986.178.268.119.493.291.672.511.172.22.303.487.386.79.083.31.125.654.125 1.029v4h-1.41v-3.662a5.7 5.7 0 00-.035-.63 1.618 1.618 0 00-.16-.552.959.959 0 00-.37-.387c-.16-.095-.374-.142-.647-.142s-.5.047-.69.148a1.29 1.29 0 00-.463.41 1.74 1.74 0 00-.256.63 3.721 3.721 0 00-.077.79v3.389h-1.408v-6.372h1.408v.886l.006.018zm82.848-1.028c.357 0 .689.053 1.004.166.315.113.601.267.844.47.25.202.458.445.624.73.167.286.28.607.345.957h-1.373a1.382 1.382 0 00-.469-.826c-.25-.214-.589-.32-1.011-.32-.22 0-.428.04-.624.124a1.348 1.348 0 00-.511.392 1.907 1.907 0 00-.345.672 3.316 3.316 0 00-.124.969c0 .374.041.707.124.974.084.268.197.5.345.672.149.178.315.309.511.392.196.083.398.125.624.125.357 0 .678-.09.963-.262.291-.172.476-.475.565-.897h1.373a2.795 2.795 0 01-1.04 1.724c-.262.196-.553.35-.874.451-.327.101-.66.155-1.004.155a2.99 2.99 0 01-1.272-.256 2.864 2.864 0 01-.951-.695 3.157 3.157 0 01-.601-1.052 4.14 4.14 0 01-.208-1.32c0-.469.072-.915.208-1.319a2.952 2.952 0 011.581-1.765c.381-.172.815-.255 1.302-.255m6.644-.006c.405 0 .791.065 1.159.202.369.136.702.338.987.612.285.273.517.618.695 1.034.173.416.262.915.262 1.492 0 .576-.089 1.075-.262 1.491a2.942 2.942 0 01-.695 1.035 2.785 2.785 0 01-.987.606c-.374.13-.754.196-1.159.196-.404 0-.79-.066-1.159-.196a2.738 2.738 0 01-.986-.607 3.102 3.102 0 01-.695-1.034c-.173-.416-.262-.915-.262-1.491 0-.577.089-1.076.262-1.492.172-.416.404-.76.695-1.034.291-.274.618-.476.986-.612a3.33 3.33 0 011.159-.202zm0 5.515c.238 0 .452-.048.654-.137a1.53 1.53 0 00.523-.404c.149-.178.268-.404.351-.672.083-.267.125-.594.125-.962 0-.369-.042-.684-.125-.957a1.94 1.94 0 00-.351-.684 1.494 1.494 0 00-.523-.41 1.57 1.57 0 00-.654-.137 1.59 1.59 0 00-.653.137 1.48 1.48 0 00-.523.41c-.149.184-.268.41-.351.684-.083.28-.125.594-.125.957 0 .362.042.695.125.962.083.268.196.5.351.672a1.475 1.475 0 001.176.54zm5.676.998h-1.408v-6.37h1.408v.885a1.92 1.92 0 01.743-.767c.309-.178.684-.267 1.105-.267.5 0 .898.1 1.189.297.297.196.517.475.672.826.273-.404.594-.69.945-.862a2.551 2.551 0 011.123-.261c.392 0 .701.059.963.178.261.119.481.291.648.511a2.2 2.2 0 01.362.79c.077.31.113.654.113 1.029v4h-1.409v-3.662c0-.214-.011-.422-.029-.63a1.62 1.62 0 00-.143-.552.924.924 0 00-.339-.387c-.148-.095-.356-.142-.618-.142-.261 0-.481.047-.659.148a1.242 1.242 0 00-.434.41 1.73 1.73 0 00-.238.63 4.123 4.123 0 00-.071.79v3.389h-1.409V44.2c0-.215-.012-.422-.03-.63a1.597 1.597 0 00-.142-.553.923.923 0 00-.339-.387c-.149-.095-.357-.142-.618-.142-.262 0-.481.047-.66.148a1.25 1.25 0 00-.434.41 1.71 1.71 0 00-.237.63 4.12 4.12 0 00-.072.79v3.389l.018.023zm10.739-6.371v.85c.191-.315.446-.559.767-.73a2.34 2.34 0 011.123-.262c.387 0 .749.077 1.082.231.339.155.624.375.874.672.243.291.434.642.576 1.052.137.41.208.868.208 1.373s-.071.974-.208 1.385a3.09 3.09 0 01-.576 1.051 2.465 2.465 0 01-.874.672 2.543 2.543 0 01-1.082.232 2.34 2.34 0 01-1.123-.262 1.873 1.873 0 01-.767-.737v2.913h-1.408v-8.44h1.408zm-.059 3.186c0 .374.042.695.125.963.083.273.202.499.351.683.148.184.326.315.528.41.203.09.416.137.648.137.499 0 .886-.196 1.159-.589.274-.392.416-.927.416-1.604 0-.678-.136-1.2-.416-1.593-.279-.392-.665-.588-1.159-.588a1.492 1.492 0 00-1.176.54 1.89 1.89 0 00-.351.684c-.083.28-.125.594-.125.957zm8.38-3.376c.392 0 .761.048 1.093.143.339.095.625.25.874.463.244.214.434.493.565.838.13.345.19.773.184 1.278v.315c0 .13-.006.273-.006.422v.47c0 .16-.006.314-.006.457 0 .404.018.802.048 1.189.029.392.077.719.142.986h-1.289c-.024-.136-.048-.267-.066-.392a9.434 9.434 0 01-.053-.523 1.888 1.888 0 01-.838.802 2.822 2.822 0 01-1.254.268c-.345 0-.666-.048-.951-.137a2.205 2.205 0 01-.743-.386 1.689 1.689 0 01-.487-.6 1.775 1.775 0 01-.173-.79c0-.393.113-.72.345-.981a2.58 2.58 0 01.927-.642 6.162 6.162 0 011.361-.38c.517-.09 1.07-.161 1.652-.227v-.154c0-.268-.035-.493-.107-.672a1.067 1.067 0 00-.291-.428 1.045 1.045 0 00-.434-.225 2.218 2.218 0 00-.547-.066c-.362 0-.665.095-.909.285-.244.19-.374.476-.392.862h-1.385a2.21 2.21 0 01.826-1.58 2.63 2.63 0 01.85-.452c.327-.107.69-.16 1.082-.16m1.319 3.583c-.505.047-.933.101-1.29.166a4.315 4.315 0 00-.873.238c-.232.095-.398.208-.505.339a.715.715 0 00-.161.47c0 .273.107.493.321.653.214.16.499.238.85.238.523 0 .927-.143 1.218-.434.292-.291.44-.767.44-1.438v-.232zm4.208-2.49c.184-.333.434-.589.767-.767.326-.178.719-.267 1.164-.267.387 0 .72.059.987.178.273.119.493.291.672.511.172.22.303.487.386.79.083.31.125.654.125 1.029v4h-1.409v-3.662a5.7 5.7 0 00-.035-.63 1.63 1.63 0 00-.161-.552.96.96 0 00-.368-.387c-.161-.095-.375-.142-.648-.142-.274 0-.499.047-.69.148a1.29 1.29 0 00-.463.41 1.74 1.74 0 00-.256.63 3.748 3.748 0 00-.077.79v3.389h-1.409v-6.372h1.409v.886l.006.018zm5.194 7.554V48.87h.535c.149 0 .28 0 .398-.018a.735.735 0 00.309-.107.814.814 0 00.244-.268c.071-.118.143-.279.214-.487l.071-.154-2.312-6.336h1.54l1.444 4.57 1.444-4.57h1.444l-2.24 6.36c-.149.41-.291.748-.434 1.016a2.106 2.106 0 01-.482.642c-.184.16-.392.267-.641.332a3.552 3.552 0 01-.898.096h-.642.006z" fill="#fff"/></g><defs><clipPath id="clip0_9_266"><rect width="202.163" height="50" fill="#fff"/></clipPath></defs></svg>