<svg width="60" height="60" viewBox="0 0 60 60" fill="none" xmlns="http://www.w3.org/2000/svg"><g clip-path="url(#clip0_52_964)"><path d="M59.23 30C59.23 13.856 46.145.77 30 .77S.77 13.855.77 30 13.855 59.23 30 59.23 59.23 46.145 59.23 30z" stroke="#3271B2" stroke-width="2"/><path d="M47.6 40.215c0-.407-.123-.807-.346-1.153a2.077 2.077 0 00.792-1.923 2.045 2.045 0 00-1.269-1.654 2.1 2.1 0 00-.123-2 2.058 2.058 0 00-1.739-.962h-5.769l.323-.315c.862-.862.885-2.27.031-3.139a2.182 2.182 0 00-3.1-.023l-5.815 4.885h-.1l-3.131-3.785.008-.3 3.054-2.538-.87-1.031-5.308 4.415c-.33.339-.907.377-1.238.046a.85.85 0 01-.008-1.2l2.693-2.646h-9.077a.719.719 0 010-1.438H18.8v-1.377h-3.285a.714.714 0 01-.715-.715c0-.4.323-.723.715-.723H18.8v-1.37h-2.815a.714.714 0 01-.716-.715c0-.4.316-.723.716-.723H18.8v-1.37h-2.192a.719.719 0 010-1.438H25.9l3.754 1.808h2.323v-1.362h-2.015l-3.754-1.807h-9.6a2.07 2.07 0 00-1.8 1.061 2.074 2.074 0 00.038 2.1 2.04 2.04 0 00-.884 1.323c-.108.539 0 1.1.307 1.562a2.078 2.078 0 00-.8 1.93c.1.739.585 1.37 1.27 1.647a2.1 2.1 0 00.123 2 2.07 2.07 0 001.746.961h1.446v2.877l-1.792 3.785v9.669c0 .754.4 1.446 1.046 1.815.646.37 1.446.354 2.084-.038.3.462.777.785 1.308.892.538.108 1.1-.008 1.554-.315a2.04 2.04 0 001.915.808 2.069 2.069 0 001.639-1.277c.638.3 1.384.253 1.984-.131a2.076 2.076 0 00.954-1.754V43.3h2.808l3.762 1.808h9.6c.738 0 1.43-.408 1.792-1.062a2.077 2.077 0 00-.031-2.092 2.098 2.098 0 00.923-1.739zm-20.2-4.784v1.7l-.015 6.17.015 1.276a.72.72 0 01-.715.723.72.72 0 01-.716-.723v-2.215h-1.361v3.315c0 .4-.316.723-.708.723a.716.716 0 01-.715-.723v-3.315h-1.362v2.846a.719.719 0 01-.715.715.719.719 0 01-.716-.715v-2.846h-1.354v2.215a.72.72 0 01-.715.723.72.72 0 01-.715-.723v-9.361L19.4 31.43v-3.154h2.939l-.293.285a2.243 2.243 0 00-.03 3.138 2.19 2.19 0 003.107.023l1.054-.884 5 6.046c.33.338.37.923.038 1.254a.84.84 0 01-1.192 0L27.4 35.43zm18.608 2.7h-3.293v1.37h2.823c.393 0 .708.322.708.715 0 .4-.315.722-.708.722h-2.822v1.37h2.2c.392 0 .707.323.707.723a.712.712 0 01-.707.715h-9.3l-3.754-1.808h-3.116V38.77l.316.323a2.19 2.19 0 003.107.031 2.226 2.226 0 00.023-3.13l-.8-.97 5.893-4.946c.323-.339.907-.377 1.238-.046.33.33.33.87 0 1.207l-2.684 2.639h9.077c.392 0 .707.323.707.723 0 .4-.315.715-.707.715h-2.2v1.377h3.292c.392 0 .707.324.707.716 0 .4-.315.723-.707.723z" fill="#00AEEF"/><path d="M43.392 14.184c-.361 0-.715.1-1.023.293a1.974 1.974 0 00-1.261-.846 1.95 1.95 0 00-1.485.292 1.958 1.958 0 00-1.838-.761 1.951 1.951 0 00-1.57 1.215 1.98 1.98 0 00-1.907.115c-.57.37-.916 1-.916 1.677v5.53l-.3-.307a2.113 2.113 0 00-2.984-.03 2.103 2.103 0 00-.023 2.976l4.153 4.977 1.016-.8-4.192-5.023c-.316-.315-.362-.877-.039-1.192a.812.812 0 011.146 0l2.516 2.577v-8.708a.685.685 0 011.369 0v2.108h1.307v-3.154c0-.385.308-.685.685-.685.377 0 .685.3.685.685v3.154h1.307v-2.708c0-.377.3-.685.685-.685.377 0 .685.308.685.685v2.708h1.3v-2.108a.685.685 0 011.369 0v8.915l-1.715 3.608v2.154h1.292v-1.861l1.723-3.608v-9.208a1.994 1.994 0 00-1.985-1.985z" fill="#E0027A"/></g><defs><clipPath id="clip0_52_964"><rect width="60" height="60" fill="#fff"/></clipPath></defs></svg>