<svg width="60" height="60" viewBox="0 0 60 60" fill="none" xmlns="http://www.w3.org/2000/svg"><g clip-path="url(#clip0_52_920)"><path d="M59.23 30C59.23 13.856 46.145.77 30 .77S.77 13.855.77 30 13.855 59.23 30 59.23 59.23 46.145 59.23 30z" stroke="#3271B2" stroke-width="2"/><path d="M20.523 43.3a2.19 2.19 0 01-1.37-.485 17.269 17.269 0 01-2.653-2.592 2.121 2.121 0 01.015-2.754l1.57-1.861a1.25 1.25 0 00.2-1.316 1.278 1.278 0 00-1.093-.777l-2.454-.207c-1.053-.093-1.877-.877-1.992-1.923a17.194 17.194 0 01-.015-3.685c.107-1.038.923-1.83 1.977-1.93l2.454-.224c.492-.046.9-.338 1.084-.792a1.25 1.25 0 00-.208-1.308l-1.592-1.854a2.12 2.12 0 01-.03-2.753 17.617 17.617 0 012.63-2.616 2.192 2.192 0 012.785.015l1.9 1.547a1.29 1.29 0 001.33.2c.454-.185.747-.585.793-1.077l.207-2.416a2.161 2.161 0 011.947-1.969c1.23-.138 2.5-.138 3.738-.015a2.167 2.167 0 011.962 1.954l.223 2.415c.046.485.346.885.8 1.07.461.184.954.107 1.33-.209l1.885-1.561a2.192 2.192 0 012.785-.038 17.26 17.26 0 012.654 2.592 2.121 2.121 0 01-.016 2.754L41.8 23.346a1.25 1.25 0 00-.2 1.316 1.3 1.3 0 001.092.784l2.454.2c1.054.092 1.877.877 2 1.923.07.631.108 1.27.108 1.908 0 .592-.039 1.185-.1 1.777a2.153 2.153 0 01-1.977 1.93l-2.454.224c-.492.046-.9.338-1.085.792-.184.446-.107.938.216 1.308l1.584 1.854c.685.8.7 1.93.039 2.753a17.987 17.987 0 01-2.63 2.616 2.203 2.203 0 01-2.793-.016L36.16 41.17a1.29 1.29 0 00-1.33-.2 1.26 1.26 0 00-.793 1.077l-.023.262-.715-.062.023-.261a1.987 1.987 0 011.23-1.67 2.025 2.025 0 012.062.308l1.893 1.554c.553.446 1.33.454 1.884.008a16.903 16.903 0 002.523-2.508 1.432 1.432 0 00-.023-1.854L41.3 35.97a1.971 1.971 0 01-.323-2.038 2.011 2.011 0 011.677-1.223l2.454-.223c.715-.07 1.261-.6 1.338-1.308a15.612 15.612 0 00-.015-3.53 1.455 1.455 0 00-1.346-1.293l-2.454-.208a2.004 2.004 0 01-1.693-1.207 1.97 1.97 0 01.316-2.039l1.569-1.861a1.443 1.443 0 00.008-1.862 16.214 16.214 0 00-2.546-2.485 1.484 1.484 0 00-1.877.023l-1.885 1.562a2.009 2.009 0 01-2.062.323 1.98 1.98 0 01-1.238-1.654l-.23-2.415a1.462 1.462 0 00-1.324-1.323 17.444 17.444 0 00-3.584.015 1.455 1.455 0 00-1.316 1.33l-.207 2.416a1.973 1.973 0 01-1.224 1.67c-.7.284-1.492.169-2.069-.308l-1.892-1.546a1.494 1.494 0 00-1.885-.016 16.96 16.96 0 00-2.523 2.516A1.423 1.423 0 0017 21.139l1.585 1.853c.484.562.607 1.346.323 2.031a2.011 2.011 0 01-1.677 1.223l-2.454.223a1.469 1.469 0 00-1.339 1.308 18.1 18.1 0 00-.084 1.7c0 .615.03 1.23.1 1.83.077.7.638 1.24 1.346 1.293l2.454.208c.754.061 1.4.53 1.692 1.215.292.677.17 1.462-.308 2.03l-1.577 1.87a1.432 1.432 0 00-.007 1.854 16.21 16.21 0 002.546 2.485c.561.446 1.33.43 1.877-.023l1.884-1.562a1.99 1.99 0 011.839-.392 1.971 1.971 0 011.37 1.277l-.678.215a1.29 1.29 0 00-.884-.815 1.3 1.3 0 00-1.185.253l-1.877 1.562a2.23 2.23 0 01-1.423.523z" fill="#E0027A"/><path d="M19.154 42.815a17.269 17.269 0 01-2.654-2.592 2.121 2.121 0 01.015-2.754l1.57-1.861a1.25 1.25 0 00.2-1.316 1.278 1.278 0 00-1.093-.777l-2.454-.207c-1.053-.093-1.877-.877-1.992-1.923a17.194 17.194 0 01-.015-3.685c.107-1.038.923-1.83 1.977-1.93l2.454-.224c.492-.046.9-.338 1.084-.792a1.25 1.25 0 00-.208-1.308l-1.592-1.854a2.12 2.12 0 01-.03-2.753 17.617 17.617 0 012.63-2.616 2.192 2.192 0 012.785.015l1.9 1.547a1.29 1.29 0 001.33.2c.454-.185.747-.585.793-1.077l.207-2.416a2.161 2.161 0 011.947-1.969c1.23-.138 2.5-.138 3.738-.015a2.167 2.167 0 011.962 1.954l.223 2.415c.046.485.346.885.8 1.07.461.184.954.107 1.33-.209l1.885-1.561a2.192 2.192 0 012.785-.038 17.26 17.26 0 012.654 2.592 2.121 2.121 0 01-.016 2.754L41.8 23.346a1.25 1.25 0 00-.2 1.316 1.3 1.3 0 001.092.784l2.454.2c1.054.092 1.877.877 2 1.923.07.631.108 1.27.108 1.908 0 .592-.039 1.185-.1 1.777a2.153 2.153 0 01-1.977 1.93l-2.454.224c-.492.046-.9.338-1.085.792-.184.446-.107.938.216 1.308l1.584 1.854c.685.8.7 1.93.039 2.753a17.987 17.987 0 01-2.63 2.616 2.203 2.203 0 01-2.793-.016L36.16 41.17a1.29 1.29 0 00-1.33-.2 1.26 1.26 0 00-.793 1.077l-.023.262-.715-.062.023-.261a1.987 1.987 0 011.23-1.67 2.025 2.025 0 012.062.308l1.893 1.554c.553.446 1.33.454 1.884.008a16.903 16.903 0 002.523-2.508 1.432 1.432 0 00-.023-1.854L41.3 35.97a1.971 1.971 0 01-.323-2.038 2.011 2.011 0 011.677-1.223l2.454-.223c.715-.07 1.261-.6 1.338-1.308a15.612 15.612 0 00-.015-3.53 1.455 1.455 0 00-1.346-1.293l-2.454-.208a2.004 2.004 0 01-1.693-1.207 1.97 1.97 0 01.316-2.039l1.569-1.861a1.443 1.443 0 00.008-1.862 16.214 16.214 0 00-2.546-2.485 1.484 1.484 0 00-1.877.023l-1.885 1.562a2.009 2.009 0 01-2.062.323 1.98 1.98 0 01-1.238-1.654l-.23-2.415a1.462 1.462 0 00-1.324-1.323 17.444 17.444 0 00-3.584.015 1.455 1.455 0 00-1.316 1.33l-.207 2.416a1.973 1.973 0 01-1.224 1.67c-.7.284-1.492.169-2.069-.308l-1.892-1.546a1.494 1.494 0 00-1.885-.016 16.96 16.96 0 00-2.523 2.516A1.423 1.423 0 0017 21.139l1.585 1.853c.484.562.607 1.346.323 2.031a2.011 2.011 0 01-1.677 1.223l-2.454.223a1.469 1.469 0 00-1.339 1.308 18.1 18.1 0 00-.084 1.7c0 .615.03 1.23.1 1.83.077.7.638 1.24 1.346 1.293l2.454.208c.754.061 1.4.53 1.692 1.215.292.677.17 1.462-.308 2.03l-1.577 1.87a1.432 1.432 0 00-.007 1.854 16.21 16.21 0 002.546 2.485c.561.446 1.33.43 1.877-.023l1.884-1.562a1.99 1.99 0 011.839-.392 1.971 1.971 0 011.37 1.277l-.678.215a1.29 1.29 0 00-.884-.815 1.3 1.3 0 00-1.185.253l-1.877 1.562a2.23 2.23 0 01-1.423.523 2.19 2.19 0 01-1.37-.485z" stroke="#E0027A" stroke-width=".5"/><path d="M29.946 20.815a.361.361 0 01-.361-.361v-2.316c0-.2.161-.361.361-.361a.36.36 0 01.354.361v2.316a.36.36 0 01-.354.361z" fill="#00AEEF"/><path d="M29.585 20.454v-2.316c0-.2.161-.361.361-.361a.36.36 0 01.354.361v2.316a.36.36 0 01-.354.361.361.361 0 01-.361-.361z" stroke="#00AEEF" stroke-width=".5"/><path d="M23.439 23.462a.354.354 0 01-.254-.1l-1.639-1.639a.362.362 0 010-.508.362.362 0 01.508 0l1.638 1.639a.362.362 0 010 .508.353.353 0 01-.253.1z" fill="#00AEEF"/><path d="M23.185 23.362l-1.639-1.639a.362.362 0 010-.508.362.362 0 01.508 0l1.638 1.639a.362.362 0 010 .508.353.353 0 01-.253.1.354.354 0 01-.254-.1z" stroke="#00AEEF" stroke-width=".5"/><path d="M20.746 29.87h-2.315a.361.361 0 01-.362-.362.36.36 0 01.362-.354h2.315c.2 0 .362.161.362.354 0 .2-.162.361-.362.361z" fill="#00AEEF"/><path d="M18.43 29.87a.361.361 0 01-.36-.362.36.36 0 01.36-.354h2.316c.2 0 .362.161.362.354 0 .2-.162.361-.362.361h-2.315z" stroke="#00AEEF" stroke-width=".5"/><path d="M21.8 37.915a.362.362 0 01-.254-.615l1.639-1.639a.362.362 0 01.507 0 .362.362 0 010 .508l-1.638 1.639a.362.362 0 01-.254.107z" fill="#00AEEF"/><path d="M21.546 37.808a.362.362 0 010-.508l1.639-1.639a.362.362 0 01.507 0 .362.362 0 010 .508l-1.638 1.639a.362.362 0 01-.254.107.362.362 0 01-.254-.107z" stroke="#00AEEF" stroke-width=".5"/><path d="M38.084 37.915a.362.362 0 01-.253-.107l-1.639-1.639a.362.362 0 010-.508.362.362 0 01.508 0l1.638 1.639a.362.362 0 01-.254.615z" fill="#00AEEF"/><path d="M37.83 37.808l-1.638-1.639a.362.362 0 010-.508.362.362 0 01.508 0l1.638 1.639a.362.362 0 01-.254.615.362.362 0 01-.253-.107z" stroke="#00AEEF" stroke-width=".5"/><path d="M41.454 29.87h-2.316a.361.361 0 01-.361-.362.36.36 0 01.361-.354h2.316c.2 0 .361.161.361.354a.36.36 0 01-.361.361z" fill="#00AEEF"/><path d="M39.138 29.87a.361.361 0 01-.361-.362.36.36 0 01.361-.354h2.316c.2 0 .361.161.361.354a.36.36 0 01-.361.361h-2.316z" stroke="#00AEEF" stroke-width=".5"/><path d="M36.446 23.462a.355.355 0 01-.254-.1.362.362 0 010-.508l1.639-1.639a.362.362 0 01.507 0 .362.362 0 010 .508L36.7 23.362a.357.357 0 01-.254.1z" fill="#00AEEF"/><path d="M36.192 23.362a.362.362 0 010-.508l1.639-1.639a.362.362 0 01.507 0 .362.362 0 010 .508L36.7 23.362a.357.357 0 01-.254.1.355.355 0 01-.254-.1z" stroke="#00AEEF" stroke-width=".5"/><path d="M29.946 32.154a.347.347 0 01-.277-.123L27 28.96a.347.347 0 01.038-.5.354.354 0 01.5.031l2.408 2.762 2.4-2.762a.362.362 0 01.508-.03c.146.13.162.353.03.5l-2.669 3.076a.361.361 0 01-.269.116z" fill="#E0027A"/><path d="M29.67 32.03L27 28.962a.347.347 0 01.038-.5.354.354 0 01.5.031l2.408 2.762 2.4-2.762a.362.362 0 01.508-.03c.146.13.162.353.03.5l-2.669 3.076a.361.361 0 01-.269.116.347.347 0 01-.277-.123z" stroke="#E0027A" stroke-width=".5"/><path d="M29.946 39.8a.36.36 0 01-.361-.354v-7.684a.358.358 0 01.715 0v7.684a.358.358 0 01-.354.354z" fill="#E0027A"/><path d="M29.585 39.446v-7.684a.358.358 0 01.715 0v7.684a.358.358 0 01-.715 0z" stroke="#E0027A" stroke-width=".5"/><path d="M29.946 47.03c-2.254 0-4.084-1.892-4.084-4.215v-3.861c0-2.139-.777-3.223-1.593-4.377-.915-1.285-1.861-2.608-1.861-5.339 0-4.377 3.384-7.93 7.538-7.93s7.53 3.553 7.53 7.93c0 2.731-.945 4.054-1.853 5.339-.823 1.146-1.6 2.238-1.6 4.377v3.861c0 2.323-1.83 4.216-4.077 4.216zm0-25.007c-3.761 0-6.823 3.23-6.823 7.215 0 2.5.839 3.677 1.723 4.923.854 1.193 1.73 2.423 1.73 4.793v3.861c0 1.931 1.509 3.5 3.363 3.5 1.861 0 3.369-1.569 3.369-3.5v-3.861c0-2.37.877-3.6 1.723-4.793.892-1.246 1.73-2.423 1.73-4.923 0-3.984-3.061-7.215-6.815-7.215z" fill="#00AEEF"/><path d="M25.862 42.815v-3.861c0-2.139-.777-3.223-1.593-4.377-.915-1.285-1.861-2.608-1.861-5.339 0-4.377 3.384-7.93 7.538-7.93s7.53 3.553 7.53 7.93c0 2.731-.945 4.054-1.853 5.339-.823 1.146-1.6 2.238-1.6 4.377v3.861c0 2.323-1.83 4.216-4.077 4.216-2.254 0-4.084-1.893-4.084-4.216zm-2.739-13.577c0 2.5.839 3.677 1.723 4.923.854 1.193 1.73 2.423 1.73 4.793v3.861c0 1.931 1.509 3.5 3.363 3.5 1.861 0 3.369-1.569 3.369-3.5v-3.861c0-2.37.877-3.6 1.723-4.793.892-1.246 1.73-2.423 1.73-4.923 0-3.984-3.061-7.215-6.815-7.215-3.761 0-6.823 3.23-6.823 7.215z" stroke="#00AEEF" stroke-width=".5"/><path d="M26.085 42.792H33.8v.723h-7.715v-.723z" fill="#00AEEF"/><path d="M33.8 42.792v.723h-7.715v-.723H33.8z" stroke="#00AEEF" stroke-width=".5"/><path d="M26.085 39.408h7.723v.715h-7.723v-.715z" fill="#00AEEF"/><path d="M33.808 39.408v.715h-7.723v-.715h7.723z" stroke="#00AEEF" stroke-width=".5"/></g><defs><clipPath id="clip0_52_920"><rect width="60" height="60" fill="#fff"/></clipPath></defs></svg>