<svg width="60" height="60" viewBox="0 0 60 60" fill="none" xmlns="http://www.w3.org/2000/svg"><g clip-path="url(#clip0_52_903)"><path d="M59.23 30C59.23 13.856 46.145.77 30 .77S.77 13.855.77 30 13.855 59.23 30 59.23 59.23 46.145 59.23 30z" stroke="#3271B2" stroke-width="2"/><path d="M31.515 41.4V29.215h-1.638V41.4a2.077 2.077 0 00-1.208 2.323c.2.97 1.046 1.662 2.031 1.662.985 0 1.83-.693 2.03-1.662.2-.962-.307-1.93-1.214-2.323zm-.815 2.338a.437.437 0 01-.438-.43c0-.239.2-.431.438-.431a.43.43 0 110 .861z" fill="#E0027A"/><path d="M39 38.062c-.816 0-1.562.484-1.892 1.23h-1.662V30.7h-1.638v10.23h3.284a2.069 2.069 0 002.446 1.208 2.083 2.083 0 001.524-2.276 2.075 2.075 0 00-2.062-1.8zm0 2.507a.43.43 0 01-.43-.43c0-.239.191-.439.43-.439.238 0 .438.2.438.438 0 .239-.2.431-.438.431zm-13.054-1.277h-1.662a2.077 2.077 0 00-2.338-1.184 2.078 2.078 0 00-1.623 2.053A2.058 2.058 0 0022 42.17c.97.193 1.93-.33 2.308-1.238h3.276V30.7h-1.638v8.592zm-3.554 1.277a.43.43 0 01-.43-.43c0-.239.192-.439.43-.439.239 0 .431.2.431.438a.43.43 0 01-.43.431z" fill="#00AEEF"/><path d="M41.43 24.677a7.49 7.49 0 00-3-5.985 7.45 7.45 0 00-6.568-1.146c-2.177-2.784-5.985-3.707-9.208-2.246a7.624 7.624 0 00-4.323 8.408 6.412 6.412 0 00-2.83 6.984 6.434 6.434 0 005.768 4.862l2 .008v-1.623l-1.907-.008a4.82 4.82 0 01-4.416-4.785 4.78 4.78 0 012.685-4.308l.615-.3-.192-.653a5.99 5.99 0 013.277-7.108c2.707-1.23 5.915-.308 7.538 2.177l.362.561.623-.246a5.815 5.815 0 015.4.585 5.768 5.768 0 012.546 4.785 5.2 5.2 0 01-.046.692l-.108.907h.923c2.093.008 3.831 1.677 3.877 3.762a3.854 3.854 0 01-3.669 3.946l-2.408-.008v1.631H40.8c2.815-.13 5.115-2.369 5.27-5.177a5.486 5.486 0 00-4.64-5.715z" fill="#00AEEF"/></g><defs><clipPath id="clip0_52_903"><rect width="60" height="60" fill="#fff"/></clipPath></defs></svg>