<svg width="60" height="60" viewBox="0 0 60 60" fill="none" xmlns="http://www.w3.org/2000/svg"><g clip-path="url(#clip0_52_899)"><path d="M59.23 30C59.23 13.856 46.145.77 30 .77S.77 13.855.77 30 13.855 59.23 30 59.23 59.23 46.145 59.23 30z" stroke="#3271B2" stroke-width="2"/><path d="M21.33 38.316l8.709 8.7 4.838-4.839c.761 3.285 4.008 5.362 7.315 4.685 3.3-.67 5.47-3.862 4.885-7.185l-1.33.239a4.874 4.874 0 01-4.8 5.73 4.873 4.873 0 110-9.746 4.792 4.792 0 013.007 1.039l.838-1.062a6.11 6.11 0 00-2.446-1.17l4.962-4.96-8.146-8.154-.193-.193-.361-.361-8.639-8.639-8.638 8.639-8.639 8.638 8.162 8.162.477.477zm13.4 2.1l-4.691 4.692-7.277-7.27 1.507-1.507a2.99 2.99 0 003.031 1.115 2.996 2.996 0 002.285-2.277 3.003 3.003 0 00-1.123-3.03l1.507-1.508 3.062 3.062.292-1.147c.2-.777.93-1.3 1.73-1.23.8.069 1.44.7 1.5 1.5.07.8-.453 1.53-1.23 1.73l-1.146.293 1.97 1.969a6.22 6.22 0 00-1.416 3.608zm10.67-10.67l-4.815 4.816a6.213 6.213 0 00-3.47 1.307l-.469-.469a2.993 2.993 0 001.2-3.054 2.992 2.992 0 00-2.315-2.323 2.993 2.993 0 00-3.054 1.208l-1.554-1.554 2.954-2.954L32.8 26.4a1.64 1.64 0 01-1.154-1.738 1.64 1.64 0 011.47-1.47 1.649 1.649 0 011.738 1.154l.315 1.046 3.016-2.869 7.215 7.223zm-8.17-8.177l-1.545 1.477a2.988 2.988 0 00-3.031-1.146 2.984 2.984 0 00-2.292 2.277 3.001 3.001 0 001.115 3.038l-1.508 1.508-2.954-2.954-.323 1.077a1.73 1.73 0 01-.407.685 1.658 1.658 0 01-2.331 0 1.658 1.658 0 010-2.33c.192-.186.43-.332.684-.409l1.077-.323-2.953-2.954 7.207-7.207 7.262 7.261zM14.6 29.677l7.208-7.208 1.508 1.508a3.003 3.003 0 00-1.124 3.03 2.996 2.996 0 002.285 2.278 2.99 2.99 0 003.03-1.116l1.508 1.508-2.953 2.946 1.076.331c.262.077.493.215.685.408a1.648 1.648 0 010 2.323 1.644 1.644 0 01-2.738-.677l-.323-1.077-2.954 2.954-7.208-7.208z" fill="#00AEEF"/><path d="M39.3 39.946l-.892.885 2.915 2.923 5.977-5.777-.87-.9-5.084 4.908-2.046-2.039z" fill="#E0027A"/></g><defs><clipPath id="clip0_52_899"><rect width="60" height="60" fill="#fff"/></clipPath></defs></svg>