<svg width="31" height="31" viewBox="0 0 31 31" fill="none" xmlns="http://www.w3.org/2000/svg"><path fill-rule="evenodd" clip-rule="evenodd" d="M30.443 15.221c0 8.407-6.815 15.222-15.222 15.222C6.815 30.443 0 23.628 0 15.22 0 6.815 6.815 0 15.221 0c8.407 0 15.222 6.815 15.222 15.221zm-8.14-4.801a3.654 3.654 0 011.07 2.584v4.352a3.654 3.654 0 01-3.654 3.654h-9.37a3.653 3.653 0 01-3.655-3.654v-4.352a3.654 3.654 0 013.655-3.655h9.37c.97 0 1.899.385 2.584 1.07zm-8.591 7.185l4.164-2.082c.167-.104-.01-.354-.146-.427l-4.018-2.186c-.156-.094-.719.031-.719.219v4.258c0 .218.552.302.719.218z" fill="#fff"/></svg>