<svg width="203" height="50" viewBox="0 0 203 50" fill="none" xmlns="http://www.w3.org/2000/svg">
<g clip-path="url(#clip0_9_266)">
<path d="M79.1751 28.6521C77.9805 29.2761 76.7324 29.7278 75.4309 30.0012C74.1293 30.2805 72.804 30.4172 71.4549 30.4172C70.0166 30.4172 68.6913 30.1914 67.4789 29.7397C66.2665 29.288 65.2146 28.6461 64.335 27.8022C63.4494 26.9642 62.76 25.942 62.2667 24.7474C61.7734 23.5528 61.5238 22.2156 61.5238 20.7417C61.5238 19.2678 61.7734 17.9306 62.2667 16.736C62.76 15.5414 63.4494 14.5192 64.335 13.6812C65.2205 12.8432 66.2665 12.1954 67.4789 11.7437C68.6913 11.292 70.0166 11.0662 71.4549 11.0662C72.8931 11.0662 74.2839 11.2445 75.526 11.6011C76.7622 11.9577 77.8498 12.5698 78.7888 13.4316L75.9301 16.5518C75.3774 15.9812 74.7534 15.5474 74.058 15.2502C73.3627 14.953 72.5009 14.8104 71.4549 14.8104C70.5872 14.8104 69.8027 14.959 69.1014 15.2502C68.4001 15.5474 67.7939 15.9574 67.2947 16.4864C66.7895 17.0153 66.4032 17.6453 66.1357 18.3704C65.8683 19.1014 65.7316 19.8859 65.7316 20.7358C65.7316 21.5856 65.8683 22.3939 66.1357 23.113C66.4032 23.8322 66.7895 24.4562 67.2947 24.9851C67.7998 25.5141 68.4001 25.9242 69.1014 26.2213C69.8027 26.5185 70.5872 26.6611 71.4549 26.6611C72.3226 26.6611 73.1012 26.5601 73.743 26.364C74.3849 26.1678 74.896 25.9598 75.2764 25.7518V22.7624H71.972V19.0182H79.1751V28.6402V28.6521Z" fill="white"/>
<path d="M86.194 10.2936H82.2952V29.9536H86.194V10.2936Z" fill="white"/>
<path d="M96.9393 28.3668H96.8858C96.4519 29.0443 95.8754 29.5317 95.1563 29.8229C94.4372 30.1201 93.6764 30.2627 92.8801 30.2627C92.2917 30.2627 91.7211 30.1795 91.1744 30.019C90.6276 29.8526 90.1462 29.6089 89.7302 29.2761C89.3141 28.9492 88.9873 28.5392 88.7436 28.0518C88.4999 27.5645 88.3811 27.0058 88.3811 26.364C88.3811 25.633 88.5178 25.0208 88.7852 24.5156C89.0526 24.0105 89.4152 23.5944 89.8787 23.2676C90.3364 22.9407 90.8653 22.6851 91.4537 22.5009C92.0421 22.3167 92.6542 22.1859 93.2901 22.0968C93.9201 22.0076 94.556 21.9601 95.186 21.9422C95.816 21.9244 96.4044 21.9185 96.9393 21.9185C96.9393 21.2231 96.6896 20.6763 96.1964 20.2663C95.7031 19.8562 95.1206 19.6541 94.4431 19.6541C93.7656 19.6541 93.2188 19.7908 92.6899 20.0582C92.1609 20.3257 91.6914 20.6942 91.2754 21.1637L89.1953 19.0301C89.9204 18.3526 90.7702 17.8474 91.7449 17.5086C92.7136 17.1699 93.718 17.0034 94.7581 17.0034C95.9051 17.0034 96.8442 17.1461 97.5811 17.4314C98.3181 17.7166 98.9064 18.1386 99.3522 18.6913C99.792 19.244 100.101 19.9275 100.273 20.7358C100.446 21.544 100.535 22.4712 100.535 23.5291V29.9536H96.9452V28.3668H96.9393ZM95.9765 24.4146C95.6793 24.4146 95.3108 24.4265 94.871 24.4562C94.4312 24.48 94.0033 24.5572 93.5992 24.6761C93.1951 24.8009 92.8444 24.9792 92.5591 25.2229C92.2739 25.4665 92.1312 25.8053 92.1312 26.2332C92.1312 26.7027 92.3273 27.0474 92.7315 27.2733C93.1297 27.4991 93.5457 27.612 93.9795 27.612C94.3599 27.612 94.7284 27.5585 95.085 27.4575C95.4416 27.3565 95.7566 27.2079 96.0359 27.0177C96.3152 26.8275 96.5351 26.5839 96.6956 26.2867C96.862 25.9895 96.9452 25.6448 96.9452 25.2466V24.4146H95.9824H95.9765Z" fill="white"/>
<path d="M110.121 21.0329C109.551 20.3257 108.796 19.9691 107.857 19.9691C107.53 19.9691 107.209 20.0464 106.894 20.2009C106.579 20.3554 106.425 20.6228 106.425 21.0092C106.425 21.3182 106.585 21.55 106.906 21.6986C107.227 21.8471 107.631 21.9779 108.13 22.0908C108.624 22.2037 109.152 22.3226 109.717 22.4533C110.282 22.5841 110.811 22.7862 111.304 23.0655C111.797 23.3448 112.207 23.7192 112.528 24.1947C112.849 24.6702 113.01 25.3061 113.01 26.1025C113.01 26.8988 112.831 27.5883 112.475 28.1172C112.118 28.6461 111.666 29.0741 111.108 29.389C110.555 29.71 109.931 29.9358 109.236 30.0666C108.54 30.1973 107.857 30.2627 107.179 30.2627C106.294 30.2627 105.402 30.1379 104.499 29.8883C103.596 29.6387 102.835 29.1929 102.211 28.5511L104.576 25.9242C104.939 26.3758 105.343 26.7146 105.783 26.9523C106.222 27.1901 106.74 27.303 107.328 27.303C107.78 27.303 108.184 27.2376 108.552 27.1069C108.915 26.9761 109.099 26.7384 109.099 26.3937C109.099 26.049 108.939 25.8172 108.618 25.6508C108.297 25.4844 107.887 25.3477 107.393 25.2348C106.9 25.1218 106.371 24.997 105.806 24.8722C105.242 24.7415 104.713 24.5453 104.22 24.2898C103.726 24.0283 103.316 23.6598 102.995 23.1844C102.674 22.7089 102.514 22.073 102.514 21.2707C102.514 20.5278 102.668 19.8859 102.972 19.3451C103.275 18.8102 103.673 18.3644 104.166 18.0197C104.659 17.6691 105.23 17.4195 105.872 17.2531C106.514 17.0867 107.162 17.0034 107.821 17.0034C108.653 17.0034 109.491 17.1283 110.341 17.366C111.191 17.6097 111.91 18.0435 112.498 18.6675L110.109 21.0329H110.121Z" fill="white"/>
<path d="M122.156 21.0329C121.586 20.3257 120.831 19.9691 119.892 19.9691C119.565 19.9691 119.244 20.0464 118.929 20.2009C118.614 20.3554 118.46 20.6228 118.46 21.0092C118.46 21.3182 118.62 21.55 118.941 21.6986C119.262 21.8471 119.666 21.9779 120.165 22.0908C120.658 22.2037 121.187 22.3226 121.752 22.4533C122.317 22.5841 122.846 22.7862 123.339 23.0655C123.832 23.3448 124.242 23.7192 124.563 24.1947C124.884 24.6702 125.045 25.3061 125.045 26.1025C125.045 26.8988 124.866 27.5883 124.51 28.1172C124.153 28.6461 123.701 29.0741 123.143 29.389C122.59 29.71 121.966 29.9358 121.271 30.0666C120.575 30.1973 119.892 30.2627 119.214 30.2627C118.329 30.2627 117.437 30.1379 116.534 29.8883C115.631 29.6387 114.87 29.1929 114.246 28.5511L116.611 25.9242C116.974 26.3758 117.378 26.7146 117.818 26.9523C118.257 27.1901 118.774 27.303 119.363 27.303C119.815 27.303 120.219 27.2376 120.587 27.1069C120.95 26.9761 121.134 26.7384 121.134 26.3937C121.134 26.049 120.973 25.8172 120.653 25.6508C120.332 25.4844 119.922 25.3477 119.428 25.2348C118.935 25.1218 118.406 24.997 117.841 24.8722C117.277 24.7415 116.748 24.5453 116.255 24.2898C115.761 24.0283 115.351 23.6598 115.03 23.1844C114.709 22.7089 114.549 22.073 114.549 21.2707C114.549 20.5278 114.703 19.8859 115.007 19.3451C115.31 18.8102 115.708 18.3644 116.201 18.0197C116.694 17.6691 117.265 17.4195 117.907 17.2531C118.549 17.0867 119.196 17.0034 119.856 17.0034C120.688 17.0034 121.526 17.1283 122.376 17.366C123.226 17.6097 123.945 18.0435 124.533 18.6675L122.144 21.0329H122.156Z" fill="white"/>
<path d="M127.541 11.5476H131.594V18.412H139.475V11.5476H143.528V29.9536H139.475V21.9957H131.594V29.9536H127.541V11.5476Z" fill="white"/>
<path d="M146.309 23.636C146.309 22.6316 146.494 21.7223 146.856 20.9081C147.219 20.0939 147.718 19.3986 148.354 18.8161C148.984 18.2337 149.733 17.7879 150.588 17.4789C151.444 17.1699 152.359 17.0094 153.334 17.0094C154.309 17.0094 155.218 17.1639 156.08 17.4789C156.936 17.7939 157.685 18.2396 158.315 18.8161C158.95 19.3986 159.444 20.0939 159.812 20.9081C160.175 21.7223 160.359 22.6316 160.359 23.636C160.359 24.6404 160.175 25.5497 159.812 26.364C159.45 27.1782 158.95 27.8735 158.315 28.456C157.685 29.0384 156.936 29.4841 156.08 29.7932C155.224 30.1082 154.309 30.2627 153.334 30.2627C152.359 30.2627 151.45 30.1082 150.588 29.7932C149.733 29.4841 148.984 29.0325 148.354 28.456C147.724 27.8735 147.225 27.1782 146.856 26.364C146.494 25.5497 146.309 24.6404 146.309 23.636ZM150.214 23.636C150.214 24.5929 150.487 25.3596 151.034 25.9479C151.581 26.5363 152.348 26.8335 153.334 26.8335C154.321 26.8335 155.087 26.5363 155.634 25.9479C156.181 25.3596 156.454 24.587 156.454 23.636C156.454 22.6851 156.181 21.9125 155.634 21.3241C155.087 20.7358 154.321 20.4386 153.334 20.4386C152.348 20.4386 151.581 20.7358 151.034 21.3241C150.487 21.9125 150.214 22.6851 150.214 23.636Z" fill="white"/>
<path d="M174.807 29.9536H171.063V28.2361H171.009C170.872 28.4797 170.694 28.7234 170.474 28.9611C170.26 29.2048 169.993 29.4188 169.684 29.6089C169.369 29.7991 169.018 29.9536 168.62 30.0785C168.222 30.1973 167.788 30.2627 167.318 30.2627C166.332 30.2627 165.53 30.1141 164.911 29.8051C164.293 29.502 163.818 29.08 163.479 28.5451C163.14 28.0102 162.915 27.3743 162.802 26.6492C162.689 25.9242 162.635 25.1337 162.635 24.2838V17.3125H166.534V23.4993C166.534 23.8619 166.546 24.2422 166.57 24.6286C166.593 25.0208 166.677 25.3774 166.807 25.7102C166.938 26.043 167.134 26.3105 167.408 26.5185C167.675 26.7265 168.061 26.8335 168.567 26.8335C169.072 26.8335 169.476 26.7443 169.791 26.5601C170.1 26.3758 170.344 26.1381 170.504 25.8291C170.67 25.526 170.777 25.1813 170.831 24.8009C170.884 24.4205 170.908 24.0223 170.908 23.6063V17.3125H174.807V29.9477V29.9536Z" fill="white"/>
<path d="M184.714 21.0329C184.144 20.3257 183.389 19.9691 182.45 19.9691C182.123 19.9691 181.802 20.0464 181.487 20.2009C181.178 20.3554 181.017 20.6228 181.017 21.0092C181.017 21.3182 181.178 21.55 181.499 21.6986C181.82 21.8471 182.224 21.9779 182.723 22.0908C183.216 22.2037 183.745 22.3226 184.31 22.4533C184.875 22.5841 185.404 22.7862 185.897 23.0655C186.39 23.3448 186.8 23.7192 187.121 24.1947C187.442 24.6702 187.603 25.3061 187.603 26.1025C187.603 26.8988 187.424 27.5883 187.068 28.1172C186.711 28.6461 186.259 29.0741 185.701 29.389C185.148 29.71 184.524 29.9358 183.829 30.0666C183.133 30.1973 182.45 30.2627 181.772 30.2627C180.887 30.2627 179.995 30.1379 179.092 29.8883C178.189 29.6387 177.428 29.1929 176.804 28.5511L179.169 25.9242C179.532 26.3758 179.936 26.7146 180.376 26.9523C180.815 27.1901 181.332 27.303 181.921 27.303C182.373 27.303 182.777 27.2376 183.145 27.1069C183.508 26.9761 183.692 26.7384 183.692 26.3937C183.692 26.049 183.531 25.8172 183.21 25.6508C182.89 25.4844 182.479 25.3477 181.986 25.2348C181.493 25.1218 180.964 24.997 180.399 24.8722C179.835 24.7415 179.306 24.5453 178.813 24.2898C178.319 24.0283 177.909 23.6598 177.588 23.1844C177.267 22.7089 177.107 22.073 177.107 21.2707C177.107 20.5278 177.261 19.8859 177.564 19.3451C177.868 18.8102 178.266 18.3644 178.759 18.0197C179.252 17.6691 179.823 17.4195 180.465 17.2531C181.107 17.0867 181.754 17.0034 182.414 17.0034C183.246 17.0034 184.084 17.1283 184.934 17.366C185.784 17.6097 186.503 18.0435 187.091 18.6675L184.702 21.0329H184.714Z" fill="white"/>
<path d="M201.563 27.7725C200.939 28.5689 200.149 29.187 199.198 29.6208C198.241 30.0547 197.254 30.2686 196.232 30.2686C195.21 30.2686 194.348 30.1141 193.486 29.7991C192.63 29.4901 191.882 29.0384 191.252 28.4619C190.622 27.8795 190.122 27.1841 189.76 26.3699C189.397 25.5557 189.213 24.6464 189.213 23.642C189.213 22.6376 189.397 21.7283 189.76 20.9141C190.122 20.0998 190.622 19.4045 191.252 18.8221C191.882 18.2396 192.63 17.7939 193.486 17.4848C194.342 17.1758 195.257 17.0153 196.232 17.0153C197.135 17.0153 197.95 17.1699 198.687 17.4848C199.423 17.7998 200.048 18.2456 200.559 18.8221C201.07 19.4045 201.462 20.0998 201.741 20.9141C202.021 21.7283 202.157 22.6376 202.157 23.642V24.8663H193.112C193.266 25.6092 193.605 26.2035 194.128 26.6492C194.645 27.089 195.287 27.3149 196.054 27.3149C196.696 27.3149 197.236 27.1722 197.676 26.887C198.116 26.6017 198.502 26.2332 198.835 25.7815L201.563 27.7844V27.7725ZM198.265 22.2037C198.282 21.544 198.063 20.9794 197.617 20.5159C197.165 20.0464 196.583 19.8146 195.875 19.8146C195.442 19.8146 195.061 19.8859 194.734 20.0226C194.407 20.1593 194.122 20.3376 193.89 20.5575C193.659 20.7714 193.474 21.027 193.344 21.3123C193.213 21.5975 193.142 21.8947 193.124 22.2097H198.271L198.265 22.2037Z" fill="white"/>
<path d="M22.5484 21.2528V26.0609H27.826C26.6968 27.7012 24.6939 28.7531 22.5484 28.7531C19.1965 28.7531 16.106 26.0193 16.106 22.2691C16.106 18.519 19.1311 15.7851 22.5484 15.7851C22.5544 15.7851 22.5603 15.7851 22.5663 15.7851H26.9999V8.61167H22.5663C22.5663 8.61167 22.5544 8.61167 22.5484 8.61167C15.0125 8.61167 8.92666 14.7272 8.92666 22.2691C8.92666 29.811 15.0065 35.9265 22.5484 35.9265C30.0903 35.9265 36.2059 29.811 36.2059 22.2691V21.2469H22.5484V21.2528Z" fill="white"/>
<path d="M40.4077 0.11292V8.61167H36.2059V0H29.1691V19.1014H36.2059V15.791H40.4077V30.1617H47.4444V0.11292H40.4077Z" fill="white"/>
<path d="M21.9482 41.4418C11.4525 41.4418 2.91216 32.8896 2.91216 22.3701C2.91216 18.7448 3.93439 15.2145 5.87186 12.1657C7.75585 9.1941 10.4125 6.80494 13.5564 5.25377C13.8298 5.11708 14.1567 5.23 14.2934 5.50339C14.43 5.77677 14.3171 6.10365 14.0437 6.24034C11.084 7.70236 8.57601 9.95483 6.80494 12.7541C4.98039 15.6306 4.01759 18.9528 4.01759 22.3701C4.01759 32.2774 12.0647 40.3364 21.9482 40.3364C24.5751 40.3364 27.1069 39.7777 29.4782 38.6842C29.7516 38.5534 30.0844 38.6782 30.2092 38.9516C30.34 39.225 30.2151 39.5578 29.9418 39.6826C27.4278 40.8475 24.7355 41.4359 21.9482 41.4359" fill="#00AEEF"/>
<path d="M22.4474 38.91C13.2949 38.91 5.84215 31.4454 5.84215 22.2691C5.84215 13.0928 13.289 5.6282 22.4474 5.6282H26.8988C27.2019 5.6282 27.4516 5.87187 27.4516 6.18091C27.4516 6.48401 27.2079 6.73363 26.8988 6.73363H22.4474C13.9011 6.73363 6.94758 13.705 6.94758 22.2691C6.94758 30.8332 13.9011 37.8046 22.4474 37.8046C30.9937 37.8046 37.9829 30.8332 37.9829 22.2691V21.3004C37.9829 20.9973 38.2265 20.7477 38.5356 20.7477C38.8446 20.7477 39.0883 20.9913 39.0883 21.3004V22.2691C39.0883 31.4454 31.6237 38.91 22.4474 38.91Z" fill="#EC008C"/>
<path d="M9.51504 40.1759C9.40211 40.1759 9.2892 40.1403 9.1941 40.0689C6.41269 38.0602 4.1008 35.3917 2.51397 32.3547C0.867705 29.2167 0 25.6746 0 22.1146C0 17.1936 1.58089 12.5342 4.57625 8.64139C4.76049 8.39772 5.10519 8.35612 5.34886 8.54036C5.59254 8.7246 5.63414 9.0693 5.4499 9.31297C2.60311 13.0156 1.09949 17.4432 1.09949 22.1205C1.09949 25.5022 1.92559 28.866 3.48271 31.8495C4.99227 34.7379 7.19125 37.2697 9.83597 39.1834C10.0796 39.3617 10.1391 39.7064 9.96077 39.9501C9.8538 40.0987 9.68739 40.1759 9.51504 40.1759Z" fill="#FFF200"/>
<path d="M90.8475 45.7328C91.3111 44.9186 91.5844 44.0033 91.6855 43.1059H90.2532C90.2175 43.6527 90.1105 44.2173 89.9204 44.7165C89.7361 45.2098 89.4924 45.6436 89.1834 46.0062C88.7198 46.5411 88.1196 46.8917 87.4421 46.8917C86.6397 46.8917 86.087 46.547 85.879 45.9705H84.3516C84.102 46.5648 83.5136 46.8679 82.7766 46.8679C81.9624 46.8679 81.1304 46.2855 81.0353 45.0909H85.8255C85.9503 44.5026 86.4139 44.0628 87.1627 43.7775C87.1627 43.7775 87.8581 43.5219 88.5475 43.2307C89.5043 42.7909 90.2175 42.0005 90.2175 40.9961C90.2175 39.5757 88.9992 39.0883 87.8997 39.0883C86.5149 39.0883 85.4867 39.8193 85.4867 40.9723C85.4867 41.6498 85.8552 42.2976 86.4079 42.9395C86.1167 43.0465 85.8374 43.1772 85.5818 43.3377C85.142 42.1193 84.1198 41.3289 82.741 41.3289C80.9164 41.3289 79.5911 42.7018 79.5911 44.6333C79.5911 46.5648 80.7738 48.0447 82.8361 48.0447C83.787 48.0447 84.5002 47.7 84.9994 47.2126C85.5046 47.7297 86.2653 48.0447 87.1984 48.0447C88.3454 48.0447 89.2725 47.593 89.9917 46.8858L90.9129 47.8902H92.8563L90.8653 45.7269L90.8475 45.7328ZM87.8997 40.1581C88.4227 40.1581 88.8565 40.4552 88.8565 41.0436C88.8565 41.5785 88.5356 42.1074 87.8046 42.4284L87.7927 42.4165C87.3648 41.9648 86.9547 41.4359 86.9547 40.9366C86.9547 40.4374 87.3945 40.1581 87.8997 40.1581ZM82.7232 42.4343C83.5612 42.4343 84.3219 43.0405 84.3575 44.0449H81.0175C81.1363 42.8266 82.0575 42.4343 82.7232 42.4343Z" fill="white"/>
<path d="M97.5633 46.8798C98.3002 46.8798 98.8886 46.5827 99.1382 45.9824H100.535C100.238 47.0106 99.2809 48.0625 97.6227 48.0625C95.5604 48.0625 94.3777 46.4876 94.3777 44.6452C94.3777 42.7077 95.7031 41.3348 97.5276 41.3348C99.4948 41.3348 100.725 42.9336 100.606 45.0969H95.8279C95.923 46.2915 96.755 46.8739 97.5692 46.8739M99.162 44.0628C99.1264 43.0584 98.3656 42.4522 97.5276 42.4522C96.862 42.4522 95.9408 42.8444 95.8219 44.0628H99.162Z" fill="white"/>
<path d="M104.856 41.3408C106.407 41.3408 107.037 42.3452 107.037 43.8726V47.908H105.616V44.2173C105.616 43.3436 105.486 42.4997 104.398 42.4997C103.31 42.4997 102.906 43.3377 102.906 44.4966V47.9139H101.486V41.4894H102.906V42.3868C103.275 41.7152 103.952 41.3467 104.85 41.3467" fill="white"/>
<path d="M109.86 39.7837V41.4775H111.149V42.5057H109.86V46.0062C109.86 46.6659 110.014 46.8204 110.62 46.8204H111.132V47.908H110.08C108.707 47.908 108.433 47.5395 108.433 46.2261V42.5116H107.482V41.4834H108.433V39.7896H109.854L109.86 39.7837Z" fill="white"/>
<path d="M114.567 46.8798C115.304 46.8798 115.892 46.5827 116.142 45.9824H117.538C117.241 47.0106 116.284 48.0625 114.626 48.0625C112.564 48.0625 111.381 46.4876 111.381 44.6452C111.381 42.7077 112.707 41.3348 114.531 41.3348C116.498 41.3348 117.729 42.9336 117.61 45.0969H112.831C112.926 46.2915 113.758 46.8739 114.573 46.8739M116.165 44.0628C116.13 43.0584 115.369 42.4522 114.531 42.4522C113.865 42.4522 112.944 42.8444 112.825 44.0628H116.165Z" fill="white"/>
<path d="M121.324 42.892C120.427 42.892 119.916 43.2486 119.916 44.5382V47.908H118.495V41.4834H119.892V42.6305C120.237 41.9113 120.855 41.4834 121.633 41.4715C121.74 41.4715 121.895 41.4834 122.002 41.4953V42.9276C121.764 42.9039 121.538 42.892 121.324 42.892Z" fill="white"/>
<path d="M124.034 42.3392C124.415 41.7033 125.086 41.3348 125.942 41.3348C127.505 41.3348 128.694 42.6364 128.694 44.6927C128.694 46.7491 127.499 48.0625 125.942 48.0625C125.086 48.0625 124.415 47.694 124.034 47.0581V49.9941H122.614V41.4775H124.034V42.3392ZM127.22 44.6927C127.22 43.3436 126.625 42.4938 125.633 42.4938C124.706 42.4938 123.975 43.2129 123.975 44.6927C123.975 46.1726 124.7 46.9036 125.633 46.9036C126.62 46.9036 127.22 46.0537 127.22 44.6927Z" fill="white"/>
<path d="M132.444 42.892C131.546 42.892 131.035 43.2486 131.035 44.5382V47.908H129.615V41.4834H131.012V42.6305C131.356 41.9113 131.974 41.4834 132.753 41.4715C132.86 41.4715 133.014 41.4834 133.121 41.4953V42.9276C132.884 42.9039 132.658 42.892 132.444 42.892Z" fill="white"/>
<path d="M135.154 40.6811H133.734V39.2488H135.154V40.6811ZM135.154 47.908H133.734V41.4834H135.154V47.908Z" fill="white"/>
<path d="M138.708 42.4284C138.09 42.4284 137.513 42.7018 137.513 43.1356C137.513 43.5695 137.822 43.7953 138.375 43.9023L139.284 44.0806C140.586 44.3302 141.573 44.7343 141.573 45.9943C141.573 47.3315 140.307 48.0744 138.857 48.0744C137.282 48.0744 136.236 47.177 136.081 45.9586H137.466C137.597 46.6183 138.072 46.9987 138.91 46.9987C139.647 46.9987 140.2 46.6896 140.2 46.1607C140.2 45.6318 139.724 45.394 139.088 45.2752L138.126 45.085C137.038 44.871 136.194 44.3777 136.194 43.2069C136.194 42.0361 137.412 41.3408 138.803 41.3408C140.057 41.3408 141.198 41.9529 141.46 43.2426H140.122C139.968 42.6602 139.433 42.4284 138.714 42.4284" fill="white"/>
<path d="M145.245 46.8798C145.982 46.8798 146.571 46.5827 146.82 45.9824H148.217C147.92 47.0106 146.963 48.0625 145.305 48.0625C143.243 48.0625 142.06 46.4876 142.06 44.6452C142.06 42.7077 143.385 41.3348 145.21 41.3348C147.177 41.3348 148.407 42.9336 148.288 45.0969H143.51C143.605 46.2915 144.437 46.8739 145.251 46.8739M146.844 44.0628C146.809 43.0584 146.048 42.4522 145.21 42.4522C144.544 42.4522 143.623 42.8444 143.504 44.0628H146.844Z" fill="white"/>
<path d="M66.314 41.317C66.7063 41.317 67.0748 41.3646 67.4076 41.4596C67.7404 41.5547 68.0316 41.7093 68.2812 41.9232C68.5249 42.1372 68.7151 42.4165 68.8458 42.7612C68.9766 43.1059 69.036 43.5338 69.0301 44.039C69.0301 44.1162 69.0301 44.2232 69.0241 44.354C69.0241 44.4847 69.0241 44.6274 69.0241 44.7759C69.0241 44.9245 69.0241 45.085 69.0241 45.2455C69.0241 45.4059 69.0182 45.5604 69.0182 45.7031C69.0182 46.1072 69.036 46.5054 69.0657 46.8917C69.0955 47.284 69.143 47.6108 69.2084 47.8783H67.9187C67.8949 47.7416 67.8712 47.6108 67.8533 47.486C67.8355 47.3612 67.8177 47.1829 67.7998 46.963C67.6037 47.3196 67.3244 47.5871 66.9619 47.7654C66.5993 47.9437 66.1833 48.0328 65.7078 48.0328C65.3631 48.0328 65.0422 47.9853 64.7569 47.8961C64.4657 47.807 64.222 47.6762 64.014 47.5098C63.806 47.3434 63.6396 47.1473 63.5267 46.9095C63.4138 46.6778 63.3543 46.4163 63.3543 46.1191C63.3543 45.7269 63.4673 45.4 63.699 45.1385C63.9308 44.877 64.2399 44.663 64.6262 44.4966C65.0184 44.3302 65.4701 44.2054 65.9872 44.1163C66.5042 44.0271 67.0569 43.9558 67.6394 43.8904V43.7359C67.6394 43.4684 67.6037 43.2426 67.5324 43.0643C67.4611 42.886 67.366 42.7434 67.2412 42.6364C67.1164 42.5294 66.9737 42.4522 66.8073 42.4106C66.6409 42.369 66.4567 42.3452 66.2606 42.3452C65.898 42.3452 65.5949 42.4403 65.3512 42.6305C65.1076 42.8206 64.9768 43.1059 64.959 43.4922H63.5742C63.598 43.1713 63.6812 42.8741 63.8239 42.6067C63.9665 42.3392 64.1567 42.1075 64.4003 41.9113C64.644 41.7152 64.9233 41.5666 65.2502 41.4596C65.5771 41.3527 65.9396 41.2992 66.3319 41.2992M67.6572 44.8829C67.152 44.9305 66.7241 44.984 66.3675 45.0493C66.0109 45.1147 65.7197 45.192 65.4939 45.2871C65.2621 45.3821 65.0957 45.4951 64.9887 45.6258C64.8817 45.7566 64.8283 45.9111 64.8283 46.0953C64.8283 46.3687 64.9352 46.5886 65.1492 46.7491C65.3631 46.9095 65.6484 46.9868 65.9991 46.9868C66.5221 46.9868 66.9262 46.8442 67.2174 46.553C67.5086 46.2617 67.6572 45.7863 67.6572 45.1147V44.8889V44.8829Z" fill="white"/>
<path d="M71.859 42.3927C72.0433 42.0599 72.2929 41.8044 72.6257 41.6261C72.9526 41.4478 73.3448 41.3586 73.7906 41.3586C74.1769 41.3586 74.5097 41.418 74.7771 41.5369C75.0446 41.6558 75.2704 41.8281 75.4487 42.048C75.6211 42.2679 75.7518 42.5354 75.835 42.8385C75.9182 43.1475 75.9598 43.4922 75.9598 43.8666V47.8664H74.5513V44.2054C74.5513 43.9914 74.5394 43.7834 74.5156 43.5754C74.4919 43.3674 74.4384 43.1891 74.3552 43.0227C74.272 42.8622 74.1472 42.7315 73.9867 42.6364C73.8262 42.5413 73.6123 42.4938 73.3389 42.4938C73.0655 42.4938 72.8397 42.5413 72.6495 42.6423C72.4593 42.7434 72.3048 42.8801 72.1859 43.0524C72.067 43.2248 71.9838 43.4328 71.9303 43.6824C71.8769 43.9261 71.8531 44.1935 71.8531 44.4728V47.8605H70.4445V41.4894H71.8531V42.3749L71.859 42.3927Z" fill="white"/>
<path d="M154.707 41.3646C155.064 41.3646 155.396 41.418 155.711 41.531C156.026 41.6439 156.312 41.7984 156.555 42.0005C156.805 42.2025 157.013 42.4462 157.179 42.7315C157.346 43.0168 157.459 43.3377 157.524 43.6883H156.151C156.086 43.3496 155.931 43.0703 155.682 42.8622C155.432 42.6483 155.093 42.5413 154.671 42.5413C154.451 42.5413 154.243 42.5829 154.047 42.6661C153.851 42.7493 153.685 42.8801 153.536 43.0584C153.388 43.2367 153.275 43.4566 153.191 43.7299C153.108 43.9974 153.067 44.3243 153.067 44.6987C153.067 45.0731 153.108 45.4059 153.191 45.6734C153.275 45.9408 153.388 46.1726 153.536 46.3449C153.685 46.5232 153.851 46.654 154.047 46.7372C154.243 46.8204 154.445 46.862 154.671 46.862C155.028 46.862 155.349 46.7729 155.634 46.6005C155.925 46.4282 156.11 46.125 156.199 45.7031H157.572C157.5 46.0775 157.375 46.4044 157.191 46.6956C157.007 46.9868 156.787 47.2305 156.532 47.4266C156.27 47.6227 155.979 47.7772 155.658 47.8783C155.331 47.9793 154.998 48.0328 154.654 48.0328C154.178 48.0328 153.756 47.9496 153.382 47.7772C153.007 47.6049 152.692 47.3731 152.431 47.0819C152.169 46.7847 151.973 46.4341 151.83 46.03C151.694 45.6258 151.622 45.1801 151.622 44.7106C151.622 44.2411 151.694 43.7953 151.83 43.3912C151.967 42.987 152.169 42.6305 152.443 42.3333C152.71 42.0361 153.037 41.7984 153.411 41.6261C153.792 41.4537 154.226 41.3705 154.713 41.3705" fill="white"/>
<path d="M161.357 41.3646C161.762 41.3646 162.148 41.4299 162.516 41.5666C162.885 41.7033 163.218 41.9054 163.503 42.1788C163.788 42.4522 164.02 42.7969 164.198 43.2129C164.371 43.6289 164.46 44.1281 164.46 44.7046C164.46 45.2811 164.371 45.7803 164.198 46.1964C164.026 46.6124 163.794 46.9571 163.503 47.2305C163.212 47.5039 162.885 47.7059 162.516 47.8367C162.142 47.9674 161.762 48.0328 161.357 48.0328C160.953 48.0328 160.567 47.9674 160.198 47.8367C159.83 47.7059 159.497 47.5039 159.212 47.2305C158.927 46.9571 158.695 46.6124 158.517 46.1964C158.344 45.7803 158.255 45.2811 158.255 44.7046C158.255 44.1281 158.344 43.6289 158.517 43.2129C158.689 42.7969 158.921 42.4522 159.212 42.1788C159.503 41.9054 159.83 41.7033 160.198 41.5666C160.573 41.4299 160.953 41.3646 161.357 41.3646ZM161.357 46.8798C161.595 46.8798 161.809 46.8323 162.011 46.7431C162.207 46.654 162.38 46.5173 162.534 46.339C162.683 46.1607 162.802 45.9349 162.885 45.6674C162.968 45.4 163.01 45.0731 163.01 44.7046C163.01 44.3361 162.968 44.0212 162.885 43.7478C162.802 43.4744 162.683 43.2426 162.534 43.0643C162.386 42.8801 162.207 42.7493 162.011 42.6542C161.815 42.5651 161.595 42.5175 161.357 42.5175C161.12 42.5175 160.906 42.5651 160.704 42.6542C160.508 42.7434 160.335 42.8801 160.181 43.0643C160.032 43.2485 159.913 43.4744 159.83 43.7478C159.747 44.0271 159.705 44.3421 159.705 44.7046C159.705 45.0672 159.747 45.4 159.83 45.6674C159.913 45.9349 160.026 46.1666 160.181 46.339C160.329 46.5173 160.508 46.654 160.704 46.7431C160.9 46.8323 161.12 46.8798 161.357 46.8798Z" fill="white"/>
<path d="M167.033 47.8783H165.625V41.5072H167.033V42.3927C167.217 42.0599 167.461 41.8044 167.776 41.6261C168.085 41.4478 168.46 41.3586 168.881 41.3586C169.381 41.3586 169.779 41.4596 170.07 41.6558C170.367 41.8519 170.587 42.1312 170.742 42.4819C171.015 42.0777 171.336 41.7925 171.687 41.6201C172.043 41.4478 172.418 41.3586 172.81 41.3586C173.202 41.3586 173.511 41.418 173.773 41.5369C174.034 41.6558 174.254 41.8281 174.421 42.048C174.587 42.2679 174.706 42.5354 174.783 42.8385C174.86 43.1475 174.896 43.4922 174.896 43.8666V47.8664H173.487V44.2054C173.487 43.9914 173.476 43.7834 173.458 43.5754C173.44 43.3674 173.392 43.1891 173.315 43.0227C173.238 42.8622 173.125 42.7315 172.976 42.6364C172.828 42.5413 172.62 42.4938 172.358 42.4938C172.097 42.4938 171.877 42.5413 171.699 42.6423C171.52 42.7434 171.378 42.8801 171.265 43.0524C171.152 43.2248 171.075 43.4328 171.027 43.6824C170.979 43.9261 170.956 44.1935 170.956 44.4728V47.8605H169.547V44.1995C169.547 43.9855 169.535 43.7775 169.517 43.5695C169.5 43.3615 169.452 43.1832 169.375 43.0168C169.298 42.8563 169.185 42.7255 169.036 42.6305C168.887 42.5354 168.679 42.4878 168.418 42.4878C168.156 42.4878 167.937 42.5354 167.758 42.6364C167.58 42.7374 167.437 42.8741 167.324 43.0465C167.211 43.2188 167.134 43.4268 167.087 43.6765C167.039 43.9201 167.015 44.1876 167.015 44.4669V47.8545L167.033 47.8783Z" fill="white"/>
<path d="M177.772 41.5072V42.3571C177.963 42.0421 178.218 41.7984 178.539 41.6261C178.86 41.4537 179.235 41.3646 179.662 41.3646C180.049 41.3646 180.411 41.4418 180.744 41.5963C181.083 41.7509 181.368 41.9708 181.618 42.2679C181.861 42.5591 182.052 42.9098 182.194 43.3199C182.331 43.7299 182.402 44.1876 182.402 44.6927C182.402 45.1979 182.331 45.6674 182.194 46.0775C182.058 46.4876 181.867 46.8382 181.618 47.1294C181.374 47.4207 181.083 47.6465 180.744 47.801C180.411 47.9555 180.049 48.0328 179.662 48.0328C179.235 48.0328 178.86 47.9437 178.539 47.7713C178.212 47.599 177.957 47.3553 177.772 47.0344V49.9465H176.364V41.5072H177.772ZM177.713 44.6927C177.713 45.0672 177.755 45.3881 177.838 45.6555C177.921 45.9289 178.04 46.1548 178.189 46.339C178.337 46.5232 178.515 46.654 178.717 46.7491C178.92 46.8382 179.133 46.8858 179.365 46.8858C179.864 46.8858 180.251 46.6896 180.524 46.2974C180.798 45.9051 180.94 45.3703 180.94 44.6927C180.94 44.0152 180.804 43.4922 180.524 43.1C180.245 42.7077 179.859 42.5116 179.365 42.5116C179.133 42.5116 178.92 42.5591 178.717 42.6483C178.515 42.7374 178.343 42.8741 178.189 43.0524C178.04 43.2307 177.921 43.4566 177.838 43.7359C177.755 44.0152 177.713 44.3302 177.713 44.6927Z" fill="white"/>
<path d="M186.093 41.317C186.485 41.317 186.854 41.3646 187.186 41.4596C187.525 41.5547 187.811 41.7093 188.06 41.9232C188.304 42.1372 188.494 42.4165 188.625 42.7612C188.755 43.1059 188.815 43.5338 188.809 44.039C188.809 44.1162 188.809 44.2232 188.809 44.354C188.809 44.4847 188.803 44.6274 188.803 44.7759C188.803 44.9245 188.803 45.085 188.803 45.2455C188.803 45.4059 188.797 45.5604 188.797 45.7031C188.797 46.1072 188.815 46.5054 188.845 46.8917C188.874 47.284 188.922 47.6108 188.987 47.8783H187.698C187.674 47.7416 187.65 47.6108 187.632 47.486C187.614 47.3612 187.597 47.1829 187.579 46.963C187.383 47.3196 187.103 47.5871 186.741 47.7654C186.378 47.9437 185.956 48.0328 185.487 48.0328C185.142 48.0328 184.821 47.9853 184.536 47.8961C184.245 47.807 184.001 47.6762 183.793 47.5098C183.585 47.3434 183.418 47.1473 183.306 46.9095C183.193 46.6778 183.133 46.4163 183.133 46.1191C183.133 45.7269 183.246 45.4 183.478 45.1385C183.71 44.877 184.019 44.663 184.405 44.4966C184.797 44.3302 185.249 44.2054 185.766 44.1163C186.283 44.0271 186.836 43.9558 187.418 43.8904V43.7359C187.418 43.4684 187.383 43.2426 187.311 43.0643C187.24 42.886 187.145 42.7434 187.02 42.6364C186.895 42.5294 186.753 42.4522 186.586 42.4106C186.42 42.369 186.242 42.3452 186.039 42.3452C185.677 42.3452 185.374 42.4403 185.13 42.6305C184.886 42.8206 184.756 43.1059 184.738 43.4922H183.353C183.377 43.1713 183.46 42.8741 183.603 42.6067C183.745 42.3392 183.936 42.1075 184.179 41.9113C184.423 41.7152 184.702 41.5666 185.029 41.4596C185.356 41.3527 185.719 41.2992 186.111 41.2992M187.43 44.8829C186.925 44.9305 186.497 44.984 186.14 45.0493C185.784 45.1147 185.493 45.192 185.267 45.2871C185.035 45.3821 184.869 45.4951 184.762 45.6258C184.655 45.7566 184.601 45.9111 184.601 46.0953C184.601 46.3687 184.708 46.5886 184.922 46.7491C185.136 46.9095 185.421 46.9868 185.772 46.9868C186.295 46.9868 186.699 46.8442 186.99 46.553C187.282 46.2617 187.43 45.7863 187.43 45.1147V44.8889V44.8829Z" fill="white"/>
<path d="M191.638 42.3927C191.822 42.0599 192.072 41.8044 192.405 41.6261C192.731 41.4478 193.124 41.3586 193.569 41.3586C193.956 41.3586 194.289 41.418 194.556 41.5369C194.829 41.6558 195.049 41.8281 195.228 42.048C195.4 42.2679 195.531 42.5354 195.614 42.8385C195.697 43.1475 195.739 43.4922 195.739 43.8666V47.8664H194.33V44.2054C194.33 43.9914 194.318 43.7834 194.295 43.5754C194.271 43.3674 194.217 43.1891 194.134 43.0227C194.051 42.8622 193.926 42.7315 193.766 42.6364C193.605 42.5413 193.391 42.4938 193.118 42.4938C192.844 42.4938 192.619 42.5413 192.428 42.6423C192.238 42.7434 192.084 42.8801 191.965 43.0524C191.846 43.2248 191.763 43.4328 191.709 43.6824C191.656 43.9261 191.632 44.1935 191.632 44.4728V47.8605H190.223V41.4894H191.632V42.3749L191.638 42.3927Z" fill="white"/>
<path d="M196.832 49.9465V48.8708H197.367C197.516 48.8708 197.647 48.8708 197.765 48.853C197.884 48.8351 197.985 48.8054 198.074 48.746C198.164 48.6866 198.247 48.5974 198.318 48.4785C198.389 48.3597 198.461 48.1992 198.532 47.9912L198.603 47.8367L196.291 41.5013H197.831L199.275 46.0716L200.719 41.5013H202.163L199.923 47.8605C199.774 48.2705 199.632 48.6093 199.489 48.8767C199.352 49.1442 199.192 49.3581 199.007 49.5186C198.823 49.6791 198.615 49.786 198.366 49.8514C198.122 49.9168 197.819 49.9465 197.468 49.9465H196.826H196.832Z" fill="white"/>
</g>
<defs>
<clipPath id="clip0_9_266">
<rect width="202.163" height="50" fill="white"/>
</clipPath>
</defs>
</svg>
