<svg width="60" height="60" viewBox="0 0 60 60" fill="none" xmlns="http://www.w3.org/2000/svg">
<g clip-path="url(#clip0_52_920)">
<path d="M59.2308 30.0001C59.2308 13.8563 46.1438 0.769287 30.0001 0.769287C13.8563 0.769287 0.769287 13.8563 0.769287 30.0001C0.769287 46.1438 13.8563 59.2308 30.0001 59.2308C46.1438 59.2308 59.2308 46.1438 59.2308 30.0001Z" stroke="#3271B2" stroke-width="2"/>
<path d="M20.523 43.3C20.0384 43.3 19.5615 43.1385 19.1538 42.8154C18.1769 42.0462 17.2846 41.1769 16.5 40.2231C15.8307 39.4077 15.8307 38.2769 16.5153 37.4692L18.0846 35.6077C18.4 35.2308 18.4769 34.7385 18.2846 34.2923C18.0923 33.8462 17.6846 33.5539 17.1923 33.5154L14.7384 33.3077C13.6846 33.2154 12.8615 32.4308 12.7461 31.3846C12.6692 30.7616 12.6384 30.1154 12.6384 29.4769C12.6384 28.8846 12.6692 28.2923 12.7307 27.7C12.8384 26.6616 13.6538 25.8692 14.7077 25.7692L17.1615 25.5462C17.6538 25.5 18.0615 25.2077 18.2461 24.7539C18.4307 24.3077 18.3538 23.8154 18.0384 23.4462L16.4461 21.5923C15.7615 20.7923 15.7461 19.6616 16.4154 18.8385C17.1923 17.8846 18.0769 17 19.0461 16.2231C19.8692 15.5616 21.0153 15.5692 21.8307 16.2385L23.7307 17.7846C24.1077 18.1 24.6077 18.1692 25.0615 17.9846C25.5154 17.8 25.8077 17.4 25.8538 16.9077L26.0615 14.4923C26.1538 13.4462 26.9538 12.6385 28.0077 12.5231C29.2384 12.3846 30.5077 12.3846 31.7461 12.5077C32.8 12.6154 33.6077 13.4231 33.7077 14.4616L33.9307 16.8769C33.9769 17.3616 34.2769 17.7616 34.7307 17.9462C35.1923 18.1308 35.6846 18.0539 36.0615 17.7385L37.9461 16.1769C38.7538 15.5 39.9 15.4846 40.7307 16.1385C41.7077 16.9077 42.6 17.7769 43.3846 18.7308C44.0538 19.5462 44.0538 20.6769 43.3692 21.4846L41.8 23.3462C41.4846 23.7231 41.4077 24.2154 41.6 24.6616C41.7923 25.1077 42.2 25.4 42.6923 25.4462L45.1461 25.6462C46.2 25.7385 47.023 26.5231 47.1461 27.5692C47.2154 28.2 47.2538 28.8385 47.2538 29.4769C47.2538 30.0692 47.2153 30.6616 47.1538 31.2539C47.0461 32.2923 46.2307 33.0923 45.1769 33.1846L42.723 33.4077C42.2307 33.4539 41.823 33.7462 41.6384 34.2C41.4538 34.6462 41.5307 35.1385 41.8538 35.5077L43.4384 37.3616C44.123 38.1616 44.1384 39.2923 43.4769 40.1154C42.6923 41.0769 41.8077 41.9539 40.8461 42.7308C40.0153 43.3923 38.8692 43.3846 38.0538 42.7154L36.1615 41.1692C35.7769 40.8539 35.2846 40.7846 34.8307 40.9692C34.3769 41.1539 34.0769 41.5616 34.0384 42.0462L34.0154 42.3077L33.3 42.2462L33.323 41.9846C33.3846 41.2462 33.8538 40.6077 34.5538 40.3154C35.2461 40.0308 36.0384 40.1462 36.6153 40.6231L38.5077 42.1769C39.0615 42.6231 39.8384 42.6308 40.3923 42.1846C41.3153 41.4385 42.1692 40.6 42.9153 39.6769C43.3615 39.1231 43.3538 38.3615 42.8923 37.8231L41.3 35.9692C40.8153 35.4 40.6923 34.6154 40.9769 33.9308C41.2615 33.2462 41.9077 32.7769 42.6538 32.7077L45.1077 32.4846C45.823 32.4154 46.3692 31.8846 46.4461 31.1769C46.5077 30.6154 46.5384 30.0462 46.5384 29.4769C46.5384 28.8692 46.5 28.2539 46.4307 27.6462C46.3538 26.9462 45.8 26.4154 45.0846 26.3539L42.6307 26.1462C41.8769 26.0846 41.2307 25.6231 40.9384 24.9385C40.6538 24.2539 40.7692 23.4692 41.2538 22.9L42.823 21.0385C43.2769 20.4923 43.2846 19.7308 42.8307 19.1769C42.0769 18.2616 41.223 17.4231 40.2846 16.6923C39.7307 16.2539 38.9538 16.2616 38.4077 16.7154L36.523 18.2769C35.9461 18.7616 35.1615 18.8846 34.4615 18.6C33.7692 18.3231 33.2923 17.6846 33.223 16.9462L32.9923 14.5308C32.923 13.8231 32.3846 13.2846 31.6692 13.2077C30.4846 13.0923 29.2692 13.0923 28.0846 13.2231C27.3692 13.3 26.8307 13.8462 26.7692 14.5539L26.5615 16.9692C26.5 17.7154 26.0307 18.3539 25.3384 18.6385C24.6384 18.9231 23.8461 18.8077 23.2692 18.3308L21.3769 16.7846C20.823 16.3308 20.0538 16.3308 19.4923 16.7692C18.5692 17.5154 17.7153 18.3616 16.9692 19.2846C16.523 19.8308 16.5307 20.6 17 21.1385L18.5846 22.9923C19.0692 23.5539 19.1923 24.3385 18.9077 25.0231C18.623 25.7077 17.9769 26.1769 17.2307 26.2462L14.7769 26.4692C14.0615 26.5385 13.5153 27.0769 13.4384 27.7769C13.3846 28.3385 13.3538 28.9077 13.3538 29.4769C13.3538 30.0923 13.3846 30.7077 13.4538 31.3077C13.5307 32.0077 14.0923 32.5462 14.8 32.6L17.2538 32.8077C18.0077 32.8692 18.6538 33.3385 18.9461 34.0231C19.2384 34.7 19.1153 35.4846 18.6384 36.0539L17.0615 37.9231C16.6077 38.4615 16.6 39.2308 17.0538 39.7769C17.8077 40.6923 18.6615 41.5308 19.6 42.2616C20.1615 42.7077 20.9307 42.6923 21.4769 42.2385L23.3615 40.6769C23.8769 40.2462 24.5538 40.1 25.2 40.2846C25.8538 40.4615 26.3615 40.9385 26.5692 41.5616L25.8923 41.7769C25.7538 41.3846 25.4307 41.0769 25.0077 40.9616C24.5923 40.8462 24.1615 40.9385 23.823 41.2154L21.9461 42.7769C21.5307 43.1231 21.023 43.3 20.523 43.3Z" fill="#E0027A"/>
<path d="M19.1538 42.8154C18.1769 42.0462 17.2846 41.1769 16.5 40.2231C15.8307 39.4077 15.8307 38.2769 16.5153 37.4692L18.0846 35.6077C18.4 35.2308 18.4769 34.7385 18.2846 34.2923C18.0923 33.8462 17.6846 33.5539 17.1923 33.5154L14.7384 33.3077C13.6846 33.2154 12.8615 32.4308 12.7461 31.3846C12.6692 30.7616 12.6384 30.1154 12.6384 29.4769C12.6384 28.8846 12.6692 28.2923 12.7307 27.7C12.8384 26.6616 13.6538 25.8692 14.7077 25.7692L17.1615 25.5462C17.6538 25.5 18.0615 25.2077 18.2461 24.7539C18.4307 24.3077 18.3538 23.8154 18.0384 23.4462L16.4461 21.5923C15.7615 20.7923 15.7461 19.6616 16.4154 18.8385C17.1923 17.8846 18.0769 17 19.0461 16.2231C19.8692 15.5616 21.0153 15.5692 21.8307 16.2385L23.7307 17.7846C24.1077 18.1 24.6077 18.1692 25.0615 17.9846C25.5154 17.8 25.8077 17.4 25.8538 16.9077L26.0615 14.4923C26.1538 13.4462 26.9538 12.6385 28.0077 12.5231C29.2384 12.3846 30.5077 12.3846 31.7461 12.5077C32.8 12.6154 33.6077 13.4231 33.7077 14.4616L33.9307 16.8769C33.9769 17.3616 34.2769 17.7616 34.7307 17.9462C35.1923 18.1308 35.6846 18.0539 36.0615 17.7385L37.9461 16.1769C38.7538 15.5 39.9 15.4846 40.7307 16.1385C41.7077 16.9077 42.6 17.7769 43.3846 18.7308C44.0538 19.5462 44.0538 20.6769 43.3692 21.4846L41.8 23.3462C41.4846 23.7231 41.4077 24.2154 41.6 24.6616C41.7923 25.1077 42.2 25.4 42.6923 25.4462L45.1461 25.6462C46.2 25.7385 47.023 26.5231 47.1461 27.5692C47.2153 28.2 47.2538 28.8385 47.2538 29.4769C47.2538 30.0692 47.2153 30.6616 47.1538 31.2539C47.0461 32.2923 46.2307 33.0923 45.1769 33.1846L42.723 33.4077C42.2307 33.4539 41.823 33.7462 41.6384 34.2C41.4538 34.6462 41.5307 35.1385 41.8538 35.5077L43.4384 37.3616C44.123 38.1616 44.1384 39.2923 43.4769 40.1154C42.6923 41.0769 41.8077 41.9539 40.8461 42.7308C40.0153 43.3923 38.8692 43.3846 38.0538 42.7154L36.1615 41.1692C35.7769 40.8539 35.2846 40.7846 34.8307 40.9692C34.3769 41.1539 34.0769 41.5616 34.0384 42.0462L34.0154 42.3077L33.3 42.2462L33.323 41.9846C33.3846 41.2462 33.8538 40.6077 34.5538 40.3154C35.2461 40.0308 36.0384 40.1462 36.6153 40.6231L38.5077 42.1769C39.0615 42.6231 39.8384 42.6308 40.3923 42.1846C41.3153 41.4385 42.1692 40.6 42.9153 39.6769C43.3615 39.1231 43.3538 38.3615 42.8923 37.8231L41.3 35.9692C40.8153 35.4 40.6923 34.6154 40.9769 33.9308C41.2615 33.2462 41.9077 32.7769 42.6538 32.7077L45.1077 32.4846C45.823 32.4154 46.3692 31.8846 46.4461 31.1769C46.5077 30.6154 46.5384 30.0462 46.5384 29.4769C46.5384 28.8692 46.5 28.2539 46.4307 27.6462C46.3538 26.9462 45.8 26.4154 45.0846 26.3539L42.6307 26.1462C41.8769 26.0846 41.2307 25.6231 40.9384 24.9385C40.6538 24.2539 40.7692 23.4692 41.2538 22.9L42.823 21.0385C43.2769 20.4923 43.2846 19.7308 42.8307 19.1769C42.0769 18.2616 41.223 17.4231 40.2846 16.6923C39.7307 16.2539 38.9538 16.2616 38.4077 16.7154L36.523 18.2769C35.9461 18.7616 35.1615 18.8846 34.4615 18.6C33.7692 18.3231 33.2923 17.6846 33.223 16.9462L32.9923 14.5308C32.923 13.8231 32.3846 13.2846 31.6692 13.2077C30.4846 13.0923 29.2692 13.0923 28.0846 13.2231C27.3692 13.3 26.8307 13.8462 26.7692 14.5539L26.5615 16.9692C26.5 17.7154 26.0307 18.3539 25.3384 18.6385C24.6384 18.9231 23.8461 18.8077 23.2692 18.3308L21.3769 16.7846C20.823 16.3308 20.0538 16.3308 19.4923 16.7692C18.5692 17.5154 17.7153 18.3616 16.9692 19.2846C16.523 19.8308 16.5307 20.6 17 21.1385L18.5846 22.9923C19.0692 23.5539 19.1923 24.3385 18.9077 25.0231C18.623 25.7077 17.9769 26.1769 17.2307 26.2462L14.7769 26.4692C14.0615 26.5385 13.5153 27.0769 13.4384 27.7769C13.3846 28.3385 13.3538 28.9077 13.3538 29.4769C13.3538 30.0923 13.3846 30.7077 13.4538 31.3077C13.5307 32.0077 14.0923 32.5462 14.8 32.6L17.2538 32.8077C18.0077 32.8692 18.6538 33.3385 18.9461 34.0231C19.2384 34.7 19.1153 35.4846 18.6384 36.0539L17.0615 37.9231C16.6077 38.4616 16.6 39.2308 17.0538 39.7769C17.8077 40.6923 18.6615 41.5308 19.6 42.2616C20.1615 42.7077 20.9307 42.6923 21.4769 42.2385L23.3615 40.6769C23.8769 40.2462 24.5538 40.1 25.2 40.2846C25.8538 40.4616 26.3615 40.9385 26.5692 41.5616L25.8923 41.7769C25.7538 41.3846 25.4307 41.0769 25.0077 40.9616C24.5923 40.8462 24.1615 40.9385 23.823 41.2154L21.9461 42.7769C21.5307 43.1231 21.023 43.3 20.523 43.3C20.0384 43.3 19.5615 43.1385 19.1538 42.8154Z" stroke="#E0027A" stroke-width="0.5"/>
<path d="M29.9463 20.8153C29.7463 20.8153 29.5847 20.6538 29.5847 20.4538V18.1384C29.5847 17.9384 29.7463 17.7769 29.9463 17.7769C30.1386 17.7769 30.3001 17.9384 30.3001 18.1384V20.4538C30.3001 20.6538 30.1386 20.8153 29.9463 20.8153Z" fill="#00AEEF"/>
<path d="M29.5847 20.4538V18.1384C29.5847 17.9384 29.7463 17.7769 29.9463 17.7769C30.1386 17.7769 30.3001 17.9384 30.3001 18.1384V20.4538C30.3001 20.6538 30.1386 20.8153 29.9463 20.8153C29.7463 20.8153 29.5847 20.6538 29.5847 20.4538Z" stroke="#00AEEF" stroke-width="0.5"/>
<path d="M23.4385 23.4616C23.3462 23.4616 23.2539 23.4308 23.1847 23.3616L21.5462 21.7231C21.4078 21.5846 21.4078 21.3539 21.5462 21.2154C21.6847 21.077 21.9155 21.077 22.0539 21.2154L23.6924 22.8539C23.8308 22.9923 23.8308 23.2154 23.6924 23.3616C23.6232 23.4308 23.5308 23.4616 23.4385 23.4616Z" fill="#00AEEF"/>
<path d="M23.1847 23.3616L21.5462 21.7231C21.4078 21.5846 21.4078 21.3539 21.5462 21.2154C21.6847 21.077 21.9155 21.077 22.0539 21.2154L23.6924 22.8539C23.8308 22.9923 23.8308 23.2154 23.6924 23.3616C23.6232 23.4308 23.5308 23.4616 23.4385 23.4616C23.3462 23.4616 23.2539 23.4308 23.1847 23.3616Z" stroke="#00AEEF" stroke-width="0.5"/>
<path d="M20.7463 29.8692H18.4309C18.2309 29.8692 18.0693 29.7077 18.0693 29.5077C18.0693 29.3153 18.2309 29.1538 18.4309 29.1538H20.7463C20.9463 29.1538 21.1078 29.3153 21.1078 29.5077C21.1078 29.7077 20.9463 29.8692 20.7463 29.8692Z" fill="#00AEEF"/>
<path d="M18.4309 29.8692C18.2309 29.8692 18.0693 29.7077 18.0693 29.5077C18.0693 29.3153 18.2309 29.1538 18.4309 29.1538H20.7463C20.9463 29.1538 21.1078 29.3153 21.1078 29.5077C21.1078 29.7077 20.9463 29.8692 20.7463 29.8692H18.4309Z" stroke="#00AEEF" stroke-width="0.5"/>
<path d="M21.8001 37.9153C21.7078 37.9153 21.6155 37.8768 21.5462 37.8076C21.4078 37.6692 21.4078 37.4384 21.5462 37.2999L23.1847 35.6615C23.3232 35.523 23.5539 35.523 23.6924 35.6615C23.8308 35.7999 23.8308 36.0307 23.6924 36.1692L22.0539 37.8076C21.9847 37.8768 21.8924 37.9153 21.8001 37.9153Z" fill="#00AEEF"/>
<path d="M21.5462 37.8076C21.4078 37.6692 21.4078 37.4384 21.5462 37.2999L23.1847 35.6615C23.3232 35.523 23.5539 35.523 23.6924 35.6615C23.8308 35.7999 23.8308 36.0307 23.6924 36.1692L22.0539 37.8076C21.9847 37.8768 21.8924 37.9153 21.8001 37.9153C21.7078 37.9153 21.6155 37.8768 21.5462 37.8076Z" stroke="#00AEEF" stroke-width="0.5"/>
<path d="M38.0845 37.9153C37.9922 37.9153 37.8999 37.8768 37.8307 37.8076L36.1922 36.1692C36.0538 36.0307 36.0538 35.7999 36.1922 35.6615C36.3307 35.523 36.5615 35.523 36.6999 35.6615L38.3384 37.2999C38.4768 37.4384 38.4768 37.6692 38.3384 37.8076C38.2691 37.8768 38.1768 37.9153 38.0845 37.9153Z" fill="#00AEEF"/>
<path d="M37.8307 37.8076L36.1922 36.1692C36.0538 36.0307 36.0538 35.7999 36.1922 35.6615C36.3307 35.523 36.5615 35.523 36.6999 35.6615L38.3384 37.2999C38.4768 37.4384 38.4768 37.6692 38.3384 37.8076C38.2691 37.8768 38.1768 37.9153 38.0845 37.9153C37.9922 37.9153 37.8999 37.8768 37.8307 37.8076Z" stroke="#00AEEF" stroke-width="0.5"/>
<path d="M41.4538 29.8692H39.1384C38.9384 29.8692 38.7769 29.7077 38.7769 29.5077C38.7769 29.3153 38.9384 29.1538 39.1384 29.1538H41.4538C41.6538 29.1538 41.8153 29.3153 41.8153 29.5077C41.8153 29.7077 41.6538 29.8692 41.4538 29.8692Z" fill="#00AEEF"/>
<path d="M39.1384 29.8692C38.9384 29.8692 38.7769 29.7077 38.7769 29.5077C38.7769 29.3153 38.9384 29.1538 39.1384 29.1538H41.4538C41.6538 29.1538 41.8153 29.3153 41.8153 29.5077C41.8153 29.7077 41.6538 29.8692 41.4538 29.8692H39.1384Z" stroke="#00AEEF" stroke-width="0.5"/>
<path d="M36.4461 23.4616C36.3538 23.4616 36.2615 23.4308 36.1922 23.3616C36.0538 23.2154 36.0538 22.9923 36.1922 22.8539L37.8307 21.2154C37.9691 21.077 38.1999 21.077 38.3384 21.2154C38.4768 21.3539 38.4768 21.5846 38.3384 21.7231L36.6999 23.3616C36.6307 23.4308 36.5384 23.4616 36.4461 23.4616Z" fill="#00AEEF"/>
<path d="M36.1922 23.3616C36.0538 23.2154 36.0538 22.9923 36.1922 22.8539L37.8307 21.2154C37.9691 21.077 38.1999 21.077 38.3384 21.2154C38.4768 21.3539 38.4768 21.5846 38.3384 21.7231L36.6999 23.3616C36.6307 23.4308 36.5384 23.4616 36.4461 23.4616C36.3538 23.4616 36.2615 23.4308 36.1922 23.3616Z" stroke="#00AEEF" stroke-width="0.5"/>
<path d="M29.9462 32.1538C29.8385 32.1538 29.7385 32.1153 29.6693 32.0307L27.0001 28.9615C26.8693 28.8153 26.8847 28.5846 27.0385 28.4615C27.1847 28.3307 27.4078 28.3461 27.5385 28.4923L29.9462 31.2538L32.3462 28.4923C32.477 28.3461 32.7001 28.3307 32.8539 28.4615C33.0001 28.5923 33.0155 28.8153 32.8847 28.9615L30.2155 32.0384C30.1462 32.1153 30.0462 32.1538 29.9462 32.1538Z" fill="#E0027A"/>
<path d="M29.6693 32.0307L27.0001 28.9615C26.8693 28.8153 26.8847 28.5846 27.0385 28.4615C27.1847 28.3307 27.4078 28.3461 27.5385 28.4923L29.9462 31.2538L32.3462 28.4923C32.477 28.3461 32.7001 28.3307 32.8539 28.4615C33.0001 28.5923 33.0155 28.8153 32.8847 28.9615L30.2155 32.0384C30.1462 32.1153 30.0462 32.1538 29.9462 32.1538C29.8385 32.1538 29.7385 32.1153 29.6693 32.0307Z" stroke="#E0027A" stroke-width="0.5"/>
<path d="M29.9463 39.8C29.7463 39.8 29.5847 39.6385 29.5847 39.4462V31.7616C29.5847 31.5693 29.7463 31.4077 29.9463 31.4077C30.1386 31.4077 30.3001 31.5693 30.3001 31.7616V39.4462C30.3001 39.6385 30.1386 39.8 29.9463 39.8Z" fill="#E0027A"/>
<path d="M29.5847 39.4462V31.7616C29.5847 31.5693 29.7463 31.4077 29.9463 31.4077C30.1386 31.4077 30.3001 31.5693 30.3001 31.7616V39.4462C30.3001 39.6385 30.1386 39.8 29.9463 39.8C29.7463 39.8 29.5847 39.6385 29.5847 39.4462Z" stroke="#E0027A" stroke-width="0.5"/>
<path d="M29.9462 47.0307C27.6923 47.0307 25.8616 45.1384 25.8616 42.8153V38.9538C25.8616 36.8153 25.0846 35.7307 24.2693 34.5768C23.3539 33.2922 22.4077 31.9692 22.4077 29.2384C22.4077 24.8615 25.7923 21.3076 29.9462 21.3076C34.1 21.3076 37.4769 24.8615 37.4769 29.2384C37.4769 31.9692 36.5308 33.2922 35.6231 34.5768C34.8 35.723 34.0231 36.8153 34.0231 38.9538V42.8153C34.0231 45.1384 32.1923 47.0307 29.9462 47.0307ZM29.9462 22.023C26.1846 22.023 23.1231 25.2538 23.1231 29.2384C23.1231 31.7384 23.9616 32.9153 24.8462 34.1615C25.7 35.3538 26.5769 36.5845 26.5769 38.9538V42.8153C26.5769 44.7461 28.0846 46.3153 29.9385 46.3153C31.8 46.3153 33.3077 44.7461 33.3077 42.8153V38.9538C33.3077 36.5845 34.1846 35.3538 35.0308 34.1615C35.9231 32.9153 36.7616 31.7384 36.7616 29.2384C36.7616 25.2538 33.7 22.023 29.9462 22.023Z" fill="#00AEEF"/>
<path d="M25.8616 42.8153V38.9538C25.8616 36.8153 25.0846 35.7307 24.2693 34.5768C23.3539 33.2922 22.4077 31.9692 22.4077 29.2384C22.4077 24.8615 25.7923 21.3076 29.9462 21.3076C34.1 21.3076 37.4769 24.8615 37.4769 29.2384C37.4769 31.9692 36.5308 33.2922 35.6231 34.5768C34.8 35.723 34.0231 36.8153 34.0231 38.9538V42.8153C34.0231 45.1384 32.1923 47.0307 29.9462 47.0307C27.6923 47.0307 25.8616 45.1384 25.8616 42.8153ZM23.1231 29.2384C23.1231 31.7384 23.9616 32.9153 24.8462 34.1615C25.7 35.3538 26.5769 36.5845 26.5769 38.9538V42.8153C26.5769 44.7461 28.0846 46.3153 29.9385 46.3153C31.8 46.3153 33.3077 44.7461 33.3077 42.8153V38.9538C33.3077 36.5845 34.1846 35.3538 35.0308 34.1615C35.9231 32.9153 36.7616 31.7384 36.7616 29.2384C36.7616 25.2538 33.7 22.023 29.9462 22.023C26.1846 22.023 23.1231 25.2538 23.1231 29.2384Z" stroke="#00AEEF" stroke-width="0.5"/>
<path d="M26.0847 42.7922H33.8001V43.5153H26.0847V42.7922Z" fill="#00AEEF"/>
<path d="M33.8001 42.7922V43.5153H26.0847V42.7922H33.8001Z" stroke="#00AEEF" stroke-width="0.5"/>
<path d="M26.0847 39.4077H33.8078V40.1231H26.0847V39.4077Z" fill="#00AEEF"/>
<path d="M33.8078 39.4077V40.1231H26.0847V39.4077H33.8078Z" stroke="#00AEEF" stroke-width="0.5"/>
</g>
<defs>
<clipPath id="clip0_52_920">
<rect width="60" height="60" fill="white"/>
</clipPath>
</defs>
</svg>
