<svg width="94" height="200" viewBox="0 0 94 200" fill="none" xmlns="http://www.w3.org/2000/svg"><g clip-path="url(#clip0_67_14373)"><path d="M36.525 184.614h20.871v13.673H36.525v-13.673zM1.733 172.643h90.445v25.644H59.13v-13.673h19.137v-1.713H15.654v1.713h19.128v13.673H1.733v-25.644zm28.475-7.237l.653-.396.674-.376.673-.367.683-.336.683-.327.703-.317.703-.287.723-.277.713-.268.733-.237.732-.228.733-.208.742-.188.753-.178.752-.149.753-.138.752-.119.763-.099.713-.079.812-.07.772-.049.762-.02.772-.01.763.01.772.02.762.049.763.06.762.089.763.099.762.119.752.138.753.149.742.178.743.188.743.208.732.228.723.237.723.268.713.277.703.287.703.317.693.327.683.336.673.367.663.376.654.396.653.406H29.564l.644-.406zm15.94-6.426l-.811.03-.802.049-.812.07-.802.079-.802.109-.802.128-.792.139-.792.168-.792.179-.783.198-.782.227-.772.238-.762.248-.763.277-.752.297-.743.307-.742.326-.733.347-.713.366-.713.377-.703.396-.693.415-2.94 1.862H5.216v5.129H0V200h93.92v-29.059h-5.217v-5.129h-6.96v1.703h5.217v3.426H6.95v-3.426h57.406v-3.733l-.415-.247-.703-.396-.713-.377-.723-.366-.733-.347-.732-.326-.743-.307-.762-.297-.753-.277-.772-.248-.772-.238-.773-.227-.782-.198-.792-.179-.792-.168-.802-.139-.792-.128-.802-.109-.812-.079-.802-.07-.812-.049-.802-.03-.812-.01-.812.01z" fill="#3271B2"/><path d="M81.743 167.515H64.356v-3.733l.268.169 1.465.92v.941h15.654v1.703z" fill="#3271B2"/><path d="M62.614 49.564h20.872v5.13H62.612v-5.13zm-3.475-3.416H86.96v1.713H59.14V46.15zm6.94-2.02l-.03-.316-.049-.307-.06-.307-.088-.297-.11-.297-.118-.287-.139-.277-.158-.278-.178-.257-.189-.258-.207-.227h16.594l-.208.227-.188.258-.179.257-.158.278-.139.277-.119.287-.108.297-.09.297-.069.307-.04.307-.03.317-.01.307H66.09l-.01-.307zm-12.158-8.237h38.257v3.416H53.921V35.89zm0-2.327l.04-.614.049-.613.07-.604.088-.614.07-.357H91.86l.07.357.089.614.07.604.049.613.03.614.01.624H53.92v-.624zm6.406-7.455L61.505 26l1.178-.198 1.159-.267 1.138-.337 2.228-.832.445-.138.694-.198 1.158-.268 1.168-.198 1.188-.109 1.188-.04 1.189.04 1.188.11 1.168.197 1.159.268.693.198.445.138 2.228.832 1.138.337 1.159.267 1.178.198 1.178.109 1.188.04 1.189-.04L89.337 26l.861-.148.277.574.248.564.237.565.208.584.188.584.1.336H54.644l.099-.336.188-.584.208-.584.237-.565.248-.564.267-.565.871.139 1.179.109 1.198.04 1.188-.04zm-2.268-1.703l-1.069-.109-.198-.03.347-.534.356-.505.376-.495.386-.476.406-.475.416-.455.446-.436.445-.436.466-.405.475-.406.495-.377.495-.366.515-.356.535-.327.534-.317.545-.297.554-.287.564-.258.575-.247.584-.228.594-.208.594-.188.604-.168.604-.149.614-.128.614-.11.624-.088.593-.07.654-.06.624-.029.623-.01.624.01.624.03.624.05.624.079.623.089.614.109.614.128.604.149.604.168.594.188.594.208.574.228.575.247.574.258.554.287.545.297.534.317.535.327.515.356.495.366.495.377.475.405.466.406.445.436.436.436.426.455.406.475.386.476.376.495.356.505.337.524-.188.04-1.07.109-1.079.03-1.069-.03-1.07-.109-1.069-.168-1.04-.248-1.029-.307-2.228-.822-1.247-.376-.218-.05-1.05-.247-1.287-.208-1.297-.128-1.306-.04-1.307.04-1.297.128-1.288.208-1.05.248-.217.05-1.247.376-2.228.821-1.03.307-1.05.248-1.059.168-1.07.109-1.068.03-1.08-.03zM73.05 8.545l2.723 5.297-.673-.07-.683-.06-.683-.029-.684-.01-.683.01-.683.03-.683.06-.673.069 2.722-5.297zM72.18 0v6.446l-4 7.792-.535.128-.654.189-.653.207-.644.218-.634.248-.623.267-.614.287-.614.307-.594.327-.584.346-.575.367-.564.376-.544.406-.535.416-.525.435-.505.446-.495.465-.475.485-.456.495-.445.515-.426.525-.406.545-.386.544-.366.564-.357.585-.326.584-.317.594-.287.604-.278.624-.247.623-.228.634-.208.634-.188.643-.168.654-.149.653-.119.664-.099.663-.079.663-.06.674-.029.673-.01.673v6.832h8.634l.515.03.445.089.436.148.406.198.376.248.337.297.307.326.247.377.198.396.149.425.089.436.03.446h-6.951v5.128h3.475v6.842h3.485v107.376l.268.169 1.465.92V56.406h13.92v109.406h1.733V56.406h3.485v-6.842h3.475v-5.128h-6.95l.03-.446.088-.436.139-.425.208-.396.247-.377.297-.326.347-.297.376-.248.406-.198.436-.148.445-.09.505-.03h8.644v-6.83l-.01-.674-.03-.673-.06-.674-.078-.663-.1-.663-.118-.664-.149-.653-.168-.654-.188-.643-.208-.634-.228-.634-.247-.623-.278-.624-.287-.604-.317-.594-.326-.584-.357-.585-.366-.564-.396-.544-.406-.545-.416-.525-.445-.514-.456-.496-.475-.485-.495-.465-.505-.446-.525-.435-.535-.416-.544-.406-.564-.376-.575-.367-.584-.346-.594-.327-.614-.307-.614-.287-.623-.267-.634-.248-.644-.218-.653-.207-.654-.189-.534-.128-4-7.792V0h-1.743z" fill="#3271B2"/><path d="M69.574 165.812V63.248h6.95v102.564h-1.732V64.95h-3.485v100.862h-1.733z" fill="#3271B2"/><path d="M66.089 164.871l1.485.941h-1.485v-.941z" fill="#474B4A"/><path d="M1.733 172.644v25.643h27.832v-13.673H15.644v-1.713h13.92v-10.257H1.734zm29.575-5.123H6.957v3.419h24.351v-3.419z" fill="#D0ECF6"/><path d="M86.96 170.93v-3.415H62.614v3.415H86.96z" fill="#F5EFEB"/><path d="M69.574 63.247v-6.841h-3.485v42.732h3.485v-35.89zm-2 102.565h2V99.139h-3.485v65.732l1.485.941z" fill="#D0ECF6"/><path d="M59.138 184.615H36.526v13.675h22.612v-13.675z" fill="#00AEEF"/><path d="M68.705 49.573h-6.088V54.7h6.088v-5.128z" fill="#D0ECF6"/><path d="M86.968 46.154H78.27v1.71h8.697v-1.71z" fill="#E1DDD9"/><path d="M67.835 46.154h-8.697v1.71h8.697v-1.71z" fill="#D0ECF6"/><path d="M78.272 46.154H67.835v1.71h10.437v-1.71z" fill="#CECCCA"/><path d="M66.673 33.495l.02-.693.02-.683.03-.693.04-.664H54.237l-.07.357-.089.614-.069.604-.05.613-.04.614v.624h12.753v-.693z" fill="#D0ECF6"/><path d="M78.564 24.851l.119.624.109.634.099.643.089.644.09.663.068.664.04.336h12.277l-.099-.336-.188-.585-.218-.584-.228-.564-.247-.564-.267-.565-.872.129-1.188.119-1.188.04-1.188-.04-1.178-.12-1.178-.187-1.159-.267-1.138-.337-2.228-.832-.446-.139.12.624zM66.95 28.723l.08-.663.079-.664.099-.643.099-.644.109-.634.109-.623.128-.614-.445.128-2.228.832-1.138.337-1.159.267-1.178.188-1.178.12-1.198.039-1.188-.04-1.179-.119-.87-.138-.268.574-.258.564-.227.565-.208.584-.188.584-.1.337h12.278l.03-.337z" fill="#00AEEF"/><path d="M67.525 24.852l-.11.623-.108.634-.099.644-.099.653-.08.654-.078.663-.03.337h12.257l-.04-.337-.069-.663-.089-.654-.089-.653-.099-.644-.109-.634-.119-.623-.118-.614-.693-.208-1.159-.267-1.168-.199-1.188-.108-1.188-.04-1.188.04-1.189.108-1.168.199-1.158.267-.693.198-.13.624zm4.158-11.139l.683-.03.683-.01.684.01.683.03.683.06.673.069-2.723-5.298-2.722 5.297.673-.069.683-.06z" fill="#00AEEF"/><path d="M66.676 35.898H53.921v3.419h12.755v-3.42zM58.06 24.406l1.069.03 1.079-.03 1.069-.11 1.06-.167 1.049-.248 1.03-.307 2.227-.822 1.248-.376.218-.05.119-.435.158-.554.178-.535.168-.535.189-.505.188-.495.198-.485.198-.465.208-.446.218-.426.217-.415.218-.387.228-.376.238-.356.237-.337.08-.099-.595.07-.624.088-.613.11-.614.128-.604.149-.604.168-.594.188-.594.208-.585.228-.574.247-.564.258-.555.287-.544.297-.545.317-.524.326-.515.357-.505.366-.485.376-.476.406-.465.406-.455.436-.436.436-.416.455-.406.475-.386.476-.376.495-.357.505-.336.524.188.04 1.07.109zm7.267 17.357l.158.277.139.277.119.287.109.297.089.297.06.307.049.307.03.317.01.307h3.474V41.02h-4.821l.218.228.188.257.178.258z" fill="#D0ECF6"/></g><defs><clipPath id="clip0_67_14373"><rect width="93.926" height="200" fill="#fff"/></clipPath></defs></svg>