<svg width="304" height="150" viewBox="0 0 304 150" fill="none" xmlns="http://www.w3.org/2000/svg"><g clip-path="url(#clip0_67_12856)"><path d="M292.06 69.42c-35.41 0-64.21-28.8-64.21-64.21h.93c0 34.89 28.39 63.28 63.28 63.28 3.9 0 7.8-.36 11.6-1.06l.17.91c-3.85.72-7.82 1.08-11.77 1.08zm-286.4 0c-2.21 0-4.44-.11-6.62-.34l.09-.92c2.16.22 4.35.33 6.53.33 16.93 0 32.83-6.49 44.74-18.27 11.92-11.77 18.49-27.5 18.53-44.31v-.16c.04-.42.31-.49.47-.49l.46.49v.16c0 .43 0 .75-.01.98v.19c-.34 16.61-6.98 32.13-18.79 43.8-12.1 11.96-28.22 18.54-45.4 18.54zm143.55 0c-36.77 0-68.27-28.18-71.7-64.17l.92-.08c3.39 35.5 34.49 63.32 70.78 63.32 17.55 0 34.34-6.52 47.27-18.35 12.86-11.75 20.84-27.74 22.48-45l.93.08c-1.66 17.5-9.75 33.7-22.78 45.61-13.11 11.99-30.12 18.59-47.9 18.59z" fill="#3271B2"/><path d="M3.805 68.96h-.93v18.928h.93V68.96zm7.278 0h-.93v18.928h.93V68.96zm7.275-1.155h-.93v20.082h.93V67.805zm7.277-1.835h-.93v21.917h.93V65.97zm7.275-2.8h-.93v24.718h.93V63.17zm7.274-3.908h-.93v28.624h.93V59.263zm7.278-5.69h-.93v34.315h.93V53.572zm7.275-6.752h-.93v41.067h.93V46.82zm7.277-10.513h-.93v51.58h.93v-51.58zm88.74 32.653h-.93v18.928h.93V68.96zm7.278-.49h-.93v19.417h.93V68.47zm7.277-1.247h-.93v20.663h.93V67.223zm7.274-2.063h-.931v22.728h.931V65.159zm7.276-2.887h-.93v25.614h.93V62.273zm7.276-4.068h-.93v29.68h.93v-29.68zm7.277-5.24h-.931v34.921h.931V52.965zm7.276-6.89h-.93v41.812h.93V46.075zm7.276-9.417h-.93v51.23h.93v-51.23zM146.426 68.96h-.93v18.928h.93V68.96zm-7.275-.778h-.93v19.705h.93V68.182zm-7.279-1.47h-.931v21.175h.931V66.712zm-7.274-2.287h-.93v23.463h.93V64.425zm-7.277-3.185h-.93v26.647h.93V61.24zm-7.276-4.221h-.93v30.868h.93V57.02zm-7.277-5.488h-.93v36.356h.93V51.531zm-7.275-7.191h-.93v43.548h.93V44.34zm-7.278-9.889h-.93v53.437h.93V34.45zm207.39 34.509h-.93v18.928h.93V68.96zm-7.276-.137h-.931v19.064h.931V68.823zm-7.277-.568h-.93v19.633h.93V68.255zm-7.276-1.796h-.93v21.428h.93V66.46zm-7.276-2.736h-.931v24.165h.931V63.723zm-7.275-3.821h-.93v27.985h.93V59.902zm-7.278-5.563h-.93v33.549h.93v-33.55zm-7.277-7.015h-.93v40.563h.93V47.324zm-7.276-10.235h-.93v50.798h.93V37.09z" fill="#3271B2"/><path d="M77.153 4.447h-7.49v145.384h7.49V4.447zm150.891 0h-7.491v145.384h7.491V4.447z" fill="#00AEEF"/><path d="M-.95 87.88h304.7v7.4H-.91l-.04-7.4zM235.507-.427H212.56V5.31h22.947V-.427zm-150.341 0H62.22V5.31h22.947V-.427z" fill="#00AEEF"/></g><defs><clipPath id="clip0_67_12856"><rect width="304" height="150" fill="#fff"/></clipPath></defs></svg>