<svg width="50" height="50" viewBox="0 0 50 50" fill="none" xmlns="http://www.w3.org/2000/svg"><g clip-path="url(#clip0_106_5064)"><path d="M49.36 25C49.36 11.546 38.452.64 25 .64S.641 11.547.641 25s10.906 24.359 24.36 24.359c13.452 0 24.358-10.906 24.358-24.36z" stroke="#3271B2"/><path d="M13.68 16.66c-.308-2.519 1.46-4.814 3.974-5.121 1.59-.218 3.09.442 4.057 1.544m11.295 8.737c1.237 0 2.212-1.012 2.212-2.25 0-.621-.27-1.147-.667-1.544a2.26 2.26 0 00-1.583-.66" stroke="#E0027A" stroke-width="1.5" stroke-linejoin="round"/><path d="M13.68 16.61c-1.456.179-2.469 1.506-2.296 2.96.18 1.456 1.5 2.469 2.962 2.296h3.263m11.032-8.123c.705-.352 1.545-.487 2.34-.218a3.032 3.032 0 011.942 3.84" stroke="#E0027A" stroke-width="1.5" stroke-linejoin="round"/><path d="M21.141 14.275a3.982 3.982 0 013.84-2.955c2.025 0 3.705 1.5 3.923 3.481" stroke="#E0027A" stroke-width="1.5" stroke-linejoin="round"/><path d="M25.551 27.513v5.115" stroke="#00AEEF" stroke-width="1.5" stroke-linecap="round" stroke-linejoin="round"/><path d="M25.555 35.238a1.147 1.147 0 100-2.295 1.147 1.147 0 000 2.295zm-5.957 1.323a1.147 1.147 0 100-2.294 1.147 1.147 0 000 2.294zm2.774-8.875v2.564a1.37 1.37 0 01-1.366 1.365c-.75 0-1.365.615-1.365 1.372V34m-3.351 4.68a1.147 1.147 0 100-2.295 1.147 1.147 0 000 2.294zm2.998-10.994v1.019c0 .75-.622 1.365-1.372 1.365h-.173c-.75 0-1.371.616-1.371 1.366v4.679m18.582 2.565a1.147 1.147 0 100-2.295 1.147 1.147 0 000 2.294zm-2.96-10.994v1.019c0 .75.615 1.365 1.365 1.365h.18c.75 0 1.365.616 1.365 1.366v4.679m-3.347.446a1.147 1.147 0 100-2.294 1.147 1.147 0 000 2.294zm-2.781-8.875v2.564c0 .75.615 1.365 1.365 1.365s1.366.615 1.366 1.372V34M17.654 23.32c-.218-1.717 1.013-3.307 2.737-3.531a3.212 3.212 0 012.782 1.064" stroke="#00AEEF" stroke-width="1.5" stroke-linejoin="round"/><path d="M17.699 23.275c-1.148.135-1.988 1.238-1.808 2.385a2.072 2.072 0 002.378 1.808l15.007-.045c.967 0 1.807-.84 1.762-1.808 0-.487-.218-.93-.532-1.237a1.863 1.863 0 00-1.275-.526" stroke="#00AEEF" stroke-width="1.5" stroke-linejoin="round"/><path d="M29.699 20.98c.577-.307 1.237-.352 1.897-.172 1.282.39 1.987 1.807 1.59 3.083m-10.327-3.526a3.6 3.6 0 013.487-2.692 3.578 3.578 0 013.57 3.173" stroke="#00AEEF" stroke-width="1.5" stroke-linejoin="round"/></g><defs><clipPath id="clip0_106_5064"><rect width="50" height="50" fill="#fff"/></clipPath></defs></svg>