<svg width="40" height="40" viewBox="0 0 40 40" fill="none" xmlns="http://www.w3.org/2000/svg"><g clip-path="url(#clip0_111_10554)"><path d="M32 0H8a8 8 0 00-8 8v24a8 8 0 008 8h24a8 8 0 008-8V8a8 8 0 00-8-8z" fill="#fff"/><path d="M10.872 30a.873.873 0 01-.616-.256.879.879 0 010-1.232L28.52 10.248a.879.879 0 011.232 0 .879.879 0 010 1.232L11.488 29.744a.873.873 0 01-.616.256z" fill="#000"/><path d="M29.128 30a.873.873 0 01-.616-.256L10.256 11.488a.879.879 0 010-1.232.879.879 0 011.232 0L29.752 28.52a.879.879 0 010 1.232.873.873 0 01-.616.256L29.128 30z" fill="#000"/></g><defs><clipPath id="clip0_111_10554"><rect width="40" height="40" fill="#fff"/></clipPath></defs></svg>