<svg width="547" height="323" viewBox="0 0 547 323" fill="none" xmlns="http://www.w3.org/2000/svg"><mask id="a" style="mask-type:luminance" maskUnits="userSpaceOnUse" x="0" y="0" width="547" height="323"><path d="M547 .303H0V323h547V.303z" fill="#fff"/></mask><g opacity=".2" mask="url(#a)"><mask id="b" style="mask-type:luminance" maskUnits="userSpaceOnUse" x="-938" y="-738" width="1542" height="1062"><path d="M603.669-737.796H-937.458V323.017H603.669V-737.796z" fill="#fff"/></mask><g mask="url(#b)" fill="#989898"><path d="M415.555 266.85a5.914 5.914 0 11-11.829 0 5.914 5.914 0 0111.829 0zM108.023 71.162a5.914 5.914 0 11-11.827 0 5.914 5.914 0 0111.827 0zm20.7 80.945a5.914 5.914 0 11-11.829 0 5.914 5.914 0 0111.829 0zM337.806 64.58a6.505 6.505 0 116.504-6.505 6.517 6.517 0 01-6.504 6.504zm0-11.829a5.322 5.322 0 100 10.645 5.322 5.322 0 000-10.645zm76.862-31.858a6.505 6.505 0 116.504-6.504 6.517 6.517 0 01-6.504 6.504zm0-11.828a5.321 5.321 0 00-3.764 9.086 5.322 5.322 0 103.764-9.086zM44.152 140.948a6.501 6.501 0 01-6.38-7.773 6.507 6.507 0 015.111-5.11 6.506 6.506 0 017.773 6.379 6.512 6.512 0 01-6.504 6.504zm0-11.828a5.32 5.32 0 00-5.22 6.361 5.322 5.322 0 105.22-6.361zm220.003 77.397a6.507 6.507 0 01-6.009-4.015 6.507 6.507 0 011.41-7.088 6.505 6.505 0 0111.103 4.599 6.51 6.51 0 01-6.504 6.504zm0-11.828a5.32 5.32 0 00-5.22 6.36 5.318 5.318 0 004.182 4.182 5.324 5.324 0 006.361-5.22 5.33 5.33 0 00-5.323-5.322zm150.809-41.368a6.51 6.51 0 01-6.379-7.773 6.501 6.501 0 015.11-5.11 6.507 6.507 0 017.773 6.379 6.516 6.516 0 01-6.504 6.504zm0-11.828a5.32 5.32 0 00-4.918 3.285 5.335 5.335 0 00-.303 3.076 5.321 5.321 0 009.646 1.918 5.32 5.32 0 00-.664-6.719 5.326 5.326 0 00-3.761-1.56zm0 42.628a6.503 6.503 0 01-4.599-11.103 6.505 6.505 0 0111.103 4.599 6.516 6.516 0 01-6.504 6.504zm0-11.828a5.32 5.32 0 00-4.918 3.286 5.331 5.331 0 00-.303 3.075 5.33 5.33 0 004.182 4.182 5.323 5.323 0 006.361-5.22 5.327 5.327 0 00-5.322-5.323z"/><path d="M142.507 302.338h-294.796l294.306-1.182 35.488-35.488h231.543v1.183H177.991l-35.484 35.487zm-419.54-66.469h-251.296v-1.183h250.807l65.941-65.942H67.46l49.087 49.087h292.501v1.182h-292.99l-49.086-49.086h-278.063l-65.942 65.942zm686.084-58.253H244.984l-71.56-71.561h-225.08v-1.182h225.57l71.561 71.56h163.576v1.183z"/><path d="M-255.711 302.666h-138.962v-1.182h138.472l83.652-83.652h288.851v1.182h-288.361l-83.652 83.652zm433.461-36.999H-6.71v1.183h184.46v-1.183zm231.299-117.622H276.921L200.63 71.754h-98.52V70.57h99.009l76.292 76.292h131.638v1.182z"/><path d="M409.049 98.367H298.211l-83.388-83.389H39.665L-9.57 64.212h-160.368v-1.18H-10.06l49.235-49.235h176.137L298.7 97.185h110.348l.001 1.181zm-719.497 80.431h-118.526v-1.182h118.036l43.764-43.765H38.237v1.183h-304.921l-43.764 43.764zM409.049 13.796h-117.69v1.183h117.69v-1.183zm-150.81 186.806h-87.772l-48.077-48.077.833-.834 47.731 47.731h87.285v1.18zm150.81-143.12H343.72v1.183h65.329v-1.183zM48.245 317.1a5.913 5.913 0 01-7.069 5.801 5.913 5.913 0 011.154-11.715 5.919 5.919 0 015.465 3.651 5.92 5.92 0 01.45 2.263z"/><path d="M172.487 86.519a5.914 5.914 0 11-11.828 0 5.914 5.914 0 0111.828 0zm-31.763 47.333a5.911 5.911 0 01-3.651 5.464 5.913 5.913 0 01-8.064-4.311 5.914 5.914 0 1111.715-1.153zM6.893 127.325a6.509 6.509 0 01-6.009-4.015 6.504 6.504 0 1112.513-2.489 6.515 6.515 0 01-6.504 6.504zm0-11.828a5.32 5.32 0 00-3.763 9.086 5.33 5.33 0 002.725 1.457 5.32 5.32 0 004.8-8.983 5.329 5.329 0 00-3.762-1.56zM402.27 79.935a6.503 6.503 0 01-4.599-11.103 6.504 6.504 0 0111.103 4.6 6.512 6.512 0 01-6.504 6.504zm0-11.828a5.32 5.32 0 00-3.763 9.086 5.318 5.318 0 005.8 1.154 5.327 5.327 0 002.389-1.96 5.325 5.325 0 00-4.426-8.28zM181.996 288.12a6.5 6.5 0 01-6.009-4.015 6.503 6.503 0 1112.513-2.488 6.516 6.516 0 01-6.504 6.503zm0-11.828a5.328 5.328 0 00-4.917 3.286 5.316 5.316 0 001.153 5.8 5.318 5.318 0 005.801 1.154 5.327 5.327 0 003.285-4.917 5.326 5.326 0 00-5.322-5.323zm-73.381-119.988a6.5 6.5 0 01-6.009-4.015 6.506 6.506 0 018.498-8.498 6.506 6.506 0 014.015 6.009 6.511 6.511 0 01-6.504 6.504zm0-11.828a5.325 5.325 0 00-5.22 6.361 5.326 5.326 0 007.257 3.879 5.324 5.324 0 003.286-4.917 5.329 5.329 0 00-5.323-5.323zm167.368 44.507a6.5 6.5 0 01-6.009-4.015 6.503 6.503 0 1112.513-2.488 6.512 6.512 0 01-6.504 6.503zm0-11.828a5.328 5.328 0 00-4.917 3.286 5.316 5.316 0 001.154 5.8 5.324 5.324 0 009.085-3.763 5.326 5.326 0 00-5.322-5.323zm61.143 140.54H42.331v-1.183h294.305l35.488-35.488h231.541v1.183H372.608l-35.482 35.488zm-549.696-66.47h-251.297v-1.183h250.807l65.942-65.942h279.041l49.086 49.087h292.502v1.182H180.522l-49.087-49.086h-278.064l-65.941 65.942z"/><path d="M473.514 192.971H309.448l-71.561-71.561H12.807v-1.182h225.571l71.56 71.56h163.576v1.183zm-664.761 125.05H-330.21v-1.182h138.472l83.652-83.652h288.851v1.182h-288.361l-83.651 83.652zm563.616-36.997H187.91v1.183h184.459v-1.183z"/><path d="M473.513 163.401H341.385L265.093 87.11h-98.52v-1.183h99.01l76.291 76.292h131.639v1.182z"/><path d="M473.513 113.723H362.674l-83.388-83.389H104.128L54.894 79.57h-160.368v-1.183H54.404l49.235-49.235h176.137l83.389 83.389h110.348v1.183zm-719.498 80.431H-364.51v-1.185h118.036l43.764-43.764h305.411v1.182h-304.922l-43.764 43.767zM473.513 29.151h-117.69v1.183h117.69v-1.183zM270.659 182.478h-87.772l-48.076-48.077.833-.834 47.731 47.731h87.284v1.18zm202.854-109.64h-65.329v1.184h65.329v-1.184z"/></g></g></svg>