<svg width="174" height="200" viewBox="0 0 174 200" fill="none" xmlns="http://www.w3.org/2000/svg"><g clip-path="url(#clip0_67_14545)"><path d="M144.926 116.26h-90.82v49.275h90.82V116.26z" fill="#00AEEF"/><path d="M81.159 148.144H10.628v17.391h70.53v-17.391z" fill="#D0ECF6"/><mask id="a" style="mask-type:luminance" maskUnits="userSpaceOnUse" x="92" y="26" width="18" height="45"><path fill-rule="evenodd" clip-rule="evenodd" d="M97.687 38.966l-5.34 6.256.287 25.06 16.627-6.851-.836-37.04-1.663 1.947h-11.11v10.628h2.035z" fill="#000"/></mask><g mask="url(#a)"><path fill-rule="evenodd" clip-rule="evenodd" d="M97.687 38.966l-5.34 6.256.287 25.06 16.627-6.851-.836-37.04-1.663 1.947h-11.11v10.628h2.035z" fill="#D0ECF6"/></g><path d="M54.077 167.67c-.3 0-.59-.126-.802-.329a1.14 1.14 0 01-.338-.802v-50.878c0-.3.125-.59.338-.802.212-.203.502-.329.802-.329h90.395c.299 0 .589.126.802.338.212.203.328.493.328.793v50.878c0 .3-.116.59-.328.802a1.178 1.178 0 01-.802.329H54.077zm1.13-2.261h88.134v-48.608H55.207v48.608zM90.53 70.956l.01-23.671c.03-1.334 1.121-8.232 17.517-17.198a1.132 1.132 0 011.121.02c.348.202.551.57.551.975v33.072c0 .628-.503 1.14-1.131 1.14s-1.13-.512-1.13-1.14v-31.14c-14.396 8.32-14.657 14.087-14.667 14.3v23.642c0 .618-.512 1.13-1.13 1.13a1.14 1.14 0 01-1.14-1.13z" fill="#3271B2"/><path d="M82.501 101.767V78.55c.02-2.135 1.43-3.845 3.295-5.352 1.903-1.498 4.396-2.85 7.111-4.097 5.41-2.483 11.681-4.531 15.266-5.99 5.768-2.387 6.096-5.923 6.183-6.85a1.129 1.129 0 011.16-1.083c.608.01 1.101.512 1.101 1.13v39.884c0 .628-.502 1.13-1.13 1.13a1.126 1.126 0 01-1.131-1.13V61.603c-1.14 1.314-2.831 2.609-5.333 3.604-2.792 1.13-6.966 2.55-11.111 4.213-4.135 1.662-8.232 3.584-10.696 5.555-1.68 1.324-2.483 2.59-2.454 3.575v23.217c0 .628-.502 1.131-1.13 1.131-.628 0-1.13-.503-1.13-1.131z" fill="#3271B2"/><path d="M67.564 116.801c-.3 0-.589-.126-.801-.338a1.14 1.14 0 01-.339-.792v-7.005c0-.686.29-1.295.677-1.778.396-.493.898-.908 1.487-1.295 1.189-.782 2.774-1.478 4.677-2.154 3.807-1.333 8.87-2.561 14.222-3.652 10.686-2.184 22.483-3.817 26.976-4.551 2.83-.473 4.444-1.382 5.391-2.319a4.698 4.698 0 001.401-2.705c.096-.58.618-.995 1.207-.957.59.049 1.054.541 1.054 1.13v25.286c0 .289-.126.579-.339.792a1.143 1.143 0 01-.802.338h-54.81zm8.628-11.942c-3.826 1.14-6.676 2.532-7.314 3.43-.174.222-.183.329-.183.377v5.865h52.55V94.724c-1.353 1.237-3.401 2.251-6.415 2.744-6.387 1.043-27.073 3.855-38.638 7.391zm38.164-48.492c-.116-.087-.473-.261-.889-.367-.84-.203-2.038-.27-3.014-.27-1.005 0-1.759.067-1.759.067a1.127 1.127 0 01-1.217-1.034 1.13 1.13 0 011.034-1.227c.019 0 .84-.068 1.942-.068.802 0 1.749.03 2.657.164.908.145 1.787.339 2.551.88.492.348.975 1.014.956 1.797 0 .628-.502 1.13-1.13 1.13a1.128 1.128 0 01-1.131-1.072z" fill="#3271B2"/><path d="M121.245 90.443c-.116-.087-.473-.26-.889-.357-.84-.213-2.038-.28-3.014-.28-1.005 0-1.758.067-1.758.067a1.15 1.15 0 01-1.228-1.033 1.143 1.143 0 011.034-1.227c.02 0 .851-.068 1.952-.068.802 0 1.749.029 2.657.164.908.145 1.787.338 2.551.88.502.347.975 1.023.956 1.796 0 .628-.502 1.13-1.13 1.13a1.134 1.134 0 01-1.131-1.072zM93.342 41.71V27.517c0-.3.116-.59.329-.802.212-.203.502-.329.802-.329h12.908c.299 0 .589.126.802.329.203.212.328.502.328.802v4.241c0 .628-.502 1.13-1.13 1.13a1.126 1.126 0 01-1.131-1.13v-3.11H95.603V41.71a1.14 1.14 0 01-1.13 1.14c-.628 0-1.13-.512-1.13-1.14zm1.169-22.715a1.135 1.135 0 01-1.13-1.13c0-2.773.773-5.295 2.087-7.189 1.304-1.894 3.246-3.198 5.488-3.198v2.26c-1.314 0-2.6.764-3.624 2.233-.85 1.207-1.458 2.879-1.632 4.763h10.502c-.174-1.884-.783-3.556-1.623-4.763-1.024-1.469-2.309-2.232-3.623-2.232V7.478c2.241 0 4.174 1.304 5.478 3.198 1.314 1.894 2.087 4.415 2.087 7.188 0 .3-.116.59-.329.802a1.174 1.174 0 01-.802.329H94.511z" fill="#3271B2"/><path d="M92.424 18.995c-.628 0-1.13-.512-1.13-1.13 0-.628.502-1.13 1.13-1.13h17.063c.618 0 1.13.502 1.13 1.13 0 .618-.512 1.13-1.13 1.13H92.424zm7.391-10.386V1.13c0-.628.513-1.13 1.141-1.13.618 0 1.13.502 1.13 1.13v7.48c0 .628-.512 1.13-1.13 1.13-.628 0-1.14-.502-1.14-1.13z" fill="#3271B2"/><path d="M93.39 27.517v-9.652a1.132 1.132 0 012.26 0v9.652a1.13 1.13 0 11-2.259 0zm12.87 0v-9.652c0-.628.502-1.13 1.13-1.13.628 0 1.131.502 1.131 1.13v9.652c0 .628-.503 1.13-1.131 1.13s-1.13-.502-1.13-1.13zm-4.29 0v-9.652c0-.628.503-1.13 1.131-1.13s1.13.502 1.13 1.13v9.652c0 .628-.502 1.13-1.13 1.13a1.126 1.126 0 01-1.131-1.13zm-4.29 0v-9.652c0-.628.503-1.13 1.13-1.13.629 0 1.131.502 1.131 1.13v9.652c0 .628-.502 1.13-1.13 1.13-.628 0-1.13-.502-1.13-1.13zm2.551 61.168V74.328c0-.628.502-1.14 1.13-1.14.628 0 1.131.512 1.131 1.14v14.357c0 .628-.503 1.14-1.131 1.14s-1.13-.512-1.13-1.14zm3.932 26.976v-10.754c0-.628.512-1.13 1.14-1.13.619 0 1.131.502 1.131 1.13v10.754c0 .628-.512 1.13-1.131 1.13-.628 0-1.14-.502-1.14-1.13zm-28.956 0v-7.508c0-.628.502-1.13 1.13-1.13.629 0 1.13.502 1.13 1.13v7.508c0 .628-.501 1.14-1.13 1.14-.628 0-1.13-.512-1.13-1.14zm-63.053 84.337a1.14 1.14 0 01-1.13-1.14c0-.618.512-1.13 1.13-1.13h123.197a1.134 1.134 0 010 2.27H12.154z" fill="#3271B2"/><path d="M134.221 198.858c0-.618.502-1.13 1.13-1.13h35.43V167.67H1.131A1.125 1.125 0 010 166.54c0-.628.502-1.131 1.13-1.131h170.781c.3 0 .59.116.802.329.213.212.329.502.329.802v32.318a1.139 1.139 0 01-1.131 1.14h-36.56c-.628 0-1.13-.512-1.13-1.14z" fill="#3271B2"/><path d="M10.657 167.67c-.31 0-.59-.116-.802-.329a1.158 1.158 0 01-.338-.801v-18.078c0-.299.125-.579.338-.792.203-.212.502-.338.802-.338h69.506c.3 0 .58.116.802.338.213.213.329.493.329.792v18.078c0 .299-.116.579-.329.801a1.149 1.149 0 01-.802.329H10.657zm1.13-2.261h67.246v-15.816H11.787v15.816zm148.569 26.502v-14.947a1.131 1.131 0 012.261 0v14.947c0 .628-.503 1.131-1.131 1.131s-1.13-.503-1.13-1.131zm-25.565 0v-14.947c0-.628.502-1.13 1.13-1.13.628 0 1.131.502 1.131 1.13v14.947c0 .618-.503 1.131-1.131 1.131s-1.13-.513-1.13-1.131zm12.782 0v-14.947c0-.628.503-1.13 1.131-1.13s1.13.502 1.13 1.13v14.947c0 .628-.502 1.131-1.13 1.131a1.127 1.127 0 01-1.131-1.131zm-25.565 0v-14.947a1.132 1.132 0 012.261 0v14.947c0 .618-.502 1.131-1.13 1.131a1.139 1.139 0 01-1.131-1.131zm-25.565 0v-14.947c0-.628.512-1.13 1.14-1.13.619 0 1.13.502 1.13 1.13v14.947c0 .618-.511 1.131-1.13 1.131a1.14 1.14 0 01-1.14-1.131zm12.783 0v-14.947c0-.628.512-1.13 1.13-1.13.629 0 1.141.502 1.141 1.13v14.947c0 .618-.512 1.131-1.141 1.131-.618 0-1.13-.513-1.13-1.131zm-25.565 0v-14.947c0-.628.512-1.13 1.13-1.13.629 0 1.14.502 1.14 1.13v14.947c0 .628-.511 1.131-1.14 1.131-.618 0-1.13-.503-1.13-1.131zm-25.565 0v-14.947c0-.628.512-1.13 1.14-1.13.619 0 1.13.502 1.13 1.13v14.947a1.134 1.134 0 01-2.27 0zm-12.773 0v-14.947a1.132 1.132 0 012.261 0v14.947c0 .618-.512 1.131-1.13 1.131-.628 0-1.13-.513-1.13-1.131zm25.555 0v-14.947c0-.618.513-1.13 1.13-1.13.629 0 1.14.512 1.14 1.13v14.947c0 .628-.511 1.131-1.14 1.131-.617 0-1.13-.503-1.13-1.131zm-47.342 0v-14.947c0-.628.512-1.13 1.13-1.13.629 0 1.14.502 1.14 1.13v14.947a1.14 1.14 0 01-1.14 1.131c-.618 0-1.13-.513-1.13-1.131zm-12.773 0v-14.947c0-.628.503-1.13 1.13-1.13.629 0 1.131.502 1.131 1.13v14.947c0 .618-.502 1.131-1.13 1.131-.628 0-1.13-.513-1.13-1.131zm113.632-32.463v-25.546a1.135 1.135 0 012.271 0v25.546c0 .628-.513 1.14-1.141 1.14a1.14 1.14 0 01-1.13-1.14zm9.13 0v-25.546c0-.628.503-1.131 1.131-1.131s1.13.503 1.13 1.131v25.546c0 .628-.502 1.14-1.13 1.14a1.134 1.134 0 01-1.131-1.14z" fill="#3271B2"/><path d="M33.894 198.858v-32.319c0-.309.26-.57.57-.57.309 0 .57.261.57.57v32.319a.57.57 0 01-1.14 0zm-7.112-32.319v-18.067c0-.319.251-.57.56-.57.31 0 .57.251.57.57v18.067c0 .31-.26.57-.57.57a.568.568 0 01-.56-.57z" fill="#3271B2"/></g><defs><clipPath id="clip0_67_14545"><rect width="173.05" height="200" fill="#fff"/></clipPath></defs></svg>