<svg width="42" height="30" viewBox="0 0 42 30" fill="none" xmlns="http://www.w3.org/2000/svg"><g clip-path="url(#clip0_15_932)"><path d="M-.065 29.618v-1.882c3.387-.692 6.261-2.247 8.623-4.663 2.367-2.422 3.568-5.51 3.611-9.268-1.473 1.168-3.125 1.751-4.942 1.751-2.258 0-4.058-.703-5.405-2.105C.48 12.044-.196 10.134-.196 7.718c0-2.29.829-4.216 2.476-5.77C3.927.392 5.945-.383 8.33-.383c2.732 0 4.925.938 6.572 2.815 1.653 1.882 2.476 4.396 2.476 7.549 0 5.356-1.565 9.84-4.685 13.445-3.126 3.606-7.375 5.668-12.758 6.191zm23.82 0v-1.882c3.425-.692 6.321-2.247 8.689-4.663 2.361-2.422 3.567-5.51 3.61-9.268-1.478 1.168-3.125 1.751-4.947 1.751-2.296 0-4.118-.714-5.465-2.138-1.347-1.423-2.018-3.327-2.018-5.7 0-2.29.823-4.216 2.47-5.77 1.653-1.555 3.671-2.33 6.055-2.33 2.733 0 4.937.938 6.606 2.815 1.669 1.882 2.503 4.396 2.503 7.549 0 5.356-1.57 9.84-4.718 13.445-3.142 3.606-7.407 5.668-12.785 6.191z" fill="url(#paint0_linear_15_932)"/></g><defs><linearGradient id="paint0_linear_15_932" x1="20.535" y1="-17.6" x2="19.753" y2="35.216" gradientUnits="userSpaceOnUse"><stop stop-color="#fff" stop-opacity="0"/><stop offset="1" stop-color="#fff"/></linearGradient><clipPath id="clip0_15_932"><rect width="41.455" height="30" fill="#fff"/></clipPath></defs></svg>