<svg width="72" height="72" viewBox="0 0 72 72" fill="none" xmlns="http://www.w3.org/2000/svg"><path d="M36 53.846c.697 0 1.282-.236 1.754-.708.472-.471.708-1.056.708-1.753 0-.698-.236-1.283-.708-1.754-.472-.472-1.057-.708-1.754-.708-.697 0-1.282.236-1.754.708-.472.471-.708 1.056-.708 1.754 0 .697.236 1.282.708 1.753.472.472 1.057.708 1.754.708zm-2-13.231h4v-24h-4v24zM36.013 72c-4.978 0-9.658-.945-14.041-2.834-4.382-1.89-8.194-4.453-11.436-7.692-3.242-3.239-5.808-7.047-7.699-11.426C.946 45.67 0 40.992 0 36.013c0-4.978.945-9.658 2.834-14.041 1.89-4.382 4.453-8.194 7.692-11.436 3.239-3.242 7.047-5.808 11.426-7.699C26.33.946 31.008 0 35.987 0c4.978 0 9.658.945 14.041 2.834 4.382 1.89 8.194 4.453 11.436 7.692 3.242 3.239 5.808 7.047 7.699 11.426C71.054 26.33 72 31.008 72 35.987c0 4.978-.945 9.658-2.834 14.041-1.89 4.382-4.453 8.194-7.692 11.436-3.239 3.242-7.047 5.808-11.426 7.699C45.67 71.054 40.992 72 36.013 72zM36 68c8.933 0 16.5-3.1 22.7-9.3C64.9 52.5 68 44.933 68 36s-3.1-16.5-9.3-22.7C52.5 7.1 44.933 4 36 4s-16.5 3.1-22.7 9.3C7.1 19.5 4 27.067 4 36s3.1 16.5 9.3 22.7C19.5 64.9 27.067 68 36 68z" fill="#9747FF"/></svg>