<svg width="70" height="70" viewBox="0 0 70 70" fill="none" xmlns="http://www.w3.org/2000/svg"><g clip-path="url(#clip0_106_3154)"><path d="M35 70c19.33 0 35-15.67 35-35S54.33 0 35 0 0 15.67 0 35s15.67 35 35 35z" fill="#00AEEF"/><path d="M50.252 32.535c0-1.548-.537-3.08-1.509-4.301a6.982 6.982 0 00-3.274-2.272 4.385 4.385 0 00-4.301-5.25 4.36 4.36 0 00-2.054.506 7.737 7.737 0 00-5.934-2.792c-4.138 0-7.521 3.274-7.7 7.365a6.918 6.918 0 00-3.733 2.271 6.913 6.913 0 00-1.657 4.473 6.93 6.93 0 006.035 6.867 10.845 10.845 0 00-1.858 6.083c0 1.92.505 3.803 1.462 5.46.14.24.45.326.7.186l3.196-1.843a.517.517 0 00.234-.311.54.54 0 00-.047-.397 6.155 6.155 0 01-.832-3.095c0-3.407 2.776-6.184 6.191-6.184 3.414 0 6.191 2.777 6.191 6.184a6.155 6.155 0 01-.832 3.095.54.54 0 00-.047.397.502.502 0 00.241.311l3.19 1.843a.51.51 0 00.7-.186 10.917 10.917 0 001.461-5.46c0-2.248-.684-4.34-1.858-6.083a6.93 6.93 0 006.035-6.867zM27.97 44.97h-2.66a9.73 9.73 0 011.065-3.966l2.303 1.33a7.321 7.321 0 00-.708 2.636zm-1.595 5.001a9.784 9.784 0 01-1.065-3.966h2.668c.062.918.303 1.812.7 2.636l-2.303 1.33zm2.824-8.524l-2.31-1.338a9.945 9.945 0 012.909-2.9l1.33 2.301a7.144 7.144 0 00-1.93 1.937zm6.486-5.826a9.927 9.927 0 013.975 1.066l-1.33 2.31a7.057 7.057 0 00-2.645-.708v-2.668zm-1.026 2.668a7.057 7.057 0 00-2.645.708l-1.33-2.31a9.927 9.927 0 013.975-1.066v2.668zm4.557 1.221l1.33-2.302a9.945 9.945 0 012.91 2.901l-2.31 1.338a7.143 7.143 0 00-1.93-1.937zm3.158 5.46a7.321 7.321 0 00-.708-2.636l2.303-1.33a9.73 9.73 0 011.065 3.966h-2.66zm1.602 5.001l-2.31-1.33a7.376 7.376 0 00.708-2.636h2.66a9.9 9.9 0 01-1.058 3.966zm-.497-11.542a10.885 10.885 0 00-8.307-3.85 10.86 10.86 0 00-8.299 3.85 5.904 5.904 0 01-5.756-5.895c0-2.855 2.132-5.351 4.955-5.81a.519.519 0 00.435-.514c0-3.679 2.995-6.75 6.674-6.75a6.683 6.683 0 015.39 2.737.52.52 0 00.708.124 3.36 3.36 0 015.079 3.835.49.49 0 00.03.404.53.53 0 00.335.257 5.872 5.872 0 014.503 5.717 5.903 5.903 0 01-5.747 5.895zm-4.714 4.387l-2.372 1.377a1.756 1.756 0 00-1.221-.483 1.78 1.78 0 00-1.781 1.774 1.781 1.781 0 103.515-.405l2.373-1.369a.522.522 0 00.194-.707.527.527 0 00-.708-.187zm-3.593 3.422a.755.755 0 01-.755-.754.754.754 0 011.509 0c0 .42-.342.754-.754.754zm7.918-17.547a.516.516 0 010 .732.511.511 0 01-.366.147.507.507 0 01-.358-.147 10.113 10.113 0 00-7.194-2.98 10.113 10.113 0 00-7.194 2.98.507.507 0 01-.724 0 .517.517 0 010-.732 11.112 11.112 0 017.918-3.274c2.994 0 5.802 1.159 7.918 3.274zm-2.015 2.023a.507.507 0 010 .723.511.511 0 01-.365.148.494.494 0 01-.358-.148c-2.855-2.854-7.506-2.854-10.36 0a.507.507 0 01-.723 0 .507.507 0 010-.723c3.258-3.26 8.555-3.26 11.806 0zm-2.014 2.014a.51.51 0 01-.366.871.494.494 0 01-.358-.148 4.488 4.488 0 00-6.33 0 .507.507 0 01-.724 0 .507.507 0 010-.723 5.502 5.502 0 017.778 0z" fill="#F7F9FC"/></g><defs><clipPath id="clip0_106_3154"><rect width="70" height="70" fill="#fff"/></clipPath></defs></svg>