<svg width="31" height="31" viewBox="0 0 31 31" fill="none" xmlns="http://www.w3.org/2000/svg"><path d="M30.082 15.563a15.209 15.209 0 00-2.378-8.152 15.07 15.07 0 00-6.367-5.579 14.955 14.955 0 00-8.35-1.248A14.996 14.996 0 005.282 4.06a15.146 15.146 0 00-4.63 7.105 15.231 15.231 0 00-.096 8.496 15.152 15.152 0 004.465 7.21 15 15 0 007.622 3.654V19.943H8.827v-4.38h3.817v-3.314c0-3.79 2.253-5.891 5.69-5.891 1.127.016 2.251.116 3.364.3v3.728h-1.904a2.17 2.17 0 00-1.79.588 2.197 2.197 0 00-.669 1.772v2.817h4.177l-.689 4.38h-3.477v10.582a15.037 15.037 0 009.113-5.115 15.216 15.216 0 003.623-9.847z" fill="#00AEEF"/></svg>