<svg width="573" height="500" viewBox="0 0 573 500" fill="none" xmlns="http://www.w3.org/2000/svg"><g opacity=".07" fill="#fff"><path d="M272.05 256.418v58.01h63.674c-13.624 19.79-37.789 32.482-63.674 32.482-40.442 0-77.729-32.984-77.729-78.23s36.498-78.231 77.729-78.231h53.707v-86.548H272.05c-90.922 0-164.348 73.785-164.348 164.779s73.354 164.778 164.348 164.778c90.994 0 164.778-73.784 164.778-164.778v-12.333H272.05v.071z"/><path d="M487.523 1.362v102.539h-50.695V0h-84.899v230.46h84.899v-39.939h50.695v173.383h84.899V1.362h-84.899zM264.808 500.001c-126.631 0-229.672-103.183-229.672-230.101 0-43.741 12.333-86.333 35.71-123.118 22.73-35.853 54.782-64.678 92.714-83.393 3.299-1.65 7.242-.287 8.892 3.011 1.649 3.299.286 7.243-3.012 8.892a217.214 217.214 0 00-87.337 78.589c-22.013 34.705-33.63 74.788-33.63 116.019 0 119.532 97.089 216.764 216.335 216.764 31.693 0 62.24-6.74 90.85-19.934 3.299-1.577 7.314-.071 8.82 3.227 1.577 3.298.072 7.314-3.227 8.82-30.331 14.054-62.813 21.153-96.443 21.153"/><path d="M270.83 469.453c-110.425 0-200.344-90.061-200.344-200.774S160.333 67.904 270.83 67.904h53.708a6.655 6.655 0 016.668 6.669 6.656 6.656 0 01-6.668 6.669H270.83c-103.111 0-187.006 84.11-187.006 187.437 0 103.327 83.895 187.437 187.006 187.437 103.113 0 187.438-84.11 187.438-187.437v-11.688a6.656 6.656 0 016.668-6.669c3.729 0 6.669 2.94 6.669 6.669v11.688c0 110.713-90.062 200.774-200.775 200.774z"/><path d="M114.8 484.727a6.441 6.441 0 01-3.872-1.291C77.37 459.2 49.477 427.004 30.331 390.363 10.47 352.503 0 309.766 0 266.815c0-59.372 19.074-115.589 55.213-162.556 2.223-2.94 6.382-3.442 9.322-1.219 2.94 2.223 3.442 6.382 1.219 9.322-34.347 44.672-52.489 98.093-52.489 154.525 0 40.8 9.968 81.385 28.754 117.381 18.213 34.849 44.744 65.395 76.653 88.484 2.94 2.151 3.657 6.31 1.506 9.25-1.291 1.793-3.299 2.725-5.378 2.725z"/></g></svg>