<svg width="48" height="46" viewBox="0 0 48 46" fill="none" xmlns="http://www.w3.org/2000/svg"><g clip-path="url(#clip0_9_411)"><path d="M27.523 45.356C14.306 45.348 3.603 34.63 3.611 21.413c0-9.116 5.19-17.442 13.37-21.459a.704.704 0 01.629 1.257C6.44 6.716 1.848 20.24 7.345 31.411a22.56 22.56 0 0020.178 12.588c3.266.023 6.486-.69 9.438-2.1a.7.7 0 01.629 1.25 23.892 23.892 0 01-10.067 2.207z" fill="#00AEEF"/><path d="M11.945 43.73a.652.652 0 01-.414-.16 27.499 27.499 0 01-8.395-9.699A27.892 27.892 0 010 21.037 27.617 27.617 0 015.758 4.102a.68.68 0 01.95-.123.67.67 0 01.123.943 26.585 26.585 0 00-2.484 28.382 27.005 27.005 0 007.973 9.223.658.658 0 01.154.935.657.657 0 01-.53.269z" fill="#FFF200"/><path d="M27.899 42.029c-1.372 0-2.576-.123-3.48-.322-11.263-2.484-18.416-13.67-15.924-24.94C10.703 6.77 19.052.054 29.256.054c1.679 0 3.58 0 5.543.299a.68.68 0 01.575.782.68.68 0 01-.782.575c-1.863-.284-3.703-.284-5.336-.284-9.545 0-17.35 6.287-19.42 15.632-2.315 10.519 4.347 20.969 14.881 23.292 2.737.605 8.794.383 13.126-2.017 4.554-2.514 6.938-5.543 8.134-7.636a.69.69 0 011.196.69c-1.288 2.247-3.833 5.49-8.663 8.158-3.29 1.817-7.399 2.484-10.611 2.484z" fill="#EC008C"/></g><defs><clipPath id="clip0_9_411"><rect width="47.533" height="46" fill="#fff"/></clipPath></defs></svg>