<svg width="47" height="200" viewBox="0 0 47 200" fill="none" xmlns="http://www.w3.org/2000/svg"><mask id="a" style="mask-type:alpha" maskUnits="userSpaceOnUse" x="-1" y="-1" width="48" height="202"><path d="M46.948 0H0v200h46.948V0z" fill="#fff"/><path d="M46.48.47H.47v199.06h46.01V.47z" stroke="#707070"/></mask><g mask="url(#a)"><path d="M15.643 204.883h15.409a.241.241 0 00.244-.235v-14.779a.24.24 0 00-.244-.235H15.643a.232.232 0 00-.234.235v14.779c0 .131.103.235.234.235zm15.174-.479h-14.93v-14.291h14.93v14.291z" fill="#3271B2"/><path d="M31.052 204.883a.241.241 0 00.244-.235v-14.779a.24.24 0 00-.244-.235H15.643a.232.232 0 00-.234.235v14.779c0 .131.103.235.234.235h15.409zm-15.164-.479v-14.291h14.93v14.291h-14.93z" stroke="#3271B2" stroke-width=".5"/><path d="M15.644 190.112h15.408a.257.257 0 00.122-.028l9.268-5.371a.228.228 0 00.112-.263.24.24 0 00-.234-.187H6.376a.238.238 0 00-.225.187.228.228 0 00.112.263l9.268 5.371a.22.22 0 00.113.028zm15.342-.478H15.71l-8.432-4.883h32.141l-8.432 4.883z" fill="#3271B2"/><path d="M31.052 190.112a.257.257 0 00.122-.028l9.268-5.371a.228.228 0 00.112-.263.24.24 0 00-.234-.187H6.376a.238.238 0 00-.225.187.228.228 0 00.112.263l9.268 5.371a.22.22 0 00.113.028h15.408zm-15.343-.478l-8.432-4.883h32.141l-8.432 4.883H15.71z" stroke="#3271B2" stroke-width=".5"/><path d="M4.085 184.751H42.62a.24.24 0 00.235-.244v-3.446a.24.24 0 00-.235-.244H4.085a.249.249 0 00-.244.244v3.446c0 .131.112.244.244.244zm38.291-.488H4.32v-2.958h38.056v2.958z" fill="#3271B2"/><path d="M42.62 184.751a.24.24 0 00.235-.244v-3.446a.24.24 0 00-.235-.244H4.085a.249.249 0 00-.244.244v3.446c0 .131.112.244.244.244H42.62zm-38.3-.488v-2.958h38.056v2.958H4.32z" stroke="#3271B2" stroke-width=".5"/><path d="M44.855 181.061H1.84l-.666-6.563H45.53l-.676 6.563z" fill="#00AEEF"/><path d="M1.84 181.305h43.015c.131 0 .225-.094.244-.225l.667-6.564a.235.235 0 00-.057-.187.257.257 0 00-.178-.076H1.174a.226.226 0 00-.178.076.245.245 0 00-.066.187l.676 6.564c.01.131.113.225.235.225zm42.799-.488H2.057l-.62-6.085h43.831l-.63 6.085z" fill="#3271B2"/><path d="M44.855 181.305c.131 0 .225-.094.244-.225l.667-6.564a.235.235 0 00-.057-.187.257.257 0 00-.178-.076H1.174a.226.226 0 00-.178.076.245.245 0 00-.066.187l.676 6.564c.01.131.113.225.235.225h43.014zm-42.798-.488l-.62-6.085h43.831l-.63 6.085H2.058z" stroke="#3271B2" stroke-width=".5"/><path d="M.104 164.047H46.6l-.648 6.357H.751l-.647-6.357z" fill="#00AEEF"/><path d="M.751 170.648h45.202c.122 0 .216-.094.235-.226l.648-6.347a.277.277 0 00-.056-.188.256.256 0 00-.179-.075H.104a.256.256 0 00-.179.075.286.286 0 00-.066.188l.648 6.347c.019.132.122.226.244.226zm44.986-.489H.967l-.6-5.868h45.962l-.592 5.868z" fill="#3271B2"/><path d="M45.953 170.648c.122 0 .216-.094.235-.226l.648-6.347a.277.277 0 00-.056-.188.256.256 0 00-.179-.075H.104a.256.256 0 00-.179.075.286.286 0 00-.066.188l.648 6.347c.019.132.122.226.244.226h45.202zm-44.986-.489l-.6-5.868h45.962l-.592 5.868H.967z" stroke="#3271B2" stroke-width=".5"/><path d="M1.165 174.732H45.53a.234.234 0 00.235-.216l.422-4.093a.215.215 0 00-.066-.179c-.037-.056-.103-.084-.178-.084H.75a.232.232 0 00-.178.084.249.249 0 00-.066.179l.423 4.093c.01.123.113.216.235.216zm44.15-.478H1.38l-.367-3.615H45.68l-.366 3.615z" fill="#3271B2"/><path d="M45.53 174.732a.234.234 0 00.236-.216l.422-4.093a.215.215 0 00-.066-.179c-.037-.056-.103-.084-.178-.084H.75a.232.232 0 00-.178.084.249.249 0 00-.066.179l.423 4.093c.01.123.113.216.235.216H45.53zm-44.15-.478l-.366-3.615h44.667l-.366 3.615H1.38z" stroke="#3271B2" stroke-width=".5"/><path d="M1.587 159.85v-2.15c0-2.367 1.897-4.282 4.235-4.282h35.06c2.339 0 4.226 1.915 4.226 4.282v2.15H1.587z" fill="#00AEEF"/><path d="M1.587 160.094h43.521a.242.242 0 00.245-.244v-2.15c0-2.489-2.01-4.517-4.47-4.517H5.822c-2.47 0-4.47 2.028-4.47 4.517v2.15c0 .141.104.244.235.244zm43.287-.479H1.83V157.7c0-2.226 1.784-4.038 3.991-4.038h35.061c2.197 0 3.99 1.812 3.99 4.038v1.915z" fill="#3271B2"/><path d="M45.108 160.094a.242.242 0 00.245-.244v-2.15c0-2.489-2.01-4.517-4.47-4.517H5.822c-2.47 0-4.47 2.028-4.47 4.517v2.15c0 .141.104.244.235.244h43.521zm-43.277-.479V157.7c0-2.226 1.784-4.038 3.991-4.038h35.061c2.197 0 3.99 1.812 3.99 4.038v1.915H1.832z" stroke="#3271B2" stroke-width=".5"/><path d="M.751 164.291h45.202a.235.235 0 00.235-.244v-4.197a.233.233 0 00-.235-.235H.751a.241.241 0 00-.244.235v4.197c0 .141.113.244.244.244zm44.958-.479H.986v-3.718H45.71v3.718z" fill="#3271B2"/><path d="M45.953 164.291a.235.235 0 00.235-.244v-4.197a.233.233 0 00-.235-.235H.751a.241.241 0 00-.244.235v4.197c0 .141.113.244.244.244h45.202zm-44.967-.479v-3.718H45.71v3.718H.986z" stroke="#3271B2" stroke-width=".5"/><path d="M25.43 81.567h-4.15v71.861h4.15v-71.86z" fill="#fff"/><path d="M21.277 153.662h4.15a.235.235 0 00.235-.244v-71.86a.232.232 0 00-.234-.234h-4.15a.24.24 0 00-.245.234v71.86c0 .14.113.244.244.244zm3.906-.479h-3.67v-71.38h3.67v71.38z" fill="#3271B2"/><path d="M25.428 153.662a.235.235 0 00.234-.244v-71.86a.232.232 0 00-.234-.234h-4.15a.24.24 0 00-.245.234v71.86c0 .14.113.244.244.244h4.15zm-3.916-.479v-71.38h3.671v71.38h-3.67z" stroke="#3271B2" stroke-width=".5"/><path d="M25.43 75.262h-4.15v6.306h4.15v-6.306z" fill="#fff"/><path d="M21.277 81.803h4.15a.232.232 0 00.235-.235v-6.31a.24.24 0 00-.234-.244h-4.15a.249.249 0 00-.245.244v6.31a.24.24 0 00.244.235zm3.906-.479h-3.67v-5.822h3.67v5.822z" fill="#3271B2"/><path d="M25.428 81.803a.232.232 0 00.234-.235v-6.31a.24.24 0 00-.234-.244h-4.15a.249.249 0 00-.245.244v6.31a.24.24 0 00.244.235h4.15zm-3.916-.479v-5.822h3.671v5.822h-3.67z" stroke="#3271B2" stroke-width=".5"/><path d="M25.43 68.269h-4.15v1.51h4.15v-1.51z" fill="#fff"/><path d="M21.277 70.019h4.15a.24.24 0 00.235-.245v-1.511a.24.24 0 00-.234-.244h-4.15a.249.249 0 00-.245.244v1.511a.25.25 0 00.244.245zm3.906-.489h-3.67v-1.023h3.67v1.023z" fill="#3271B2"/><path d="M25.428 70.019a.24.24 0 00.234-.245v-1.511a.24.24 0 00-.234-.244h-4.15a.249.249 0 00-.245.244v1.511a.25.25 0 00.244.245h4.15zm-3.916-.489v-1.023h3.671v1.023h-3.67z" stroke="#3271B2" stroke-width=".5"/><path d="M27.071 69.78h-7.433v5.482h7.433V69.78z" fill="#fff"/><path d="M19.634 75.503h7.436a.24.24 0 00.235-.245v-5.483a.24.24 0 00-.235-.244h-7.436a.249.249 0 00-.244.244v5.483c0 .132.112.245.244.245zm7.192-.489H19.87V70.02h6.957v4.995z" fill="#3271B2"/><path d="M27.07 75.503a.24.24 0 00.235-.245v-5.483a.24.24 0 00-.235-.244h-7.436a.249.249 0 00-.244.244v5.483c0 .132.112.245.244.245h7.436zm-7.201-.489V70.02h6.957v4.995H19.87z" stroke="#3271B2" stroke-width=".5"/><path d="M25.43 61.275h-4.15v1.51h4.15v-1.51z" fill="#fff"/><path d="M21.277 63.023h4.15a.24.24 0 00.235-.244v-1.512a.232.232 0 00-.234-.234h-4.15a.24.24 0 00-.245.234v1.512c0 .132.113.244.244.244zm3.906-.479h-3.67v-1.032h3.67v1.032z" fill="#3271B2"/><path d="M25.428 63.023a.24.24 0 00.234-.244v-1.512a.232.232 0 00-.234-.234h-4.15a.24.24 0 00-.245.234v1.512c0 .132.113.244.244.244h4.15zm-3.916-.479v-1.032h3.671v1.032h-3.67z" stroke="#3271B2" stroke-width=".5"/><path d="M27.071 62.786h-7.433v5.482h7.433v-5.482z" fill="#fff"/><path d="M19.634 68.507h7.436a.24.24 0 00.235-.244v-5.484a.232.232 0 00-.235-.235h-7.436a.24.24 0 00-.244.235v5.484c0 .131.112.244.244.244zm7.192-.488H19.87v-4.996h6.957v4.996z" fill="#3271B2"/><path d="M27.07 68.507a.24.24 0 00.235-.244v-5.484a.232.232 0 00-.235-.235h-7.436a.24.24 0 00-.244.235v5.484c0 .131.112.244.244.244h7.436zm-7.201-.488v-4.996h6.957v4.996H19.87z" stroke="#3271B2" stroke-width=".5"/><path d="M25.43 54.283h-4.15v1.51h4.15v-1.51z" fill="#fff"/><path d="M21.277 56.028h4.15a.235.235 0 00.235-.244v-1.502a.235.235 0 00-.234-.244h-4.15a.242.242 0 00-.245.244v1.502c0 .14.113.244.244.244zm3.906-.479h-3.67v-1.032h3.67v1.032z" fill="#3271B2"/><path d="M25.428 56.028a.235.235 0 00.234-.244v-1.502a.235.235 0 00-.234-.244h-4.15a.242.242 0 00-.245.244v1.502c0 .14.113.244.244.244h4.15zm-3.916-.479v-1.032h3.671v1.032h-3.67z" stroke="#3271B2" stroke-width=".5"/><path d="M27.071 55.794h-7.433v5.482h7.433v-5.483z" fill="#fff"/><path d="M19.634 61.512h7.436a.235.235 0 00.235-.244v-5.484a.232.232 0 00-.235-.235h-7.436a.24.24 0 00-.244.235v5.484c0 .14.112.244.244.244zm7.192-.48H19.87v-5.004h6.957v5.005z" fill="#3271B2"/><path d="M27.07 61.512a.235.235 0 00.235-.244v-5.484a.232.232 0 00-.235-.235h-7.436a.24.24 0 00-.244.235v5.484c0 .14.112.244.244.244h7.436zm-7.201-.48v-5.004h6.957v5.005H19.87z" stroke="#3271B2" stroke-width=".5"/><path d="M25.43 47.29h-4.15v1.51h4.15v-1.51z" fill="#fff"/><path d="M21.277 49.042h4.15a.24.24 0 00.235-.244v-1.511a.24.24 0 00-.234-.245h-4.15a.249.249 0 00-.245.245v1.511c0 .132.113.244.244.244zm3.906-.488h-3.67v-1.023h3.67v1.023z" fill="#3271B2"/><path d="M25.428 49.042a.24.24 0 00.234-.244v-1.511a.24.24 0 00-.234-.245h-4.15a.249.249 0 00-.245.245v1.511c0 .132.113.244.244.244h4.15zm-3.916-.488v-1.023h3.671v1.023h-3.67z" stroke="#3271B2" stroke-width=".5"/><path d="M19.634 54.517h7.436a.232.232 0 00.235-.235v-5.484a.24.24 0 00-.235-.244h-7.436a.249.249 0 00-.244.244v5.484a.24.24 0 00.244.235zm7.192-.48H19.87v-5.004h6.957v5.005z" fill="#3271B2"/><path d="M27.07 54.517a.232.232 0 00.235-.235v-5.484a.24.24 0 00-.235-.244h-7.436a.249.249 0 00-.244.244v5.484a.24.24 0 00.244.235h7.436zm-7.201-.48v-5.004h6.957v5.005H19.87z" stroke="#3271B2" stroke-width=".5"/><path d="M25.43 40.296h-4.15v1.51h4.15v-1.51z" fill="#fff"/><path d="M21.277 42.047h4.15a.24.24 0 00.235-.244V40.29a.24.24 0 00-.234-.244h-4.15a.249.249 0 00-.245.244v1.512c0 .131.113.244.244.244zm3.906-.488h-3.67v-1.024h3.67v1.024z" fill="#3271B2"/><path d="M25.428 42.047a.24.24 0 00.234-.244V40.29a.24.24 0 00-.234-.244h-4.15a.249.249 0 00-.245.244v1.512c0 .131.113.244.244.244h4.15zm-3.916-.488v-1.024h3.671v1.024h-3.67z" stroke="#3271B2" stroke-width=".5"/><path d="M27.071 41.807h-7.433v5.482h7.433v-5.482z" fill="#fff"/><path d="M19.634 47.53h7.436a.24.24 0 00.235-.244v-5.483a.24.24 0 00-.235-.244h-7.436a.249.249 0 00-.244.244v5.483c0 .132.112.244.244.244zm7.192-.488H19.87v-4.995h6.957v4.995z" fill="#3271B2"/><path d="M27.07 47.53a.24.24 0 00.235-.244v-5.483a.24.24 0 00-.235-.244h-7.436a.249.249 0 00-.244.244v5.483c0 .132.112.244.244.244h7.436zm-7.201-.488v-4.995h6.957v4.995H19.87z" stroke="#3271B2" stroke-width=".5"/><path d="M25.43 33.303h-4.15v1.51h4.15v-1.51z" fill="#fff"/><path d="M21.277 35.052h4.15a.24.24 0 00.235-.245v-1.511a.232.232 0 00-.234-.235h-4.15a.24.24 0 00-.245.235v1.511a.25.25 0 00.244.245zm3.906-.489h-3.67V33.54h3.67v1.023z" fill="#3271B2"/><path d="M25.428 35.052a.24.24 0 00.234-.245v-1.511a.232.232 0 00-.234-.235h-4.15a.24.24 0 00-.245.235v1.511a.25.25 0 00.244.245h4.15zm-3.916-.489V33.54h3.671v1.023h-3.67z" stroke="#3271B2" stroke-width=".5"/><path d="M27.071 34.815h-7.433v5.482h7.433v-5.482z" fill="#fff"/><path d="M19.634 40.535h7.436a.24.24 0 00.235-.244v-5.483a.24.24 0 00-.235-.245h-7.436a.249.249 0 00-.244.245v5.483c0 .132.112.244.244.244zm7.192-.488H19.87v-4.995h6.957v4.995z" fill="#3271B2"/><path d="M27.07 40.535a.24.24 0 00.235-.244v-5.483a.24.24 0 00-.235-.245h-7.436a.249.249 0 00-.244.245v5.483c0 .132.112.244.244.244h7.436zm-7.201-.488v-4.995h6.957v4.995H19.87z" stroke="#3271B2" stroke-width=".5"/><path d="M29.328 30.946H17.38v2.358h11.948v-2.358z" fill="#fff"/><path d="M17.371 33.54h11.953a.235.235 0 00.235-.244v-2.357a.232.232 0 00-.235-.235H17.371a.232.232 0 00-.235.235v2.357c0 .14.104.244.235.244zm11.709-.48H17.615v-1.877H29.08v1.878z" fill="#3271B2"/><path d="M29.324 33.54a.235.235 0 00.235-.244v-2.357a.232.232 0 00-.235-.235H17.371a.232.232 0 00-.235.235v2.357c0 .14.104.244.235.244h11.953zm-11.709-.48v-1.877H29.08v1.878H17.615z" stroke="#3271B2" stroke-width=".5"/><path d="M27.071 28.587h-7.433v2.359h7.433v-2.359z" fill="#fff"/><path d="M19.634 31.183h7.436a.24.24 0 00.235-.244v-2.357a.24.24 0 00-.235-.244h-7.436a.249.249 0 00-.244.244v2.357c0 .131.112.244.244.244zm7.192-.479H19.87v-1.878h6.957v1.878z" fill="#3271B2"/><path d="M27.07 31.183a.24.24 0 00.235-.244v-2.357a.24.24 0 00-.235-.244h-7.436a.249.249 0 00-.244.244v2.357c0 .131.112.244.244.244h7.436zm-7.201-.479v-1.878h6.957v1.878H19.87z" stroke="#3271B2" stroke-width=".5"/><path d="M25.15 8.748h-3.59v19.839h3.59V8.748z" fill="#fff"/><path d="M21.56 28.826h3.586a.24.24 0 00.235-.244V8.742a.24.24 0 00-.235-.244h-3.587a.242.242 0 00-.244.244v19.84c0 .131.103.244.244.244zm3.342-.488h-3.108V8.986h3.108v19.352z" fill="#3271B2"/><path d="M25.146 28.826a.24.24 0 00.235-.244V8.742a.24.24 0 00-.235-.244h-3.587a.242.242 0 00-.244.244v19.84c0 .131.103.244.244.244h3.587zm-3.352-.488V8.986h3.108v19.352h-3.108z" stroke="#3271B2" stroke-width=".5"/><path d="M24.244 2.734h-1.78v6.014h1.78V2.734z" fill="#fff"/><path d="M22.46 8.986h1.784a.24.24 0 00.235-.244v-6.01a.24.24 0 00-.235-.244H22.46a.249.249 0 00-.244.244v6.01c0 .131.113.244.244.244zM24 8.498h-1.305v-5.53H24v5.53z" fill="#3271B2"/><path d="M24.244 8.986a.24.24 0 00.235-.244v-6.01a.24.24 0 00-.235-.244H22.46a.249.249 0 00-.244.244v6.01c0 .131.113.244.244.244h1.784zm-1.549-.488v-5.53H24v5.53h-1.305z" stroke="#3271B2" stroke-width=".5"/><path d="M32.864 81.567h-4.15v71.861h4.15v-71.86z" fill="#fff"/><path d="M28.714 153.662h4.15a.235.235 0 00.235-.244v-71.86a.232.232 0 00-.235-.234h-4.15a.235.235 0 00-.244.234v71.86c0 .14.103.244.244.244zm3.906-.479h-3.671v-71.38h3.671v71.38z" fill="#3271B2"/><path d="M32.864 153.662a.235.235 0 00.235-.244v-71.86a.232.232 0 00-.235-.234h-4.15a.235.235 0 00-.244.234v71.86c0 .14.103.244.244.244h4.15zm-3.915-.479v-71.38h3.671v71.38h-3.671z" stroke="#3271B2" stroke-width=".5"/><path d="M17.995 81.567h-4.15v71.861h4.15v-71.86z" fill="#fff"/><path d="M13.84 153.662h4.15a.235.235 0 00.236-.244v-71.86a.233.233 0 00-.235-.234h-4.15a.232.232 0 00-.235.234v71.86c0 .14.103.244.235.244zm3.916-.479h-3.671v-71.38h3.671v71.38z" fill="#3271B2"/><path d="M17.99 153.662a.235.235 0 00.236-.244v-71.86a.233.233 0 00-.235-.234h-4.15a.232.232 0 00-.235.234v71.86c0 .14.103.244.235.244h4.15zm-3.905-.479v-71.38h3.671v71.38h-3.671z" stroke="#3271B2" stroke-width=".5"/><path d="M28.713 81.568h-3.284v5.808h3.284v-5.808z" fill="#fff"/><path d="M25.427 87.615h3.287a.24.24 0 00.234-.244v-5.813a.233.233 0 00-.234-.234h-3.287a.24.24 0 00-.244.234v5.813c0 .131.113.244.244.244zm3.043-.489h-2.808v-5.323h2.808v5.323z" fill="#3271B2"/><path d="M28.714 87.615a.24.24 0 00.234-.244v-5.813a.233.233 0 00-.234-.234h-3.287a.24.24 0 00-.244.234v5.813c0 .131.113.244.244.244h3.287zm-3.052-.489v-5.323h2.808v5.323h-2.808z" stroke="#3271B2" stroke-width=".5"/><path d="M21.279 81.568h-3.284v5.808h3.284v-5.808z" fill="#fff"/><path d="M17.99 87.615h3.287a.24.24 0 00.235-.244v-5.813a.232.232 0 00-.235-.234h-3.286a.24.24 0 00-.244.234v5.813c0 .131.112.244.244.244zm3.043-.489h-2.808v-5.323h2.808v5.323z" fill="#3271B2"/><path d="M21.277 87.615a.24.24 0 00.235-.244v-5.813a.232.232 0 00-.235-.234h-3.286a.24.24 0 00-.244.234v5.813c0 .131.112.244.244.244h3.286zm-3.052-.489v-5.323h2.808v5.323h-2.808z" stroke="#3271B2" stroke-width=".5"/><path d="M28.713 114.595h-3.284v5.808h3.284v-5.808z" fill="#fff"/><path d="M25.427 120.639h3.287a.235.235 0 00.234-.244v-5.803a.24.24 0 00-.234-.244h-3.287a.248.248 0 00-.244.244v5.803c0 .14.113.244.244.244zm3.043-.479h-2.808v-5.324h2.808v5.324z" fill="#3271B2"/><path d="M28.714 120.639a.235.235 0 00.234-.244v-5.803a.24.24 0 00-.234-.244h-3.287a.248.248 0 00-.244.244v5.803c0 .14.113.244.244.244h3.287zm-3.052-.479v-5.324h2.808v5.324h-2.808z" stroke="#3271B2" stroke-width=".5"/><path d="M21.279 114.595h-3.284v5.808h3.284v-5.808z" fill="#fff"/><path d="M17.99 120.639h3.287a.235.235 0 00.235-.244v-5.803a.24.24 0 00-.235-.244h-3.286a.248.248 0 00-.244.244v5.803c0 .14.112.244.244.244zm3.043-.479h-2.808v-5.324h2.808v5.324z" fill="#3271B2"/><path d="M21.277 120.639a.235.235 0 00.235-.244v-5.803a.24.24 0 00-.235-.244h-3.286a.248.248 0 00-.244.244v5.803c0 .14.112.244.244.244h3.286zm-3.052-.479v-5.324h2.808v5.324h-2.808z" stroke="#3271B2" stroke-width=".5"/><path d="M28.713 147.623h-3.284v5.807h3.284v-5.807z" fill="#fff"/><path d="M25.427 153.662h3.287a.232.232 0 00.234-.235v-5.812a.233.233 0 00-.234-.235h-3.287a.241.241 0 00-.244.235v5.812a.24.24 0 00.244.235zm3.043-.479h-2.808v-5.324h2.808v5.324z" fill="#3271B2"/><path d="M28.714 153.662a.232.232 0 00.234-.235v-5.812a.233.233 0 00-.234-.235h-3.287a.241.241 0 00-.244.235v5.812a.24.24 0 00.244.235h3.287zm-3.052-.479v-5.324h2.808v5.324h-2.808z" stroke="#3271B2" stroke-width=".5"/><path d="M21.279 147.623h-3.284v5.807h3.284v-5.807z" fill="#fff"/><path d="M17.99 153.662h3.287a.232.232 0 00.235-.235v-5.812a.233.233 0 00-.235-.235h-3.286a.241.241 0 00-.244.235v5.812a.24.24 0 00.244.235zm3.043-.479h-2.808v-5.324h2.808v5.324z" fill="#3271B2"/><path d="M21.277 153.662a.232.232 0 00.235-.235v-5.812a.233.233 0 00-.235-.235h-3.286a.241.241 0 00-.244.235v5.812a.24.24 0 00.244.235h3.286zm-3.052-.479v-5.324h2.808v5.324h-2.808z" stroke="#3271B2" stroke-width=".5"/></g></svg>