<svg width="31" height="31" viewBox="0 0 31 31" fill="none" xmlns="http://www.w3.org/2000/svg"><path fill-rule="evenodd" clip-rule="evenodd" d="M15.221 30.443c8.407 0 15.222-6.815 15.222-15.222C30.443 6.815 23.628 0 15.22 0 6.815 0 0 6.815 0 15.221c0 8.407 6.815 15.222 15.221 15.222zM8.84 12.389h2.904v9.474H8.84V12.39zm1.468-4.675A1.707 1.707 0 118.62 9.391a1.697 1.697 0 011.687-1.677zm6.153 4.675h-2.832v9.485h2.946v-4.685c0-1.24.24-2.437 1.77-2.437s1.53 1.468 1.53 2.51v4.612h2.905v-5.206c0-2.55-.552-4.508-3.53-4.508a3.122 3.122 0 00-2.79 1.52v-1.291z" fill="#00AEEF"/></svg>