<svg width="70" height="70" viewBox="0 0 70 70" fill="none" xmlns="http://www.w3.org/2000/svg"><g clip-path="url(#clip0_106_3161)"><path d="M35 70c19.33 0 35-15.67 35-35S54.33 0 35 0 0 15.67 0 35s15.67 35 35 35z" fill="#E0027A"/><path d="M28.801 29.936h3.702l2.49 2.482 2.48-2.482h3.703c.933 0 1.687-.754 1.687-1.687v-8.44c0-.925-.754-1.68-1.688-1.687H28.801a1.696 1.696 0 00-1.688 1.688v8.439c0 .933.755 1.688 1.688 1.688zm-.56-10.126c0-.311.249-.56.56-.56h12.375c.31 0 .56.249.56.56v8.439c0 .31-.25.56-.56.56h-4.17l-2.014 2.014-2.022-2.014H28.8a.558.558 0 01-.56-.56v-8.44zm11.395 22.128l-2.971-.996a3.353 3.353 0 001.695-2.924v-1.136a3.376 3.376 0 00-3.368-3.375 3.378 3.378 0 00-3.375 3.375v1.136c0 1.206.645 2.325 1.695 2.924l-2.97.996a2.25 2.25 0 00-1.54 2.131v7.786h1.127v-7.786c0-.482.311-.91.77-1.066l4.293-1.43 4.286 1.43c.467.156.77.584.77 1.066v7.786h1.128v-7.786a2.25 2.25 0 00-1.54-2.131zM35.7 40.149l-.708.241-.715-.24a2.25 2.25 0 01-1.54-2.132v-1.136a2.256 2.256 0 012.255-2.247 2.254 2.254 0 012.248 2.247v1.136a2.25 2.25 0 01-1.54 2.131z" fill="#F7F9FC"/><path d="M37.8 45.103h1.12v6.752H37.8v-6.752zm-6.743 0h1.12v6.752h-1.12v-6.752zm19.685-.793l-1.851-.677a2.825 2.825 0 001.276-2.356v-.405a2.81 2.81 0 00-1.556-2.52 2.85 2.85 0 00-2.512 0 2.797 2.797 0 00-1.556 2.52v.405c0 .948.483 1.835 1.276 2.356l-1.851.677a1.677 1.677 0 00-1.113 1.579v5.965h1.12V45.89c0-.233.156-.444.374-.521l3.002-1.097 3.01 1.097a.555.555 0 01.366.52v5.966h1.127V45.89c0-.708-.443-1.338-1.112-1.579zm-2.815-1.447l-.576.21-.575-.21a1.702 1.702 0 01-1.113-1.586v-.405a1.687 1.687 0 113.376 0v.405a1.68 1.68 0 01-1.112 1.586z" fill="#F7F9FC"/><path d="M48.479 47.352h1.128v4.503h-1.128v-4.503zm-3.376 0h1.128v4.503h-1.128v-4.503zM26.009 44.31l-1.851-.677a2.825 2.825 0 001.275-2.356v-.405a2.803 2.803 0 00-1.548-2.52 2.867 2.867 0 00-2.52 0 2.81 2.81 0 00-1.555 2.52v.405a2.844 2.844 0 001.275 2.356l-1.85.677a1.699 1.699 0 00-1.113 1.579v5.965h1.128V45.89c0-.233.148-.444.373-.521l3.002-1.097 3.003 1.097a.551.551 0 01.373.52v5.966h1.12V45.89c0-.708-.443-1.338-1.112-1.579zM23.2 42.863l-.576.21-.575-.21a1.68 1.68 0 01-1.112-1.586v-.405a1.686 1.686 0 113.376 0v.405a1.68 1.68 0 01-1.113 1.586z" fill="#F7F9FC"/><path d="M23.746 47.352h1.127v4.503h-1.127v-4.503zm-3.368 0h1.12v4.503h-1.12v-4.503zm4.495-15.176v-1.688h1.688v-1.12h-1.688v-1.687h-1.128v1.687h-1.68v1.12h1.68v1.688h1.128zm8.991-8.197l1.688 1.688 3.376-3.376v1.455h1.12v-3.368H36.68v1.12h1.447l-2.575 2.582-1.688-1.688-4.332 4.333.794.793 3.538-3.539z" fill="#F7F9FC"/><path d="M19.81 34.992h2.535l1.968 2.621 1.968-2.621h2.528c.933 0 1.688-.755 1.688-1.688v-2.248h-1.128v2.248c0 .311-.25.56-.56.56H25.72l-1.408 1.875-1.408-1.875H19.81a.558.558 0 01-.56-.56v-6.751c0-.311.249-.56.56-.56H26v-1.128h-6.19a1.701 1.701 0 00-1.688 1.688v6.751c0 .933.762 1.688 1.688 1.688zm25.293-2.816h1.128v-1.688h1.688v-1.12H46.23v-1.687h-1.128v1.687h-1.688v1.12h1.688v1.688z" fill="#F7F9FC"/><path d="M50.167 24.865h-6.192v1.128h6.192c.31 0 .56.249.56.56v6.751c0 .311-.25.56-.56.56H47.07l-1.408 1.875-1.4-1.875h-3.095a.558.558 0 01-.56-.56v-2.248H39.48v2.248c0 .933.754 1.688 1.688 1.688h2.528l1.967 2.621 1.968-2.621h2.536c.933 0 1.687-.755 1.687-1.688v-6.751c0-.925-.754-1.68-1.687-1.688z" fill="#F7F9FC"/></g><defs><clipPath id="clip0_106_3161"><rect width="70" height="70" fill="#fff"/></clipPath></defs></svg>