<svg width="16" height="16" viewBox="0 0 16 16" fill="none" xmlns="http://www.w3.org/2000/svg"><g clip-path="url(#clip0_67_12910)"><path d="M13.34 10.253c-.82 0-1.613-.133-2.353-.373a.652.652 0 00-.674.16l-1.046 1.313c-1.887-.9-3.654-2.6-4.594-4.553l1.3-1.107a.68.68 0 00.16-.68A7.435 7.435 0 015.76 2.66c0-.36-.3-.66-.66-.66H2.793C2.433 2 2 2.16 2 2.66 2 8.853 7.153 14 13.34 14c.473 0 .66-.42.66-.787v-2.3c0-.36-.3-.66-.66-.66z" fill="#AAAEB3"/></g><defs><clipPath id="clip0_67_12910"><rect width="16" height="16" fill="#fff"/></clipPath></defs></svg>