<svg width="70" height="70" viewBox="0 0 70 70" fill="none" xmlns="http://www.w3.org/2000/svg"><g clip-path="url(#clip0_106_3223)"><path d="M35 70c19.33 0 35-15.67 35-35S54.33 0 35 0 0 15.67 0 35s15.67 35 35 35z" fill="#52B6D2"/><path d="M41.821 47.95a.522.522 0 01-.218-.047c-.272-.116-6.564-2.83-6.564-8.384v-4.73c0-.24.155-.45.38-.528l6.215-2.1a.587.587 0 01.366 0l6.214 2.1c.226.07.382.288.382.529v4.729c0 5.553-6.293 8.268-6.557 8.384a.55.55 0 01-.218.047zm-5.654-12.748v4.317c0 4.27 4.58 6.728 5.654 7.24 1.066-.512 5.647-2.978 5.647-7.24v-4.317L41.82 33.29l-5.654 1.913z" fill="#F7F9FC"/><path d="M41.253 42.296a.632.632 0 01-.443-.21l-2.256-2.824a.566.566 0 01.086-.793.566.566 0 01.793.086l1.867 2.333 3.508-3.508a.573.573 0 01.801 0 .573.573 0 010 .801l-3.959 3.951a.54.54 0 01-.397.164zm1.128-12.429H25.433a3.957 3.957 0 01-3.95-3.951 3.958 3.958 0 013.95-3.959h16.948a3.96 3.96 0 013.959 3.959 3.958 3.958 0 01-3.959 3.951zm-16.948-6.774a2.828 2.828 0 00-2.823 2.823 2.828 2.828 0 002.823 2.823h16.948a2.823 2.823 0 100-5.646H25.433z" fill="#F7F9FC"/><path d="M26.569 27.61a1.694 1.694 0 110-3.39c.933 0 1.688.762 1.688 1.695 0 .934-.755 1.696-1.688 1.696zm0-2.262a.566.566 0 00-.568.567c0 .311.249.568.568.568a.57.57 0 00.56-.568.57.57 0 00-.56-.567zm5.647 2.262a1.7 1.7 0 01-1.696-1.695 1.7 1.7 0 011.696-1.695 1.7 1.7 0 011.695 1.695 1.7 1.7 0 01-1.695 1.696zm0-2.262a.571.571 0 00-.568.567.57.57 0 00.568.568.571.571 0 00.567-.568.571.571 0 00-.567-.567zm-.001 11.302h-6.782a3.958 3.958 0 01-3.95-3.96 3.93 3.93 0 011.158-2.792 3.918 3.918 0 012.792-1.159h16.948c.887 0 1.719.288 2.403.817a.562.562 0 01.102.793.561.561 0 01-.794.101 2.76 2.76 0 00-1.71-.583h-16.95c-.754 0-1.462.296-1.999.832a2.813 2.813 0 00-.824 1.991 2.83 2.83 0 002.823 2.832h6.782c.312 0 .56.248.56.56a.564.564 0 01-.56.567z" fill="#F7F9FC"/><path d="M26.569 34.385a1.688 1.688 0 01-1.696-1.688 1.69 1.69 0 011.696-1.695c.933 0 1.688.754 1.688 1.695 0 .934-.755 1.688-1.688 1.688zm0-2.255a.564.564 0 10.56.568.57.57 0 00-.56-.568zm5.647 2.255a1.693 1.693 0 01-1.696-1.688 1.694 1.694 0 113.391 0c0 .934-.762 1.688-1.695 1.688zm0-2.255a.571.571 0 00-.568.567c0 .304.256.56.568.56a.57.57 0 00.567-.56.571.571 0 00-.567-.567zm-.001 11.301h-6.782a3.958 3.958 0 01-3.95-3.958c0-1.05.411-2.046 1.158-2.793a3.918 3.918 0 012.792-1.158h6.782c.312 0 .56.248.56.56a.564.564 0 01-.56.567h-6.782c-.754 0-1.462.296-1.999.825a2.828 2.828 0 001.999 4.822h6.782c.312 0 .56.257.56.568a.564.564 0 01-.56.568z" fill="#F7F9FC"/><path d="M26.569 41.167a1.694 1.694 0 110-3.39c.933 0 1.688.762 1.688 1.695s-.755 1.695-1.688 1.695zm0-2.255a.56.56 0 00-.568.56c0 .311.249.568.568.568a.57.57 0 00.56-.568.563.563 0 00-.56-.56zm5.647 2.255a1.7 1.7 0 01-1.696-1.695 1.7 1.7 0 011.696-1.696 1.7 1.7 0 011.695 1.696 1.7 1.7 0 01-1.695 1.695zm0-2.255a.564.564 0 00-.568.56.57.57 0 00.568.568.571.571 0 00.567-.568.564.564 0 00-.567-.56z" fill="#F7F9FC"/></g><defs><clipPath id="clip0_106_3223"><rect width="70" height="70" fill="#fff"/></clipPath></defs></svg>