<svg width="14" height="17" viewBox="0 0 14 17" fill="none" xmlns="http://www.w3.org/2000/svg"><g clip-path="url(#clip0_111_7852)"><path d="M13.714 2.5c0-1.105-3.072-2-6.857-2S0 1.395 0 2.5s3.07 2 6.857 2c3.787 0 6.857-.894 6.857-2z" fill="#94E0F5"/><path d="M6.857 8.5c3.786 0 6.857-.894 6.857-2v-4c0 1.106-3.07 2-6.857 2C3.071 4.5 0 3.606 0 2.5v4c0 1.106 3.071 2 6.857 2z" fill="#52B6D2"/><path d="M6.857 12.5c3.786 0 6.857-.895 6.857-2v-4c0 1.106-3.07 2-6.857 2C3.071 8.5 0 7.606 0 6.5v4c0 1.105 3.071 2 6.857 2z" fill="#94E0F5"/><path d="M13.714 10.5c0 1.106-3.07 2-6.857 2-3.786 0-6.857-.894-6.857-2v4c0 1.105 3.071 2 6.857 2s6.857-.894 6.857-2v-4z" fill="#52B6D2"/></g><defs><clipPath id="clip0_111_7852"><rect width="13.714" height="16" fill="#fff" transform="translate(0 .5)"/></clipPath></defs></svg>