<svg width="26" height="24" viewBox="0 0 26 24" fill="none" xmlns="http://www.w3.org/2000/svg"><g clip-path="url(#clip0_9_255)" stroke="#F7F9FC" stroke-width="1.5"><path d="M6.315 5.917v8.861H1.833a1.07 1.07 0 01-1.07-1.07v-6.72c0-.59.48-1.07 1.07-1.07h4.482z"/><path d="M6.315 5.917s2.342.051 6.233 0c3.89-.05 8.443-2.515 11.407-5.03a.55.55 0 01.57-.082.57.57 0 01.316.478v18.15a.54.54 0 01-.306.478.512.512 0 01-.56-.06c-1.905-1.498-6.65-4.849-11.244-4.991-2.689-.082-4.858-.082-6.416-.082v-8.86z"/><path d="M5.56 23.232a1.07 1.07 0 01-1.068-1.07l-.53-7.374h4.705l.54 7.374c0 .59-.479 1.07-1.07 1.07H5.562z"/></g><defs><clipPath id="clip0_9_255"><rect width="25.605" height="24" fill="#fff"/></clipPath></defs></svg>