<svg width="72" height="72" viewBox="0 0 72 72" fill="none" xmlns="http://www.w3.org/2000/svg"><path d="M36.013 72c-4.978 0-9.658-.945-14.041-2.834-4.382-1.89-8.194-4.453-11.436-7.692-3.242-3.239-5.808-7.047-7.699-11.426C.946 45.67 0 40.992 0 36.013c0-4.978.945-9.658 2.835-14.041 1.89-4.382 4.455-8.194 7.695-11.436 3.24-3.242 7.05-5.808 11.43-7.699S31.02 0 36 0c4.094 0 7.967.633 11.62 1.9 3.653 1.267 6.985 3.033 9.995 5.3l-2.877 2.977a31.565 31.565 0 00-8.698-4.558C42.877 4.539 39.53 4 36 4c-8.867 0-16.417 3.117-22.65 9.35C7.117 19.583 4 27.133 4 36c0 8.867 3.117 16.417 9.35 22.65C19.583 64.883 27.133 68 36 68c8.867 0 16.417-3.117 22.65-9.35C64.883 52.417 68 44.867 68 36c0-1.61-.118-3.19-.354-4.738a28.904 28.904 0 00-1.061-4.516l3.192-3.269a35.632 35.632 0 011.661 6.093c.375 2.082.562 4.225.562 6.43 0 4.98-.945 9.66-2.834 14.04-1.89 4.38-4.453 8.19-7.692 11.43s-7.047 5.805-11.426 7.695C45.67 71.055 40.992 72 36.013 72zm-5.767-20.369L16.015 37.4l2.831-2.831 11.4 11.4L69.169 7.023 72 9.854 30.246 51.631z" fill="#00AEEF"/></svg>