<svg width="100" height="200" viewBox="0 0 100 200" fill="none" xmlns="http://www.w3.org/2000/svg"><mask id="a" style="mask-type:alpha" maskUnits="userSpaceOnUse" x="-1" y="-1" width="102" height="202"><path d="M100 0H0v200h100V0z" fill="#fff"/><path d="M99.505.495H.495v199.01h99.01V.495z" stroke="#707070"/></mask><g mask="url(#a)"><mask id="b" style="mask-type:alpha" maskUnits="userSpaceOnUse" x="-182" y="0" width="464" height="738"><path d="M281.435.707h-462.9v736.714h462.9V.707z" fill="#C4C4C4"/></mask><g mask="url(#b)"><path d="M91.511 121.337H69.538v55.854h21.974v-55.854z" fill="#00AEEF"/></g><mask id="c" style="mask-type:alpha" maskUnits="userSpaceOnUse" x="-182" y="0" width="464" height="738"><path d="M281.435.707h-462.9v736.714h462.9V.707z" fill="#C4C4C4"/></mask><g mask="url(#c)"><path d="M91.511 128.984H69.538v1.455h21.974v-1.455z" fill="#3271B2"/></g><mask id="d" style="mask-type:alpha" maskUnits="userSpaceOnUse" x="-182" y="0" width="464" height="738"><path d="M281.435.707h-462.9v736.714h462.9V.707z" fill="#C4C4C4"/></mask><g mask="url(#d)"><path d="M91.511 168.091H69.538v1.454h21.974v-1.454z" fill="#3271B2"/></g><mask id="e" style="mask-type:alpha" maskUnits="userSpaceOnUse" x="-182" y="0" width="464" height="738"><path d="M281.435.707h-462.9v736.714h462.9V.707z" fill="#C4C4C4"/></mask><g mask="url(#e)"><mask id="f" style="mask-type:luminance" maskUnits="userSpaceOnUse" x="5" y="113" width="65" height="17"><path fill-rule="evenodd" clip-rule="evenodd" d="M69.537 113.691H5.34v6.919h3.094v9.102h61.102v-16.021z" fill="#000"/></mask><g mask="url(#f)"><path fill-rule="evenodd" clip-rule="evenodd" d="M69.537 113.691H5.34v6.919h3.094v9.102h61.102v-16.021z" fill="#D0ECF6"/></g></g><mask id="g" style="mask-type:alpha" maskUnits="userSpaceOnUse" x="-182" y="0" width="464" height="738"><path d="M281.435.707h-462.9v736.714h462.9V.707z" fill="#C4C4C4"/></mask><g mask="url(#g)"><path d="M63.05 113.683H36.632v-57.99H63.05v57.99zm-24.961-1.455h23.505v-55.08H38.089v55.08z" fill="#00AEEF"/></g><mask id="h" style="mask-type:alpha" maskUnits="userSpaceOnUse" x="-182" y="0" width="464" height="738"><path d="M281.435.707h-462.9v736.714h462.9V.707z" fill="#C4C4C4"/></mask><g mask="url(#h)"><path d="M76.594 113.683h-15v-57.99h15v57.99zm-13.545-1.455h12.09v-55.08h-12.09v55.08z" fill="#3271B2"/></g><mask id="i" style="mask-type:alpha" maskUnits="userSpaceOnUse" x="-182" y="0" width="464" height="738"><path d="M281.435.707h-462.9v736.714h462.9V.707z" fill="#C4C4C4"/></mask><g mask="url(#i)"><path d="M37.93 113.683H22.92v-57.99h15.01v57.99zm-13.554-1.455h12.099v-55.08h-12.1v55.08z" fill="#3271B2"/></g><mask id="j" style="mask-type:alpha" maskUnits="userSpaceOnUse" x="-182" y="0" width="464" height="738"><path d="M281.435.707h-462.9v736.714h462.9V.707z" fill="#C4C4C4"/></mask><g mask="url(#j)"><path d="M70.257 440.426H29.703v-241.99h40.554v241.99zm-39.109-1.455h37.654v-239.08H31.148v239.08z" fill="#00AEEF"/></g><mask id="k" style="mask-type:alpha" maskUnits="userSpaceOnUse" x="-182" y="0" width="464" height="738"><path d="M281.435.707h-462.9v736.714h462.9V.707z" fill="#C4C4C4"/></mask><g mask="url(#k)"><path d="M87.621 199.166H69.538v240.533H87.62V199.166z" fill="#00AEEF"/></g><mask id="l" style="mask-type:alpha" maskUnits="userSpaceOnUse" x="-182" y="0" width="464" height="738"><path d="M281.435.707h-462.9v736.714h462.9V.707z" fill="#C4C4C4"/></mask><g mask="url(#l)"><path d="M88.346 440.426H68.802v-241.99h19.544v241.99zm-18.089-1.455h16.634v-239.08H70.257v239.08z" fill="#00AEEF"/></g><mask id="m" style="mask-type:alpha" maskUnits="userSpaceOnUse" x="-182" y="0" width="464" height="738"><path d="M281.435.707h-462.9v736.714h462.9V.707z" fill="#C4C4C4"/></mask><g mask="url(#m)"><path d="M31.148 440.426H11.614v-241.99h19.534v241.99zm-18.079-1.455h16.634v-239.08H13.069v239.08z" fill="#00AEEF"/></g><mask id="n" style="mask-type:alpha" maskUnits="userSpaceOnUse" x="-182" y="0" width="464" height="738"><path d="M281.435.707h-462.9v736.714h462.9V.707z" fill="#C4C4C4"/></mask><g mask="url(#n)"><path d="M31.148 199.891H11.733l-4.149-23.435h23.564v23.435zm-18.198-1.455h16.753v-20.525H9.317l3.633 20.525z" fill="#3271B2"/></g><mask id="o" style="mask-type:alpha" maskUnits="userSpaceOnUse" x="-182" y="0" width="464" height="738"><path d="M281.435.707h-462.9v736.714h462.9V.707z" fill="#C4C4C4"/></mask><g mask="url(#o)"><path d="M69.535 177.188h21.97l-3.891 21.971h-18.08v-21.971z" fill="#00AEEF"/></g><mask id="p" style="mask-type:alpha" maskUnits="userSpaceOnUse" x="-182" y="0" width="464" height="738"><path d="M281.435.707h-462.9v736.714h462.9V.707z" fill="#C4C4C4"/></mask><g mask="url(#p)"><path d="M88.228 199.891H68.802v-23.435h23.574l-4.148 23.435zm-17.97-1.455H87.01l3.623-20.525H70.257v20.525z" fill="#00AEEF"/></g><mask id="q" style="mask-type:alpha" maskUnits="userSpaceOnUse" x="-182" y="0" width="464" height="738"><path d="M281.435.707h-462.9v736.714h462.9V.707z" fill="#C4C4C4"/></mask><g mask="url(#q)"><path d="M70.257 169.545H29.703V128.98h40.554v40.565zm-39.109-1.456h37.654v-37.653H31.148v37.653z" fill="#00AEEF"/></g><mask id="r" style="mask-type:alpha" maskUnits="userSpaceOnUse" x="-182" y="0" width="464" height="738"><path d="M281.435.707h-462.9v736.714h462.9V.707z" fill="#C4C4C4"/></mask><g mask="url(#r)"><path d="M49.98 163.357c-7.772 0-14.089-6.327-14.089-14.099 0-7.773 6.317-14.09 14.09-14.09 7.771 0 14.088 6.317 14.088 14.09 0 7.772-6.317 14.099-14.089 14.099zm0-26.733c-6.97 0-12.643 5.663-12.643 12.634 0 6.97 5.673 12.643 12.643 12.643 6.97 0 12.644-5.673 12.644-12.643 0-6.971-5.674-12.634-12.644-12.634z" fill="#00AEEF"/></g><mask id="s" style="mask-type:alpha" maskUnits="userSpaceOnUse" x="-182" y="0" width="464" height="738"><path d="M281.435.707h-462.9v736.714h462.9V.707z" fill="#C4C4C4"/></mask><g mask="url(#s)"><path d="M70.257 130.436H7.723v-9.832h62.534v9.832zM9.178 128.98h59.624v-6.921H9.178v6.921z" fill="#3271B2"/></g><mask id="t" style="mask-type:alpha" maskUnits="userSpaceOnUse" x="-182" y="0" width="464" height="738"><path d="M281.435.707h-462.9v736.714h462.9V.707z" fill="#C4C4C4"/></mask><g mask="url(#t)"><path d="M71.04 122.06H4.236v-9.832H71.04v9.832zm-65.347-1.456h63.89v-6.921H5.694v6.921z" fill="#3271B2"/></g><mask id="u" style="mask-type:alpha" maskUnits="userSpaceOnUse" x="-182" y="0" width="464" height="738"><path d="M281.435.707h-462.9v736.714h462.9V.707z" fill="#C4C4C4"/></mask><g mask="url(#u)"><path d="M70.257 177.911H7.723v-9.822h62.534v9.822zm-61.079-1.455h59.624v-6.911H9.178v6.911z" fill="#3271B2"/></g><mask id="v" style="mask-type:alpha" maskUnits="userSpaceOnUse" x="-182" y="0" width="464" height="738"><path d="M281.435.707h-462.9v736.714h462.9V.707z" fill="#C4C4C4"/></mask><g mask="url(#v)"><path d="M50.327 149.891l-1.03-.881 3.218-8.95 1.366.485-2.564 7.158 4.277-2.346.703 1.277-5.97 3.257z" fill="#00AEEF"/></g><mask id="w" style="mask-type:alpha" maskUnits="userSpaceOnUse" x="-182" y="0" width="464" height="738"><path d="M281.435.707h-462.9v736.714h462.9V.707z" fill="#C4C4C4"/></mask><g mask="url(#w)"><path d="M30.382 112.964h-1.455v8.374h1.455v-8.374z" fill="#3271B2"/></g><mask id="x" style="mask-type:alpha" maskUnits="userSpaceOnUse" x="-182" y="0" width="464" height="738"><path d="M281.435.707h-462.9v736.714h462.9V.707z" fill="#C4C4C4"/></mask><g mask="url(#x)"><path d="M71.042 112.964h-1.455v8.374h1.455v-8.374z" fill="#00AEEF"/></g><mask id="y" style="mask-type:alpha" maskUnits="userSpaceOnUse" x="-182" y="0" width="464" height="738"><path d="M281.435.707h-462.9v736.714h462.9V.707z" fill="#C4C4C4"/></mask><g mask="url(#y)"><path d="M82.228 102.772a1.935 1.935 0 00-1.278-.495c-.465 0-.92.179-1.287.495l-2.178 1.941c-1.02.911-1.614 2.287-1.614 3.733 0 .693.139 1.386.396 2.01l1.04 2.505h7.287l1.04-2.505a5.311 5.311 0 00.395-2.01c0-1.446-.593-2.822-1.613-3.733l-2.188-1.941z" fill="#fff"/></g><mask id="z" style="mask-type:alpha" maskUnits="userSpaceOnUse" x="-182" y="0" width="464" height="738"><path d="M281.435.707h-462.9v736.714h462.9V.707z" fill="#C4C4C4"/></mask><g mask="url(#z)"><path d="M85.08 113.684h-8.258l-1.228-2.951a5.967 5.967 0 01-.455-2.287c0-1.663.683-3.228 1.861-4.277l2.178-1.941a2.699 2.699 0 011.773-.683c.643 0 1.267.247 1.762.683l2.188 1.941c1.178 1.049 1.852 2.614 1.852 4.277 0 .792-.159 1.574-.456 2.287l-1.218 2.951zm-7.288-1.456h6.317l.852-2.049a4.658 4.658 0 00.336-1.733c0-1.248-.495-2.416-1.366-3.188l-2.178-1.941a1.208 1.208 0 00-1.604 0l-2.179 1.941c-.87.772-1.376 1.94-1.376 3.188 0 .594.119 1.198.347 1.733l.851 2.049z" fill="#3271B2"/></g><mask id="A" style="mask-type:alpha" maskUnits="userSpaceOnUse" x="-182" y="0" width="464" height="738"><path d="M281.435.707h-462.9v736.714h462.9V.707z" fill="#C4C4C4"/></mask><g mask="url(#A)"><path d="M94.99 102.277c-.465 0-.92.179-1.287.495l-2.178 1.941c-1.02.911-1.614 2.287-1.614 3.733a5.3 5.3 0 00.396 2.01l1.04 2.505h3.643v-10.684z" fill="#fff"/></g><mask id="B" style="mask-type:alpha" maskUnits="userSpaceOnUse" x="-182" y="0" width="464" height="738"><path d="M281.435.707h-462.9v736.714h462.9V.707z" fill="#C4C4C4"/></mask><g mask="url(#B)"><path d="M95.713 113.684H90.86l-1.228-2.951a5.922 5.922 0 01-.445-2.287c0-1.663.673-3.228 1.852-4.277l2.178-1.941a2.718 2.718 0 011.772-.683h.723v12.139zm-3.881-1.456h2.435v-8.97l-2.257 2c-.872.772-1.367 1.94-1.367 3.188 0 .594.11 1.198.337 1.733l.852 2.049z" fill="#3271B2"/></g><mask id="C" style="mask-type:alpha" maskUnits="userSpaceOnUse" x="-182" y="0" width="464" height="738"><path d="M281.435.707h-462.9v736.714h462.9V.707z" fill="#C4C4C4"/></mask><g mask="url(#C)"><path d="M6.257 102.772a1.98 1.98 0 00-1.287-.495v10.684h3.664l1.04-2.505a5.136 5.136 0 00.405-2.01c0-1.446-.604-2.822-1.624-3.733l-2.198-1.941z" fill="#fff"/></g><mask id="D" style="mask-type:alpha" maskUnits="userSpaceOnUse" x="-182" y="0" width="464" height="738"><path d="M281.435.707h-462.9v736.714h462.9V.707z" fill="#C4C4C4"/></mask><g mask="url(#D)"><path d="M9.118 113.684h-4.87v-12.139h.722a2.7 2.7 0 011.772.683l2.198 1.941c1.178 1.049 1.862 2.614 1.862 4.277 0 .792-.159 1.584-.456 2.297l-1.228 2.941zm-3.425-1.456h2.455l.861-2.049a4.658 4.658 0 00.337-1.733c0-1.248-.495-2.406-1.376-3.188l-2.188-1.941-.09 8.911z" fill="#3271B2"/></g><mask id="E" style="mask-type:alpha" maskUnits="userSpaceOnUse" x="-182" y="0" width="464" height="738"><path d="M281.435.707h-462.9v736.714h462.9V.707z" fill="#C4C4C4"/></mask><g mask="url(#E)"><path d="M20.346 102.772a1.98 1.98 0 00-1.287-.495c-.475 0-.92.179-1.297.495l-2.188 1.941c-1.03.911-1.624 2.287-1.624 3.733 0 .693.139 1.386.396 2.01l1.05 2.505h7.326l1.04-2.505a5.136 5.136 0 00.406-2.01c0-1.446-.604-2.822-1.624-3.733l-2.198-1.941z" fill="#fff"/></g><mask id="F" style="mask-type:alpha" maskUnits="userSpaceOnUse" x="-182" y="0" width="464" height="738"><path d="M281.435.707h-462.9v736.714h462.9V.707z" fill="#C4C4C4"/></mask><g mask="url(#F)"><path d="M23.208 113.684H14.91l-1.228-2.941a6.017 6.017 0 01-.456-2.297c0-1.663.674-3.228 1.862-4.277l2.198-1.941a2.7 2.7 0 011.772-.683c.644 0 1.277.247 1.772.683l2.189 1.941c1.188 1.049 1.87 2.614 1.87 4.277 0 .792-.157 1.584-.454 2.297l-1.228 2.941zm-7.327-1.456h6.356l.862-2.049a4.658 4.658 0 00.337-1.733c0-1.248-.506-2.406-1.377-3.188l-2.188-1.941a1.235 1.235 0 00-1.624 0l-2.188 1.941c-.881.782-1.376 1.94-1.376 3.188 0 .594.119 1.198.337 1.733l.861 2.049z" fill="#3271B2"/></g><mask id="G" style="mask-type:alpha" maskUnits="userSpaceOnUse" x="-182" y="0" width="464" height="738"><path d="M281.435.707h-462.9v736.714h462.9V.707z" fill="#C4C4C4"/></mask><g mask="url(#G)"><path d="M34.99 102.772a1.986 1.986 0 00-1.297-.495c-.466 0-.921.179-1.287.495l-2.198 1.941c-1.02.911-1.614 2.287-1.614 3.733 0 .693.128 1.386.396 2.01l1.04 2.505h7.326l1.05-2.505a5.31 5.31 0 00.396-2.01c0-1.446-.594-2.822-1.624-3.733l-2.188-1.941z" fill="#fff"/></g><mask id="H" style="mask-type:alpha" maskUnits="userSpaceOnUse" x="-182" y="0" width="464" height="738"><path d="M281.435.707h-462.9v736.714h462.9V.707z" fill="#C4C4C4"/></mask><g mask="url(#H)"><path d="M37.842 113.684h-8.288l-1.237-2.941a6.015 6.015 0 01-.456-2.297c0-1.663.683-3.228 1.872-4.277l2.188-1.941a2.719 2.719 0 011.772-.683 2.68 2.68 0 011.772.683l2.198 1.941c1.188 1.049 1.872 2.614 1.872 4.277 0 .792-.159 1.584-.456 2.297l-1.237 2.941zm-7.317-1.456h6.346l.862-2.049a4.477 4.477 0 00.346-1.733c0-1.248-.505-2.406-1.376-3.188l-2.198-1.941a1.221 1.221 0 00-1.614 0l-2.198 1.941c-.871.772-1.376 1.94-1.376 3.188 0 .594.119 1.198.346 1.733l.862 2.049z" fill="#3271B2"/></g><mask id="I" style="mask-type:alpha" maskUnits="userSpaceOnUse" x="-182" y="0" width="464" height="738"><path d="M281.435.707h-462.9v736.714h462.9V.707z" fill="#C4C4C4"/></mask><g mask="url(#I)"><path d="M67.613 102.772a1.98 1.98 0 00-1.287-.495c-.465 0-.92.179-1.277.495l-2.188 1.941c-1.02.911-1.614 2.287-1.614 3.733 0 .693.139 1.386.396 2.01l1.05 2.505h7.277l1.04-2.505a5.126 5.126 0 00.395-2.01c0-1.446-.594-2.822-1.613-3.733l-2.179-1.941z" fill="#fff"/></g><mask id="J" style="mask-type:alpha" maskUnits="userSpaceOnUse" x="-182" y="0" width="464" height="738"><path d="M281.435.707h-462.9v736.714h462.9V.707z" fill="#C4C4C4"/></mask><g mask="url(#J)"><path d="M70.455 113.684h-8.257l-1.218-2.951a5.965 5.965 0 01-.456-2.287c0-1.663.674-3.228 1.852-4.277l2.188-1.941a2.674 2.674 0 011.762-.683 2.7 2.7 0 011.773.683l2.178 1.941c1.178 1.049 1.861 2.614 1.861 4.277 0 .792-.158 1.574-.455 2.287l-1.228 2.951zm-7.287-1.456h6.317l.851-2.049a4.477 4.477 0 00.347-1.733c0-1.248-.505-2.416-1.376-3.188l-2.179-1.941a1.208 1.208 0 00-1.604 0l-2.178 1.941c-.871.772-1.366 1.94-1.366 3.188 0 .594.119 1.198.337 1.733l.851 2.049z" fill="#3271B2"/></g><mask id="K" style="mask-type:alpha" maskUnits="userSpaceOnUse" x="-182" y="0" width="464" height="738"><path d="M281.435.707h-462.9v736.714h462.9V.707z" fill="#C4C4C4"/></mask><g mask="url(#K)"><path d="M51.406 102.772a2.334 2.334 0 00-1.426-.495c-.525 0-1.02.179-1.426.495l-2.435 1.941a4.78 4.78 0 00-1.792 3.733c0 .693.148 1.386.435 2.01l1.159 2.505h8.118l1.159-2.505a4.81 4.81 0 00-1.356-5.743l-2.436-1.941z" fill="#fff"/></g><mask id="L" style="mask-type:alpha" maskUnits="userSpaceOnUse" x="-182" y="0" width="464" height="738"><path d="M281.435.707h-462.9v736.714h462.9V.707z" fill="#C4C4C4"/></mask><g mask="url(#L)"><path d="M54.505 113.684h-9.05l-1.346-2.921a5.496 5.496 0 01-.515-2.317c0-1.683.752-3.248 2.07-4.297l2.435-1.941a3.03 3.03 0 011.88-.663 3.01 3.01 0 011.882.663l2.436 1.941a5.462 5.462 0 012.069 4.297 5.49 5.49 0 01-.515 2.317l-1.346 2.921zm-8.12-1.456h7.189l.96-2.079a4.032 4.032 0 00.377-1.703 4.014 4.014 0 00-1.525-3.159l-2.426-1.94a1.603 1.603 0 00-1.96 0l-2.426 1.94a4.014 4.014 0 00-1.525 3.159c0 .584.129 1.178.376 1.703l.96 2.079z" fill="#3271B2"/></g><mask id="M" style="mask-type:alpha" maskUnits="userSpaceOnUse" x="-182" y="0" width="464" height="738"><path d="M281.435.707h-462.9v736.714h462.9V.707z" fill="#C4C4C4"/></mask><g mask="url(#M)"><path d="M70.257 199.891H29.703v-23.435h40.554v23.435zm-39.109-1.455h37.654v-20.525H31.148v20.525z" fill="#3271B2"/></g><mask id="N" style="mask-type:alpha" maskUnits="userSpaceOnUse" x="-182" y="0" width="464" height="738"><path d="M281.435.707h-462.9v736.714h462.9V.707z" fill="#C4C4C4"/></mask><g mask="url(#N)"><path d="M31.158 177.911H7.723v-57.307h23.435v57.307zm-21.98-1.456h20.525v-54.396H9.178v54.396z" fill="#3271B2"/></g><mask id="O" style="mask-type:alpha" maskUnits="userSpaceOnUse" x="-182" y="0" width="464" height="738"><path d="M281.435.707h-462.9v736.714h462.9V.707z" fill="#C4C4C4"/></mask><g mask="url(#O)"><path d="M92.237 177.911H68.802v-57.307h23.435v57.307zm-21.98-1.456h20.525v-54.396H70.257v54.396z" fill="#3271B2"/></g><mask id="P" style="mask-type:alpha" maskUnits="userSpaceOnUse" x="-182" y="0" width="464" height="738"><path d="M281.435.707h-462.9v736.714h462.9V.707z" fill="#C4C4C4"/></mask><g mask="url(#P)"><path d="M95.713 122.06H69.584v-9.832h26.129v9.832zm-24.674-1.456h23.228v-6.921H71.04v6.921z" fill="#3271B2"/></g><mask id="Q" style="mask-type:alpha" maskUnits="userSpaceOnUse" x="-182" y="0" width="464" height="738"><path d="M281.435.707h-462.9v736.714h462.9V.707z" fill="#C4C4C4"/></mask><g mask="url(#Q)"><path d="M45.307 66.604a2.878 2.878 0 00-2.881 2.881v31.099h5.752V69.485a2.876 2.876 0 00-2.871-2.881z" fill="#00AEEF"/></g><mask id="R" style="mask-type:alpha" maskUnits="userSpaceOnUse" x="-182" y="0" width="464" height="738"><path d="M281.435.707h-462.9v736.714h462.9V.707z" fill="#C4C4C4"/></mask><g mask="url(#R)"><path d="M54.624 66.604a2.876 2.876 0 00-2.872 2.881v31.099h5.743V69.485a2.875 2.875 0 00-2.871-2.881z" fill="#00AEEF"/></g><mask id="S" style="mask-type:alpha" maskUnits="userSpaceOnUse" x="-182" y="0" width="464" height="738"><path d="M281.435.707h-462.9v736.714h462.9V.707z" fill="#C4C4C4"/></mask><g mask="url(#S)"><path d="M76.594 56.426h-1.456c0-13.95-11.386-25.307-25.376-25.307-14 0-25.386 11.356-25.386 25.307H22.92c0-14.753 12.04-26.762 26.842-26.762s26.832 12.01 26.832 26.762z" fill="#3271B2"/></g><mask id="T" style="mask-type:alpha" maskUnits="userSpaceOnUse" x="-182" y="0" width="464" height="738"><path d="M281.435.707h-462.9v736.714h462.9V.707z" fill="#C4C4C4"/></mask><g mask="url(#T)"><path d="M50.493 6.988H49.04V30.4h1.454V6.988z" fill="#3271B2"/></g><mask id="U" style="mask-type:alpha" maskUnits="userSpaceOnUse" x="-182" y="0" width="464" height="738"><path d="M281.435.707h-462.9v736.714h462.9V.707z" fill="#C4C4C4"/></mask><g mask="url(#U)"><path d="M49.762 7.713c-3.861 0-7.01-3.148-7.01-7.01h1.456a5.565 5.565 0 005.554 5.555A5.565 5.565 0 0055.317.703h1.455c0 3.862-3.148 7.01-7.01 7.01z" fill="#3271B2"/></g><mask id="V" style="mask-type:alpha" maskUnits="userSpaceOnUse" x="-182" y="0" width="464" height="738"><path d="M281.435.707h-462.9v736.714h462.9V.707z" fill="#C4C4C4"/></mask><g mask="url(#V)"><path d="M80.953 55.703H19.062v1.455h61.891v-1.455z" fill="#3271B2"/></g><mask id="W" style="mask-type:alpha" maskUnits="userSpaceOnUse" x="-182" y="0" width="464" height="738"><path d="M281.435.707h-462.9v736.714h462.9V.707z" fill="#C4C4C4"/></mask><g mask="url(#W)"><path d="M99.957 120.61H-.266v1.455H99.957v-1.455z" fill="#3271B2"/></g></g></svg>