<svg width="56" height="72" viewBox="0 0 56 72" fill="none" xmlns="http://www.w3.org/2000/svg"><path d="M11.231 68h33.538V56c0-4.708-1.618-8.731-4.854-12.069-3.235-3.339-7.207-5.008-11.915-5.008-4.708 0-8.68 1.67-11.915 5.008-3.236 3.338-4.854 7.361-4.854 12.069v12zM28 33.077c4.708 0 8.68-1.67 11.915-5.008 3.236-3.338 4.854-7.361 4.854-12.069V4H11.231v12c0 4.708 1.618 8.731 4.854 12.069 3.235 3.339 7.207 5.008 11.915 5.008zM0 72v-4h7.231V56c0-4.939 1.514-9.32 4.542-13.142 3.028-3.823 6.909-6.11 11.642-6.858-4.733-.8-8.614-3.099-11.642-6.896C8.745 25.307 7.231 20.939 7.231 16V4H0V0h56v4h-7.231v12c0 4.939-1.514 9.307-4.542 13.104C41.199 32.901 37.318 35.2 32.585 36c4.733.749 8.614 3.035 11.642 6.858 3.028 3.823 4.542 8.203 4.542 13.142v12H56v4H0z" fill="#00AEEF"/></svg>