<svg width="31" height="31" viewBox="0 0 31 31" fill="none" xmlns="http://www.w3.org/2000/svg"><g clip-path="url(#clip0_111_9485)" fill="#00AEEF"><path d="M8.566 8.467l10.886 14.555h2.466L11.032 8.467H8.566z"/><path d="M15.22.524C6.814.524 0 7.34 0 15.744c0 8.406 6.814 15.22 15.22 15.22s15.22-6.814 15.22-15.22c0-8.405-6.814-15.22-15.22-15.22zm3.65 23.66l-4.956-6.627-6.134 6.627H6.203l7.006-7.57-6.962-9.309h5.367l4.564 6.103 5.65-6.103h1.577l-6.522 7.046 7.355 9.833H18.87z"/></g><defs><clipPath id="clip0_111_9485"><rect width="30.44" height="30.44" fill="#fff" transform="translate(0 .524)"/></clipPath></defs></svg>