<svg width="70" height="70" viewBox="0 0 70 70" fill="none" xmlns="http://www.w3.org/2000/svg"><g clip-path="url(#clip0_106_3210)"><path d="M35 70c19.33 0 35-15.67 35-35S54.33 0 35 0 0 15.67 0 35s15.67 35 35 35z" fill="#3271B2"/><path d="M45.072 40.662h-1.641l-1.882.008a.68.68 0 00-.693.668.68.68 0 00.693.67h3.546c3.75-.063 6.767-3.026 6.767-6.666 0-3.422-2.675-6.246-6.121-6.62-.716-2.402-3.002-4.152-5.717-4.152-.389 0-.778.03-1.15.1-1.455-2.387-4.146-3.997-7.226-3.997-4.62 0-8.377 3.624-8.377 8.104 0 .327.023.654.062.98-2.963.537-5.203 3.05-5.203 6.075 0 3.383 2.815 6.129 6.3 6.175h3.998a.68.68 0 00.692-.669.68.68 0 00-.692-.669h-1.852l-2.084-.007c-2.73-.031-4.97-2.186-4.97-4.83 0-2.365 1.75-4.34 4.068-4.76l1.275-.226-.155-1.252a7.09 7.09 0 01-.047-.817c0-3.733 3.127-6.759 6.985-6.759 2.566 0 4.814 1.338 6.035 3.337l.49.817.972-.18a4.61 4.61 0 01.88-.085c2.076 0 3.834 1.346 4.386 3.19l.257.862.925.094c2.746.295 4.877 2.551 4.877 5.289 0 2.909-2.411 5.273-5.398 5.32z" fill="#F7F9FC"/><path d="M37.442 37.474v10.85a.767.767 0 101.532 0v-10.85l1.424 1.415a.765.765 0 001.089 0 .765.765 0 000-1.089l-2.738-2.722a.756.756 0 00-1.081 0L34.93 37.8a.772.772 0 000 1.09.765.765 0 001.089 0l1.423-1.416zm-6.432 9.224l-1.416-1.423a.78.78 0 00-1.088 0 .78.78 0 000 1.089l2.73 2.73a.765.765 0 00.544.225.752.752 0 00.544-.225l2.73-2.73a.765.765 0 000-1.09.78.78 0 00-1.088 0l-1.416 1.424V35.623a.767.767 0 00-.77-.77c-.42 0-.77.342-.77.77v11.075z" fill="#F7F9FC"/></g><defs><clipPath id="clip0_106_3210"><rect width="70" height="70" fill="#fff"/></clipPath></defs></svg>