<svg width="152" height="152" viewBox="0 0 152 152" fill="none" xmlns="http://www.w3.org/2000/svg">
<circle cx="76" cy="76" r="76" fill="black"/>
<path d="M69.1797 78.9521V90.5049H81.8607C79.1474 94.4463 74.3349 96.9739 69.1797 96.9739C61.1256 96.9739 53.6998 90.405 53.6998 81.3941C53.6998 72.3832 60.9685 65.8142 69.1797 65.8142C69.194 65.8142 69.2083 65.8142 69.2226 65.8142H79.8757V48.5778H69.2226C69.2226 48.5778 69.194 48.5778 69.1797 48.5778C51.0722 48.5778 36.4492 63.2723 36.4492 81.3941C36.4492 99.5158 51.058 114.21 69.1797 114.21C87.3015 114.21 101.996 99.5158 101.996 81.3941V78.9379H69.1797V78.9521Z" fill="white"/>
<path d="M112.092 28.157V48.5779H101.996V27.8856H85.088V73.7827H101.996V65.8285H112.092V100.358H129V28.157H112.092Z" fill="white"/>
<path d="M67.7373 127.463C42.5182 127.463 21.9974 106.913 21.9974 81.6369C21.9974 72.9258 24.4536 64.4433 29.109 57.1175C33.6359 49.9773 40.0192 44.2366 47.5735 40.5095C48.2304 40.181 49.0158 40.4523 49.3442 41.1092C49.6727 41.7661 49.4014 42.5515 48.7445 42.88C41.6329 46.393 35.6065 51.8052 31.351 58.5312C26.9669 65.4429 24.6535 73.4257 24.6535 81.6369C24.6535 105.442 43.9891 124.806 67.7373 124.806C74.0492 124.806 80.1327 123.464 85.8305 120.836C86.4874 120.522 87.2871 120.822 87.587 121.479C87.9012 122.136 87.6013 122.936 86.9444 123.236C80.9038 126.034 74.4348 127.448 67.7373 127.448" fill="#00AEEF"/>
<path d="M68.9369 121.379C46.9452 121.379 29.0376 103.443 29.0376 81.3941C29.0376 59.3452 46.9309 41.4091 68.9369 41.4091H79.6329C80.3612 41.4091 80.9609 41.9946 80.9609 42.7372C80.9609 43.4655 80.3755 44.0653 79.6329 44.0653H68.9369C48.4018 44.0653 31.6937 60.8161 31.6937 81.3941C31.6937 101.972 48.4018 118.723 68.9369 118.723C89.472 118.723 106.266 101.972 106.266 81.3941V79.0664C106.266 78.3381 106.851 77.7383 107.594 77.7383C108.336 77.7383 108.922 78.3238 108.922 79.0664V81.3941C108.922 103.443 90.9858 121.379 68.9369 121.379Z" fill="#EC008C"/>
<path d="M37.8628 124.421C37.5915 124.421 37.3202 124.335 37.0917 124.164C30.4085 119.337 24.8534 112.925 21.0406 105.628C17.0849 98.0878 15 89.5767 15 81.0228C15 69.1987 18.7986 58.0029 25.9959 48.6493C26.4386 48.0638 27.2668 47.9638 27.8523 48.4065C28.4378 48.8492 28.5378 49.6774 28.0951 50.2629C21.2548 59.1596 17.6419 69.7985 17.6419 81.0371C17.6419 89.1626 19.6268 97.2453 23.3683 104.414C26.9955 111.354 32.2792 117.438 38.634 122.036C39.2195 122.464 39.3623 123.293 38.9339 123.878C38.6768 124.235 38.277 124.421 37.8628 124.421Z" fill="#FFF200"/>
</svg>
