<svg width="50" height="50" viewBox="0 0 50 50" fill="none" xmlns="http://www.w3.org/2000/svg">
<g clip-path="url(#clip0_106_5064)">
<path d="M49.3591 24.9996C49.3591 11.5465 38.4532 0.640625 25.0001 0.640625C11.547 0.640625 0.641113 11.5465 0.641113 24.9996C0.641113 38.4527 11.547 49.3586 25.0001 49.3586C38.4532 49.3586 49.3591 38.4527 49.3591 24.9996Z" stroke="#3271B2"/>
<path d="M13.6793 16.6603C13.3716 14.1411 15.1408 11.8462 17.6536 11.5385C19.2434 11.3206 20.7434 11.9808 21.7113 13.0834" stroke="#E0027A" stroke-width="1.5" stroke-linejoin="round"/>
<path d="M33.0062 21.8204C34.2434 21.8204 35.2178 20.8075 35.2178 19.5704C35.2178 18.9486 34.9485 18.4229 34.5511 18.0255C34.1537 17.6281 33.5832 17.3652 32.9678 17.3652" stroke="#E0027A" stroke-width="1.5" stroke-linejoin="round"/>
<path d="M13.6794 16.6094C12.2242 16.7889 11.2114 18.1158 11.3845 19.5709C11.564 21.026 12.8845 22.0389 14.346 21.8658H17.6088" stroke="#E0027A" stroke-width="1.5" stroke-linejoin="round"/>
<path d="M28.6411 13.7432C29.3462 13.3906 30.186 13.256 30.9809 13.5253C32.5706 14.0509 33.4488 15.7304 32.9232 17.365" stroke="#E0027A" stroke-width="1.5" stroke-linejoin="round"/>
<path d="M21.1411 14.2754C21.5834 12.596 23.1283 11.3203 24.9809 11.3203C27.0065 11.3203 28.686 12.8203 28.9039 14.8011" stroke="#E0027A" stroke-width="1.5" stroke-linejoin="round"/>
<path d="M25.5513 27.5127V32.6281" stroke="#00AEEF" stroke-width="1.5" stroke-linecap="round" stroke-linejoin="round"/>
<path d="M25.5555 35.2379C26.1891 35.2379 26.7027 34.7242 26.7027 34.0906C26.7027 33.457 26.1891 32.9434 25.5555 32.9434C24.9218 32.9434 24.4082 33.457 24.4082 34.0906C24.4082 34.7242 24.9218 35.2379 25.5555 35.2379Z" stroke="#00AEEF" stroke-width="1.5" stroke-linejoin="round"/>
<path d="M19.5984 36.5611C20.2321 36.5611 20.7457 36.0475 20.7457 35.4139C20.7457 34.7803 20.2321 34.2666 19.5984 34.2666C18.9648 34.2666 18.4512 34.7803 18.4512 35.4139C18.4512 36.0475 18.9648 36.5611 19.5984 36.5611Z" stroke="#00AEEF" stroke-width="1.5" stroke-linejoin="round"/>
<path d="M22.3719 27.6855V30.2496C22.3719 30.9996 21.7565 31.615 21.0065 31.615C20.2565 31.615 19.6411 32.2304 19.6411 32.9868V33.9997" stroke="#00AEEF" stroke-width="1.5" stroke-linejoin="round"/>
<path d="M16.2894 38.6793C16.923 38.6793 17.4366 38.1656 17.4366 37.532C17.4366 36.8984 16.923 36.3848 16.2894 36.3848C15.6557 36.3848 15.1421 36.8984 15.1421 37.532C15.1421 38.1656 15.6557 38.6793 16.2894 38.6793Z" stroke="#00AEEF" stroke-width="1.5" stroke-linejoin="round"/>
<path d="M19.2882 27.6855V28.7048C19.2882 29.4548 18.6665 30.0702 17.9165 30.0702H17.7434C16.9934 30.0702 16.3716 30.6855 16.3716 31.4355V36.115" stroke="#00AEEF" stroke-width="1.5" stroke-linejoin="round"/>
<path d="M34.9539 38.6793C35.5875 38.6793 36.1012 38.1656 36.1012 37.532C36.1012 36.8984 35.5875 36.3848 34.9539 36.3848C34.3203 36.3848 33.8066 36.8984 33.8066 37.532C33.8066 38.1656 34.3203 38.6793 34.9539 38.6793Z" stroke="#00AEEF" stroke-width="1.5" stroke-linejoin="round"/>
<path d="M31.9937 27.6855V28.7048C31.9937 29.4548 32.609 30.0702 33.359 30.0702H33.5385C34.2885 30.0702 34.9039 30.6855 34.9039 31.4355V36.115" stroke="#00AEEF" stroke-width="1.5" stroke-linejoin="round"/>
<path d="M31.5569 36.5611C32.1905 36.5611 32.7042 36.0475 32.7042 35.4139C32.7042 34.7803 32.1905 34.2666 31.5569 34.2666C30.9233 34.2666 30.4097 34.7803 30.4097 35.4139C30.4097 36.0475 30.9233 36.5611 31.5569 36.5611Z" stroke="#00AEEF" stroke-width="1.5" stroke-linejoin="round"/>
<path d="M28.7759 27.6855V30.2496C28.7759 30.9996 29.3913 31.615 30.1413 31.615C30.8913 31.615 31.5066 32.2304 31.5066 32.9868V33.9997" stroke="#00AEEF" stroke-width="1.5" stroke-linejoin="round"/>
<path d="M17.6539 23.3206C17.436 21.6027 18.6667 20.013 20.3911 19.7886C21.4937 19.6604 22.5065 20.1027 23.1732 20.8527" stroke="#00AEEF" stroke-width="1.5" stroke-linejoin="round"/>
<path d="M17.6986 23.2754C16.5512 23.41 15.7114 24.5126 15.8909 25.66C16.0191 26.8074 17.0768 27.6408 18.2691 27.4677L33.2755 27.4228C34.2435 27.4228 35.0832 26.5831 35.0384 25.6151C35.0384 25.128 34.8204 24.6856 34.5063 24.378C34.1986 24.0703 33.7178 23.8523 33.2307 23.8523" stroke="#00AEEF" stroke-width="1.5" stroke-linejoin="round"/>
<path d="M29.6987 20.9806C30.2757 20.6729 30.9359 20.628 31.5962 20.8075C32.8782 21.1985 33.5833 22.6152 33.1859 23.8908" stroke="#00AEEF" stroke-width="1.5" stroke-linejoin="round"/>
<path d="M22.8589 20.3652C23.2563 18.8203 24.6666 17.6729 26.3461 17.6729C28.1986 17.6729 29.6986 19.0382 29.9166 20.8459" stroke="#00AEEF" stroke-width="1.5" stroke-linejoin="round"/>
</g>
<defs>
<clipPath id="clip0_106_5064">
<rect width="50" height="50" fill="white"/>
</clipPath>
</defs>
</svg>
