<svg width="40" height="40" viewBox="0 0 40 40" fill="none" xmlns="http://www.w3.org/2000/svg">
<g clip-path="url(#clip0_111_10554)">
<path d="M32 0H8C3.58172 0 0 3.58172 0 8V32C0 36.4183 3.58172 40 8 40H32C36.4183 40 40 36.4183 40 32V8C40 3.58172 36.4183 0 32 0Z" fill="white"/>
<path d="M10.8719 30.0001C10.6479 30.0001 10.4239 29.9121 10.2559 29.7441C9.91991 29.4081 9.91991 28.8561 10.2559 28.5121L28.5199 10.2481C28.8559 9.91209 29.4079 9.91209 29.7519 10.2481C30.0879 10.5841 30.0879 11.1361 29.7519 11.4801L11.4879 29.7441C11.3199 29.9121 11.0959 30.0001 10.8719 30.0001Z" fill="black"/>
<path d="M29.1279 29.9999C28.9039 29.9999 28.6799 29.9119 28.5119 29.7439L10.2559 11.4879C9.91991 11.1519 9.91991 10.5999 10.2559 10.2559C10.5919 9.91991 11.1439 9.91991 11.4879 10.2559L29.7519 28.5199C30.0879 28.8559 30.0879 29.4079 29.7519 29.7519C29.5839 29.9199 29.3599 30.0079 29.1359 30.0079L29.1279 29.9999Z" fill="black"/>
</g>
<defs>
<clipPath id="clip0_111_10554">
<rect width="40" height="40" fill="white"/>
</clipPath>
</defs>
</svg>
