<svg width="12" height="12" viewBox="0 0 12 12" fill="none" xmlns="http://www.w3.org/2000/svg">
<path d="M10.6606 9.33338C10.5338 9.33331 10.4121 9.28287 10.3224 9.19317C10.2327 9.10346 10.1823 8.98181 10.1822 8.85494L10.1816 1.88655L1.06929 10.9989C0.979512 11.0887 0.857743 11.1391 0.730775 11.1391C0.603806 11.1391 0.482037 11.0887 0.392257 10.9989C0.302476 10.9091 0.252038 10.7873 0.252038 10.6604C0.252038 10.5334 0.302476 10.4116 0.392257 10.3219L9.5046 1.20951L2.5362 1.20895C2.41224 1.20457 2.29481 1.15225 2.20866 1.063C2.1225 0.973758 2.07436 0.854556 2.07436 0.730511C2.07436 0.606466 2.1225 0.487264 2.20866 0.398017C2.29481 0.308771 2.41224 0.256448 2.5362 0.252072L10.6606 0.252072C10.7875 0.252151 10.9092 0.302583 10.9989 0.392291C11.0886 0.481998 11.139 0.603646 11.1391 0.730511L11.1391 8.85495C11.139 8.98181 11.0886 9.10346 10.9989 9.19317C10.9092 9.28287 10.7875 9.33331 10.6606 9.33338Z" fill="black"/>
</svg>
