<svg width="72" height="72" viewBox="0 0 72 72" fill="none" xmlns="http://www.w3.org/2000/svg">
<path d="M36 53.846C36.6973 53.846 37.282 53.61 37.754 53.138C38.226 52.6667 38.462 52.0823 38.462 51.385C38.462 50.687 38.226 50.1023 37.754 49.631C37.282 49.159 36.6973 48.923 36 48.923C35.3027 48.923 34.718 49.159 34.246 49.631C33.774 50.1023 33.538 50.687 33.538 51.385C33.538 52.0823 33.774 52.6667 34.246 53.138C34.718 53.61 35.3027 53.846 36 53.846ZM34 40.615H38V16.615H34V40.615ZM36.013 72C31.035 72 26.3547 71.0553 21.972 69.166C17.59 67.2767 13.778 64.7127 10.536 61.474C7.294 58.2353 4.72767 54.4267 2.837 50.048C0.945666 45.67 0 40.9917 0 36.013C0 31.035 0.944666 26.3547 2.834 21.972C4.72333 17.59 7.28733 13.778 10.526 10.536C13.7647 7.294 17.5733 4.72767 21.952 2.837C26.33 0.945666 31.0083 0 35.987 0C40.965 0 45.6453 0.944669 50.028 2.834C54.41 4.72334 58.222 7.28733 61.464 10.526C64.706 13.7647 67.2723 17.5733 69.163 21.952C71.0543 26.33 72 31.0083 72 35.987C72 40.965 71.0553 45.6453 69.166 50.028C67.2767 54.41 64.7127 58.222 61.474 61.464C58.2353 64.706 54.4267 67.2723 50.048 69.163C45.67 71.0543 40.9917 72 36.013 72ZM36 68C44.9333 68 52.5 64.9 58.7 58.7C64.9 52.5 68 44.9333 68 36C68 27.0667 64.9 19.5 58.7 13.3C52.5 7.1 44.9333 4 36 4C27.0667 4 19.5 7.1 13.3 13.3C7.1 19.5 4 27.0667 4 36C4 44.9333 7.1 52.5 13.3 58.7C19.5 64.9 27.0667 68 36 68Z" fill="#9747FF"/>
</svg>
