<svg width="70" height="70" viewBox="0 0 70 70" fill="none" xmlns="http://www.w3.org/2000/svg">
<g clip-path="url(#clip0_106_3154)">
<path d="M35 70C54.33 70 70 54.33 70 35C70 15.67 54.33 0 35 0C15.67 0 0 15.67 0 35C0 54.33 15.67 70 35 70Z" fill="#00AEEF"/>
<path d="M50.2521 32.5347C50.2521 30.9869 49.7154 29.4547 48.7432 28.2336C47.8954 27.1758 46.7443 26.3747 45.4687 25.9624C45.5232 25.6747 45.5543 25.3869 45.5543 25.0913C45.5543 22.6724 43.5865 20.7124 41.1676 20.7124C40.4443 20.7124 39.7443 20.8836 39.1143 21.218C37.6521 19.4602 35.4743 18.4258 33.1798 18.4258C29.0421 18.4258 25.6587 21.7002 25.4798 25.7913C24.0332 26.118 22.7187 26.9191 21.7465 28.0624C20.681 29.3147 20.0898 30.9013 20.0898 32.5347C20.0898 36.058 22.7265 38.9669 26.1254 39.4024C24.951 41.1447 24.2665 43.2369 24.2665 45.4847C24.2665 47.4058 24.7721 49.288 25.7287 50.9447C25.8687 51.1858 26.1798 51.2713 26.4287 51.1313L29.6254 49.288C29.7421 49.218 29.8276 49.1013 29.8587 48.9769C29.8976 48.8447 29.8743 48.6969 29.8121 48.5802C29.2676 47.6469 28.9798 46.5736 28.9798 45.4847C28.9798 42.078 31.7565 39.3013 35.171 39.3013C38.5854 39.3013 41.3621 42.078 41.3621 45.4847C41.3621 46.5736 41.0743 47.6469 40.5298 48.5802C40.4676 48.6969 40.4443 48.8447 40.4832 48.9769C40.5143 49.1013 40.5998 49.218 40.7243 49.288L43.9132 51.1313C43.991 51.178 44.0843 51.2013 44.1698 51.2013C44.3487 51.2013 44.5198 51.108 44.6132 50.9447C45.5698 49.288 46.0754 47.4058 46.0754 45.4847C46.0754 43.2369 45.391 41.1447 44.2165 39.4024C47.6154 38.9669 50.2521 36.058 50.2521 32.5347ZM27.9687 44.9713H25.3087C25.3787 43.548 25.7598 42.2024 26.3743 41.0047L28.6765 42.3347C28.2876 43.1436 28.0387 44.0302 27.9687 44.9713ZM26.3743 49.9724C25.7443 48.7436 25.3787 47.3902 25.3087 46.0058H27.9765C28.0387 46.9236 28.2798 47.818 28.6765 48.6424L26.3743 49.9724ZM29.1976 41.448L26.8876 40.1102C27.6421 38.9513 28.6376 37.9636 29.7965 37.2091L31.1265 39.5113C30.3643 40.0247 29.711 40.6858 29.1976 41.448ZM35.6843 35.6224C37.1076 35.7002 38.4532 36.0736 39.6587 36.688L38.3287 38.998C37.5198 38.6013 36.6254 38.3524 35.6843 38.2902V35.6224ZM34.6576 38.2902C33.7165 38.3524 32.8221 38.6013 32.0132 38.998L30.6832 36.688C31.8887 36.0736 33.2343 35.7002 34.6576 35.6224V38.2902ZM39.2154 39.5113L40.5454 37.2091C41.7043 37.9636 42.6998 38.9513 43.4543 40.1102L41.1443 41.448C40.631 40.6858 39.9776 40.0247 39.2154 39.5113ZM42.3732 44.9713C42.3032 44.0302 42.0543 43.1436 41.6654 42.3347L43.9676 41.0047C44.5821 42.2024 44.9632 43.548 45.0332 44.9713H42.3732ZM43.9754 49.9724L41.6654 48.6424C42.0621 47.818 42.3032 46.9236 42.3732 46.0058H45.0332C44.9632 47.3902 44.5976 48.7436 43.9754 49.9724ZM43.4776 38.4302C41.471 36.0736 38.4921 34.5802 35.171 34.5802C31.8498 34.5802 28.871 36.0736 26.8721 38.4302C23.6832 38.3524 21.1165 35.7391 21.1165 32.5347C21.1165 29.6802 23.2476 27.1836 26.071 26.7247C26.3198 26.6858 26.5065 26.468 26.5065 26.2113C26.5065 22.5324 29.501 19.4602 33.1798 19.4602C35.3032 19.4602 37.3176 20.4791 38.5698 22.198C38.741 22.4236 39.0521 22.478 39.2776 22.3224C39.8376 21.9413 40.491 21.7391 41.1676 21.7391C43.0187 21.7391 44.5276 23.2402 44.5276 25.0913C44.5276 25.4569 44.4654 25.8147 44.3565 26.1569C44.3098 26.2891 44.3176 26.4369 44.3876 26.5613C44.4576 26.6936 44.5821 26.7791 44.7221 26.818C47.3743 27.4636 49.2254 29.8124 49.2254 32.5347C49.2254 35.7391 46.6587 38.3524 43.4776 38.4302ZM38.7643 42.8169L36.3921 44.1936C36.0732 43.8902 35.6454 43.7113 35.171 43.7113C34.191 43.7113 33.3898 44.5047 33.3898 45.4847C33.3898 46.4724 34.191 47.2658 35.171 47.2658C36.151 47.2658 36.9521 46.4724 36.9521 45.4847C36.9521 45.3447 36.9365 45.2124 36.9054 45.0802L39.2776 43.7113C39.5265 43.5636 39.6121 43.2524 39.4721 43.0036C39.3243 42.7624 39.0132 42.6769 38.7643 42.8169ZM35.171 46.2391C34.7587 46.2391 34.4165 45.9047 34.4165 45.4847C34.4165 45.0724 34.7587 44.738 35.171 44.738C35.5832 44.738 35.9254 45.0724 35.9254 45.4847C35.9254 45.9047 35.5832 46.2391 35.171 46.2391ZM43.0887 28.6924C43.291 28.8947 43.291 29.2213 43.0887 29.4236C42.9876 29.5247 42.8554 29.5713 42.7232 29.5713C42.5987 29.5713 42.4665 29.5247 42.3654 29.4236C40.4443 27.5024 37.8854 26.4447 35.171 26.4447C32.4565 26.4447 29.8976 27.5024 27.9765 29.4236C27.7821 29.6258 27.4554 29.6258 27.2532 29.4236C27.051 29.2213 27.051 28.8947 27.2532 28.6924C29.3687 26.5769 32.1765 25.418 35.171 25.418C38.1654 25.418 40.9732 26.5769 43.0887 28.6924ZM41.0743 30.7147C41.2765 30.9091 41.2765 31.2358 41.0743 31.438C40.9732 31.5391 40.841 31.5858 40.7087 31.5858C40.5765 31.5858 40.4521 31.5391 40.351 31.438C37.4965 28.5836 32.8454 28.5836 29.991 31.438C29.7965 31.6402 29.4698 31.6402 29.2676 31.438C29.0654 31.2358 29.0654 30.9091 29.2676 30.7147C32.5265 27.4558 37.8232 27.4558 41.0743 30.7147ZM39.0598 32.7291C39.2621 32.9236 39.2621 33.2502 39.0598 33.4524C38.9587 33.5536 38.8265 33.6002 38.6943 33.6002C38.5621 33.6002 38.4376 33.5536 38.3365 33.4524C36.5865 31.7102 33.7554 31.7102 32.0054 33.4524C31.811 33.6547 31.4843 33.6547 31.2821 33.4524C31.0798 33.2502 31.0798 32.9236 31.2821 32.7291C33.4287 30.5824 36.9132 30.5824 39.0598 32.7291Z" fill="#F7F9FC"/>
</g>
<defs>
<clipPath id="clip0_106_3154">
<rect width="70" height="70" fill="white"/>
</clipPath>
</defs>
</svg>
