<svg width="31" height="31" viewBox="0 0 31 31" fill="none" xmlns="http://www.w3.org/2000/svg">
<path d="M30.0823 15.5628C30.079 12.6727 29.2537 9.84388 27.7039 7.41074C26.1541 4.9776 23.9447 3.04181 21.3366 1.83214C18.7286 0.622467 15.831 0.189479 12.9862 0.584336C10.1415 0.979193 7.46847 2.18539 5.28312 4.06039C3.09778 5.93539 1.49144 8.40082 0.653911 11.1653C-0.183613 13.9298 -0.217308 16.8779 0.556813 19.661C1.33093 22.4442 2.88051 24.9461 5.02243 26.8712C7.16434 28.7963 9.80905 30.0641 12.644 30.5247V19.9427H8.82716V15.5628H12.644V12.2495C12.644 8.45982 14.8971 6.3579 18.3333 6.3579C19.4606 6.37384 20.5851 6.47421 21.6975 6.65818V10.3857H19.7942C19.471 10.3428 19.1424 10.3733 18.8324 10.475C18.5225 10.5768 18.2391 10.7471 18.0032 10.9736C17.7673 11.2001 17.5849 11.4769 17.4693 11.7837C17.3537 12.0905 17.308 12.4195 17.3354 12.7465V15.5628H21.5123L20.823 19.9427H17.3457V30.5247C20.8917 29.9671 24.1234 28.1534 26.4585 25.4103C28.7937 22.6672 30.0788 19.175 30.0823 15.5628Z" fill="#00AEEF"/>
</svg>
