<svg width="20" height="21" viewBox="0 0 20 21" fill="none" xmlns="http://www.w3.org/2000/svg">
<path d="M0.868 20.004C0.644 20.004 0.42 19.916 0.252 19.748C-0.084 19.412 -0.084 18.86 0.252 18.516L18.516 0.252C18.852 -0.084 19.404 -0.084 19.748 0.252C20.084 0.588 20.084 1.14 19.748 1.484L1.484 19.748C1.316 19.916 1.092 20.004 0.868 20.004Z" fill="black"/>
<path d="M19.124 20.0038C18.9 20.0038 18.676 19.9158 18.508 19.7478L0.252 1.49181C-0.084 1.15581 -0.084 0.603813 0.252 0.259813C0.588 -0.0761875 1.14 -0.0761875 1.484 0.259813L19.748 18.5238C20.084 18.8598 20.084 19.4118 19.748 19.7558C19.58 19.9238 19.356 20.0118 19.132 20.0118L19.124 20.0038Z" fill="black"/>
</svg>
