<svg width="573" height="500" viewBox="0 0 573 500" fill="none" xmlns="http://www.w3.org/2000/svg">
<g opacity="0.07">
<path d="M272.05 256.418V314.428H335.724C322.1 334.218 297.935 346.91 272.05 346.91C231.608 346.91 194.321 313.926 194.321 268.68C194.321 223.434 230.819 190.449 272.05 190.449C272.122 190.449 272.193 190.449 272.265 190.449H325.757V103.901H272.265C272.265 103.901 272.122 103.901 272.05 103.901C181.128 103.901 107.702 177.686 107.702 268.68C107.702 359.674 181.056 433.458 272.05 433.458C363.044 433.458 436.828 359.674 436.828 268.68V256.347H272.05V256.418Z" fill="white"/>
<path d="M487.523 1.3624V103.901H436.828V0H351.929V230.46H436.828V190.521H487.523V363.904H572.422V1.3624H487.523Z" fill="white"/>
<path d="M264.808 500.001C138.177 500.001 35.1362 396.818 35.1362 269.9C35.1362 226.159 47.4695 183.567 70.8454 146.782C93.5759 110.929 125.628 82.1038 163.56 63.3887C166.859 61.7395 170.802 63.1019 172.452 66.4004C174.101 69.6988 172.738 73.6426 169.44 75.2918C133.731 92.9313 103.471 120.108 82.1031 153.881C60.0896 188.586 48.4734 228.669 48.4734 269.9C48.4734 389.432 145.562 486.664 264.808 486.664C296.501 486.664 327.048 479.924 355.658 466.73C358.957 465.153 362.972 466.659 364.478 469.957C366.055 473.255 364.55 477.271 361.251 478.777C330.92 492.831 298.438 499.93 264.808 499.93" fill="white"/>
<path d="M270.83 469.453C160.405 469.453 70.4863 379.392 70.4863 268.679C70.4863 157.966 160.333 67.9043 270.83 67.9043H324.538C328.195 67.9043 331.206 70.8442 331.206 74.5729C331.206 78.2298 328.266 81.2415 324.538 81.2415H270.83C167.719 81.2415 83.8235 165.352 83.8235 268.679C83.8235 372.006 167.719 456.116 270.83 456.116C373.943 456.116 458.268 372.006 458.268 268.679V256.991C458.268 253.334 461.208 250.322 464.936 250.322C468.665 250.322 471.605 253.262 471.605 256.991V268.679C471.605 379.392 381.543 469.453 270.83 469.453Z" fill="white"/>
<path d="M114.8 484.727C113.438 484.727 112.075 484.297 110.928 483.436C77.3699 459.2 49.4765 427.004 30.3313 390.363C10.469 352.503 0 309.766 0 266.815C0 207.443 19.0736 151.226 55.213 104.259C57.4358 101.319 61.5947 100.817 64.5346 103.04C67.4745 105.263 67.9765 109.422 65.7536 112.362C31.4069 157.034 13.2655 210.455 13.2655 266.887C13.2655 307.687 23.2325 348.272 42.0192 384.268C60.2323 419.117 86.7632 449.663 118.672 472.752C121.612 474.903 122.329 479.062 120.178 482.002C118.887 483.795 116.879 484.727 114.8 484.727Z" fill="white"/>
</g>
</svg>
