<svg width="62" height="62" viewBox="0 0 62 62" fill="none" xmlns="http://www.w3.org/2000/svg">
<path d="M60.2311 31.0001C60.2311 14.8563 47.144 1.76929 31.0003 1.76929C14.8566 1.76929 1.76953 14.8563 1.76953 31.0001C1.76953 47.1438 14.8566 60.2308 31.0003 60.2308C47.144 60.2308 60.2311 47.1438 60.2311 31.0001Z" stroke="#3271B2" stroke-width="2"/>
<path d="M29.4385 13.3691H30.8769V15.9768H29.4385V13.3691Z" fill="#E0027A"/>
<path d="M33.7539 17.2539L35.6001 15.4077L36.6078 16.4231L34.7693 18.2693L33.7539 17.2539Z" fill="#E0027A"/>
<path d="M23.5693 16.4231L24.5847 15.4077L26.4309 17.2539L25.4155 18.2616L23.5693 16.4231Z" fill="#E0027A"/>
<path d="M21.708 20.2615H24.3157V21.6922H21.708V20.2615Z" fill="#E0027A"/>
<path d="M36.123 20.2615H38.7307V21.6922H36.123V20.2615Z" fill="#E0027A"/>
<path d="M47.5304 25.3693L38.2535 25.3155L38.6612 27.0155L33.7535 24.854C31.6227 23.8001 29.092 24.3155 27.4843 26.1309L27.2689 26.3847L21.7689 26.4386L22.1766 24.6463L12.915 24.6924L12.9227 26.1309L20.4535 26.0924L17.492 39.0309L13.015 39.077L13.0227 40.5078L18.5612 40.4617L19.0612 38.2693L22.0997 42.3155C22.3304 42.5078 27.6304 46.9155 28.1689 47.3617C28.6997 47.8924 29.4458 48.1001 30.1612 47.9232C30.8689 47.7463 31.4458 47.2078 31.7073 46.477C32.2766 46.8463 32.9843 46.9155 33.6073 46.6617C34.2304 46.4078 34.715 45.8693 34.915 45.1847C35.4997 45.5001 36.1766 45.5232 36.7766 45.254C37.3766 44.977 37.8227 44.4386 38.0073 43.777C38.8304 44.1155 39.7689 43.9078 40.3843 43.2386C41.2227 42.3155 41.2073 40.8463 40.3458 39.954L39.8535 39.4463L41.392 38.4078L41.892 40.4617L47.415 40.5078L47.4227 39.077L42.9381 39.0309L39.9997 26.7617L47.5227 26.8001L47.5304 25.3693ZM39.415 42.2309C39.092 42.5847 38.5689 42.5924 38.2381 42.2463L37.4304 41.4463L33.3766 37.2309L32.4304 38.2616L36.492 42.4847C36.8227 42.8232 36.8304 43.3847 36.5073 43.7386C36.1843 44.0847 35.6612 44.0924 35.3304 43.754L34.3458 42.8155L31.2689 39.6001L30.3227 40.6232L33.415 43.854C33.7458 44.2001 33.7535 44.7617 33.4304 45.1078C33.1073 45.4617 32.5766 45.4693 32.2535 45.1232L31.192 44.0309L29.4612 42.2001L29.2073 41.9309L28.7304 42.4386L28.2535 42.954L30.2304 45.0386C30.5535 45.377 30.5766 45.9386 30.2612 46.2847C29.9381 46.6309 29.4073 46.6386 29.0766 46.2924C28.9073 46.1617 25.3843 43.2232 23.0612 41.2847L19.4612 36.5078L21.4381 27.877L26.0381 27.8309L23.8073 30.4617C23.0381 31.377 23.0997 32.7847 23.9458 33.6232C25.1227 34.7617 26.9458 34.6924 28.0458 33.4617L29.392 31.9463L30.2612 31.9617H30.3381L30.7381 31.9693L39.3997 40.977C39.7304 41.3232 39.7381 41.8847 39.415 42.2309ZM41.0458 36.9463L38.8612 38.4078L32.6689 31.9617H33.9227V30.5232H30.3458L28.815 30.5001L27.0612 32.477C26.4689 33.1386 25.492 33.177 24.8612 32.5617C24.5535 32.2617 24.5304 31.754 24.815 31.4232L28.4689 27.1078C29.6843 25.7463 31.592 25.3617 33.192 26.1617L39.0766 28.754L41.0458 36.9463Z" fill="#00AEEF"/>
</svg>
