<svg width="14" height="17" viewBox="0 0 14 17" fill="none" xmlns="http://www.w3.org/2000/svg">
<g clip-path="url(#clip0_111_6230)">
<path d="M13.7144 2.50022C13.7144 1.39512 10.6425 0.5 6.85722 0.5C3.07194 0.5 0 1.39512 0 2.50022C0 3.60531 3.07022 4.49986 6.85722 4.49986C10.6442 4.49986 13.7144 3.60646 13.7144 2.50022Z" fill="#D3D3D3"/>
<path d="M6.85722 8.50007C10.6431 8.50007 13.7144 7.60553 13.7144 6.49986V2.5C13.7144 3.60567 10.6431 4.50021 6.85722 4.50021C3.07137 4.50021 0 3.60567 0 2.5V6.49986C0 7.60553 3.07137 8.50007 6.85722 8.50007Z" fill="#E8E9EC"/>
<path d="M6.85722 12.5001C10.6431 12.5001 13.7144 11.6055 13.7144 10.4999V6.5C13.7144 7.60567 10.6431 8.50022 6.85722 8.50022C3.07137 8.50022 0 7.60567 0 6.5V10.4999C0 11.6055 3.07137 12.5001 6.85722 12.5001Z" fill="#D3D3D3"/>
<path d="M13.7144 10.5C13.7144 11.6057 10.6431 12.5002 6.85722 12.5002C3.07137 12.5002 0 11.6057 0 10.5V14.4999C0 15.6055 3.07137 16.5001 6.85722 16.5001C10.6431 16.5001 13.7144 15.6061 13.7144 14.4999V10.5Z" fill="#E8E9EC"/>
</g>
<defs>
<clipPath id="clip0_111_6230">
<rect width="13.7144" height="16" fill="white" transform="translate(0 0.5)"/>
</clipPath>
</defs>
</svg>
