<svg width="47" height="200" viewBox="0 0 47 200" fill="none" xmlns="http://www.w3.org/2000/svg">
<mask id="mask0_67_14413" style="mask-type:alpha" maskUnits="userSpaceOnUse" x="-1" y="-1" width="48" height="202">
<path d="M46.9484 0H0V200H46.9484V0Z" fill="white"/>
<path d="M46.4791 0.469727H0.469727V199.531H46.4791V0.469727Z" stroke="#707070"/>
</mask>
<g mask="url(#mask0_67_14413)">
<path d="M15.6434 204.883H31.0519C31.1833 204.883 31.296 204.779 31.296 204.648V189.869C31.296 189.737 31.1833 189.634 31.0519 189.634H15.6434C15.512 189.634 15.4087 189.737 15.4087 189.869V204.648C15.4087 204.779 15.512 204.883 15.6434 204.883ZM30.8171 204.404H15.8876V190.113H30.8171V204.404Z" fill="#3271B2"/>
<path d="M31.0519 204.883C31.1833 204.883 31.296 204.779 31.296 204.648V189.869C31.296 189.737 31.1833 189.634 31.0519 189.634H15.6434C15.512 189.634 15.4087 189.737 15.4087 189.869V204.648C15.4087 204.779 15.512 204.883 15.6434 204.883H31.0519ZM15.8876 204.404V190.113H30.8171V204.404H15.8876Z" stroke="#3271B2" stroke-width="0.5"/>
<path d="M15.6437 190.112H31.0521C31.0991 190.112 31.1366 190.103 31.1742 190.084L40.4418 184.713C40.5357 184.666 40.5826 184.554 40.5544 184.45C40.5263 184.338 40.4324 184.263 40.3197 184.263H6.37605C6.27276 184.263 6.17887 184.338 6.1507 184.45C6.12253 184.554 6.16948 184.666 6.26337 184.713L15.531 190.084C15.5591 190.103 15.6061 190.112 15.6437 190.112ZM30.9864 189.634H15.7094L7.27746 184.751H39.4183L30.9864 189.634Z" fill="#3271B2"/>
<path d="M31.0521 190.112C31.0991 190.112 31.1366 190.103 31.1742 190.084L40.4418 184.713C40.5357 184.666 40.5826 184.554 40.5544 184.45C40.5263 184.338 40.4324 184.263 40.3197 184.263H6.37605C6.27276 184.263 6.17887 184.338 6.1507 184.45C6.12253 184.554 6.16948 184.666 6.26337 184.713L15.531 190.084C15.5591 190.103 15.6061 190.112 15.6437 190.112H31.0521ZM15.7094 189.634L7.27746 184.751H39.4183L30.9864 189.634H15.7094Z" stroke="#3271B2" stroke-width="0.5"/>
<path d="M4.08495 184.751H42.6202C42.7516 184.751 42.8549 184.638 42.8549 184.507V181.061C42.8549 180.93 42.7516 180.817 42.6202 180.817H4.08495C3.9535 180.817 3.84082 180.93 3.84082 181.061V184.507C3.84082 184.638 3.9535 184.751 4.08495 184.751ZM42.376 184.263H4.31969V181.305H42.376V184.263Z" fill="#3271B2"/>
<path d="M42.6202 184.751C42.7516 184.751 42.8549 184.638 42.8549 184.507V181.061C42.8549 180.93 42.7516 180.817 42.6202 180.817H4.08495C3.9535 180.817 3.84082 180.93 3.84082 181.061V184.507C3.84082 184.638 3.9535 184.751 4.08495 184.751H42.6202ZM4.31969 184.263V181.305H42.376V184.263H4.31969Z" stroke="#3271B2" stroke-width="0.5"/>
<path d="M44.8546 181.061H1.84049L1.17383 174.498H45.5306L44.8546 181.061Z" fill="#00AEEF"/>
<path d="M1.84082 181.305H44.8549C44.9864 181.305 45.0803 181.211 45.099 181.08L45.7657 174.516C45.7751 174.451 45.7563 174.385 45.7094 174.329C45.6624 174.282 45.5967 174.253 45.531 174.253H1.17415C1.09904 174.253 1.03331 174.282 0.995749 174.329C0.948801 174.385 0.920632 174.451 0.930022 174.516L1.60608 181.08C1.61547 181.211 1.71875 181.305 1.84082 181.305ZM44.6389 180.817H2.05678L1.43706 174.732H45.268L44.6389 180.817Z" fill="#3271B2"/>
<path d="M44.8549 181.305C44.9864 181.305 45.0803 181.211 45.099 181.08L45.7657 174.516C45.7751 174.451 45.7563 174.385 45.7094 174.329C45.6624 174.282 45.5967 174.253 45.531 174.253H1.17415C1.09904 174.253 1.03331 174.282 0.995749 174.329C0.948801 174.385 0.920632 174.451 0.930022 174.516L1.60608 181.08C1.61547 181.211 1.71875 181.305 1.84082 181.305H44.8549ZM2.05678 180.817L1.43706 174.732H45.268L44.6389 180.817H2.05678Z" stroke="#3271B2" stroke-width="0.5"/>
<path d="M0.103516 164.047H46.6012L45.9533 170.404H0.751403L0.103516 164.047Z" fill="#00AEEF"/>
<path d="M0.751394 170.648H45.9533C46.0753 170.648 46.1692 170.554 46.188 170.422L46.8359 164.075C46.8453 164.009 46.8171 163.943 46.7796 163.887C46.7326 163.84 46.6669 163.812 46.6012 163.812H0.103506C0.0377787 163.812 -0.0279489 163.84 -0.0748973 163.887C-0.121846 163.943 -0.140625 164.009 -0.140625 164.075L0.507262 170.422C0.526042 170.554 0.629328 170.648 0.751394 170.648ZM45.7373 170.159H0.967356L0.366417 164.291H46.3289L45.7373 170.159Z" fill="#3271B2"/>
<path d="M45.9533 170.648C46.0753 170.648 46.1692 170.554 46.188 170.422L46.8359 164.075C46.8453 164.009 46.8171 163.943 46.7796 163.887C46.7326 163.84 46.6669 163.812 46.6012 163.812H0.103506C0.0377787 163.812 -0.0279489 163.84 -0.0748973 163.887C-0.121846 163.943 -0.140625 164.009 -0.140625 164.075L0.507262 170.422C0.526042 170.554 0.629328 170.648 0.751394 170.648H45.9533ZM0.967356 170.159L0.366417 164.291H46.3289L45.7373 170.159H0.967356Z" stroke="#3271B2" stroke-width="0.5"/>
<path d="M1.1646 174.732H45.5308C45.6529 174.732 45.7562 174.639 45.7655 174.516L46.1881 170.423C46.1975 170.357 46.1693 170.291 46.1223 170.244C46.0848 170.188 46.0191 170.16 45.9439 170.16H0.751456C0.685728 170.16 0.62 170.188 0.573052 170.244C0.526104 170.291 0.507324 170.357 0.507324 170.423L0.929859 174.516C0.939249 174.639 1.04254 174.732 1.1646 174.732ZM45.3148 174.254H1.38056L1.01437 170.639H45.681L45.3148 174.254Z" fill="#3271B2"/>
<path d="M45.5308 174.732C45.6529 174.732 45.7562 174.639 45.7655 174.516L46.1881 170.423C46.1975 170.357 46.1693 170.291 46.1223 170.244C46.0848 170.188 46.0191 170.16 45.9439 170.16H0.751456C0.685728 170.16 0.62 170.188 0.573052 170.244C0.526104 170.291 0.507324 170.357 0.507324 170.423L0.929859 174.516C0.939249 174.639 1.04254 174.732 1.1646 174.732H45.5308ZM1.38056 174.254L1.01437 170.639H45.681L45.3148 174.254H1.38056Z" stroke="#3271B2" stroke-width="0.5"/>
<path d="M1.58691 159.85V157.7C1.58691 155.333 3.48363 153.418 5.82166 153.418H40.8827C43.2207 153.418 45.108 155.333 45.108 157.7V159.85H1.58691Z" fill="#00AEEF"/>
<path d="M1.58728 160.094H45.1084C45.2399 160.094 45.3525 159.991 45.3525 159.85V157.7C45.3525 155.211 43.3432 153.183 40.8831 153.183H5.82202C3.35254 153.183 1.35254 155.211 1.35254 157.7V159.85C1.35254 159.991 1.45583 160.094 1.58728 160.094ZM44.8737 159.615H1.83141V157.7C1.83141 155.474 3.61545 153.662 5.82202 153.662H40.8831C43.0802 153.662 44.8737 155.474 44.8737 157.7V159.615Z" fill="#3271B2"/>
<path d="M45.1084 160.094C45.2399 160.094 45.3525 159.991 45.3525 159.85V157.7C45.3525 155.211 43.3432 153.183 40.8831 153.183H5.82202C3.35254 153.183 1.35254 155.211 1.35254 157.7V159.85C1.35254 159.991 1.45583 160.094 1.58728 160.094H45.1084ZM1.83141 159.615V157.7C1.83141 155.474 3.61545 153.662 5.82202 153.662H40.8831C43.0802 153.662 44.8737 155.474 44.8737 157.7V159.615H1.83141Z" stroke="#3271B2" stroke-width="0.5"/>
<path d="M0.751456 164.291H45.9533C46.0848 164.291 46.1881 164.188 46.1881 164.047V159.85C46.1881 159.719 46.0848 159.615 45.9533 159.615H0.751456C0.62 159.615 0.507324 159.719 0.507324 159.85V164.047C0.507324 164.188 0.62 164.291 0.751456 164.291ZM45.7092 163.812H0.986197V160.094H45.7092V163.812Z" fill="#3271B2"/>
<path d="M45.9533 164.291C46.0848 164.291 46.1881 164.188 46.1881 164.047V159.85C46.1881 159.719 46.0848 159.615 45.9533 159.615H0.751456C0.62 159.615 0.507324 159.719 0.507324 159.85V164.047C0.507324 164.188 0.62 164.291 0.751456 164.291H45.9533ZM0.986197 163.812V160.094H45.7092V163.812H0.986197Z" stroke="#3271B2" stroke-width="0.5"/>
<path d="M25.43 81.5674H21.2793V153.428H25.43V81.5674Z" fill="white"/>
<path d="M21.2773 153.662H25.4276C25.559 153.662 25.6623 153.558 25.6623 153.418V81.5585C25.6623 81.427 25.559 81.3237 25.4276 81.3237H21.2773C21.1459 81.3237 21.0332 81.427 21.0332 81.5585V153.418C21.0332 153.558 21.1459 153.662 21.2773 153.662ZM25.1834 153.183H21.5121V81.8026H25.1834V153.183Z" fill="#3271B2"/>
<path d="M25.4276 153.662C25.559 153.662 25.6623 153.558 25.6623 153.418V81.5585C25.6623 81.427 25.559 81.3237 25.4276 81.3237H21.2773C21.1459 81.3237 21.0332 81.427 21.0332 81.5585V153.418C21.0332 153.558 21.1459 153.662 21.2773 153.662H25.4276ZM21.5121 153.183V81.8026H25.1834V153.183H21.5121Z" stroke="#3271B2" stroke-width="0.5"/>
<path d="M25.43 75.2622H21.2793V81.5678H25.43V75.2622Z" fill="white"/>
<path d="M21.2773 81.8029H25.4276C25.559 81.8029 25.6623 81.6996 25.6623 81.5682V75.2583C25.6623 75.1268 25.559 75.0142 25.4276 75.0142H21.2773C21.1459 75.0142 21.0332 75.1268 21.0332 75.2583V81.5682C21.0332 81.6996 21.1459 81.8029 21.2773 81.8029ZM25.1834 81.324H21.5121V75.5024H25.1834V81.324Z" fill="#3271B2"/>
<path d="M25.4276 81.8029C25.559 81.8029 25.6623 81.6996 25.6623 81.5682V75.2583C25.6623 75.1268 25.559 75.0142 25.4276 75.0142H21.2773C21.1459 75.0142 21.0332 75.1268 21.0332 75.2583V81.5682C21.0332 81.6996 21.1459 81.8029 21.2773 81.8029H25.4276ZM21.5121 81.324V75.5024H25.1834V81.324H21.5121Z" stroke="#3271B2" stroke-width="0.5"/>
<path d="M25.43 68.2686H21.2793V69.7797H25.43V68.2686Z" fill="white"/>
<path d="M21.2773 70.0186H25.4276C25.559 70.0186 25.6623 69.9059 25.6623 69.7744V68.2627C25.6623 68.1312 25.559 68.0186 25.4276 68.0186H21.2773C21.1459 68.0186 21.0332 68.1312 21.0332 68.2627V69.7744C21.0332 69.9059 21.1459 70.0186 21.2773 70.0186ZM25.1834 69.5303H21.5121V68.5068H25.1834V69.5303Z" fill="#3271B2"/>
<path d="M25.4276 70.0186C25.559 70.0186 25.6623 69.9059 25.6623 69.7744V68.2627C25.6623 68.1312 25.559 68.0186 25.4276 68.0186H21.2773C21.1459 68.0186 21.0332 68.1312 21.0332 68.2627V69.7744C21.0332 69.9059 21.1459 70.0186 21.2773 70.0186H25.4276ZM21.5121 69.5303V68.5068H25.1834V69.5303H21.5121Z" stroke="#3271B2" stroke-width="0.5"/>
<path d="M27.0714 69.7798H19.6377V75.2621H27.0714V69.7798Z" fill="white"/>
<path d="M19.6338 75.5026H27.0704C27.2019 75.5026 27.3051 75.3899 27.3051 75.2585V69.7749C27.3051 69.6434 27.2019 69.5308 27.0704 69.5308H19.6338C19.5023 69.5308 19.3896 69.6434 19.3896 69.7749V75.2585C19.3896 75.3899 19.5023 75.5026 19.6338 75.5026ZM26.8263 75.0143H19.8685V70.019H26.8263V75.0143Z" fill="#3271B2"/>
<path d="M27.0704 75.5026C27.2019 75.5026 27.3051 75.3899 27.3051 75.2585V69.7749C27.3051 69.6434 27.2019 69.5308 27.0704 69.5308H19.6338C19.5023 69.5308 19.3896 69.6434 19.3896 69.7749V75.2585C19.3896 75.3899 19.5023 75.5026 19.6338 75.5026H27.0704ZM19.8685 75.0143V70.019H26.8263V75.0143H19.8685Z" stroke="#3271B2" stroke-width="0.5"/>
<path d="M25.43 61.2749H21.2793V62.7857H25.43V61.2749Z" fill="white"/>
<path d="M21.2773 63.0233H25.4276C25.559 63.0233 25.6623 62.9106 25.6623 62.7792V61.2675C25.6623 61.136 25.559 61.0327 25.4276 61.0327H21.2773C21.1459 61.0327 21.0332 61.136 21.0332 61.2675V62.7792C21.0332 62.9106 21.1459 63.0233 21.2773 63.0233ZM25.1834 62.5445H21.5121V61.5116H25.1834V62.5445Z" fill="#3271B2"/>
<path d="M25.4276 63.0233C25.559 63.0233 25.6623 62.9106 25.6623 62.7792V61.2675C25.6623 61.136 25.559 61.0327 25.4276 61.0327H21.2773C21.1459 61.0327 21.0332 61.136 21.0332 61.2675V62.7792C21.0332 62.9106 21.1459 63.0233 21.2773 63.0233H25.4276ZM21.5121 62.5445V61.5116H25.1834V62.5445H21.5121Z" stroke="#3271B2" stroke-width="0.5"/>
<path d="M27.0714 62.7861H19.6377V68.2681H27.0714V62.7861Z" fill="white"/>
<path d="M19.6338 68.5069H27.0704C27.2019 68.5069 27.3051 68.3942 27.3051 68.2627V62.7792C27.3051 62.6477 27.2019 62.5444 27.0704 62.5444H19.6338C19.5023 62.5444 19.3896 62.6477 19.3896 62.7792V68.2627C19.3896 68.3942 19.5023 68.5069 19.6338 68.5069ZM26.8263 68.0186H19.8685V63.0233H26.8263V68.0186Z" fill="#3271B2"/>
<path d="M27.0704 68.5069C27.2019 68.5069 27.3051 68.3942 27.3051 68.2627V62.7792C27.3051 62.6477 27.2019 62.5444 27.0704 62.5444H19.6338C19.5023 62.5444 19.3896 62.6477 19.3896 62.7792V68.2627C19.3896 68.3942 19.5023 68.5069 19.6338 68.5069H27.0704ZM19.8685 68.0186V63.0233H26.8263V68.0186H19.8685Z" stroke="#3271B2" stroke-width="0.5"/>
<path d="M25.43 54.2832H21.2793V55.7937H25.43V54.2832Z" fill="white"/>
<path d="M21.2773 56.0282H25.4276C25.559 56.0282 25.6623 55.9249 25.6623 55.7841V54.2817C25.6623 54.1409 25.559 54.0376 25.4276 54.0376H21.2773C21.1459 54.0376 21.0332 54.1409 21.0332 54.2817V55.7841C21.0332 55.9249 21.1459 56.0282 21.2773 56.0282ZM25.1834 55.5493H21.5121V54.5165H25.1834V55.5493Z" fill="#3271B2"/>
<path d="M25.4276 56.0282C25.559 56.0282 25.6623 55.9249 25.6623 55.7841V54.2817C25.6623 54.1409 25.559 54.0376 25.4276 54.0376H21.2773C21.1459 54.0376 21.0332 54.1409 21.0332 54.2817V55.7841C21.0332 55.9249 21.1459 56.0282 21.2773 56.0282H25.4276ZM21.5121 55.5493V54.5165H25.1834V55.5493H21.5121Z" stroke="#3271B2" stroke-width="0.5"/>
<path d="M27.0714 55.7935H19.6377V61.2758H27.0714V55.7935Z" fill="white"/>
<path d="M19.6338 61.5118H27.0704C27.2019 61.5118 27.3051 61.4085 27.3051 61.2676V55.7841C27.3051 55.6526 27.2019 55.5493 27.0704 55.5493H19.6338C19.5023 55.5493 19.3896 55.6526 19.3896 55.7841V61.2676C19.3896 61.4085 19.5023 61.5118 19.6338 61.5118ZM26.8263 61.0329H19.8685V56.0282H26.8263V61.0329Z" fill="#3271B2"/>
<path d="M27.0704 61.5118C27.2019 61.5118 27.3051 61.4085 27.3051 61.2676V55.7841C27.3051 55.6526 27.2019 55.5493 27.0704 55.5493H19.6338C19.5023 55.5493 19.3896 55.6526 19.3896 55.7841V61.2676C19.3896 61.4085 19.5023 61.5118 19.6338 61.5118H27.0704ZM19.8685 61.0329V56.0282H26.8263V61.0329H19.8685Z" stroke="#3271B2" stroke-width="0.5"/>
<path d="M25.43 47.2896H21.2793V48.8003H25.43V47.2896Z" fill="white"/>
<path d="M21.2773 49.0425H25.4276C25.559 49.0425 25.6623 48.9298 25.6623 48.7984V47.2866C25.6623 47.1552 25.559 47.0425 25.4276 47.0425H21.2773C21.1459 47.0425 21.0332 47.1552 21.0332 47.2866V48.7984C21.0332 48.9298 21.1459 49.0425 21.2773 49.0425ZM25.1834 48.5542H21.5121V47.5307H25.1834V48.5542Z" fill="#3271B2"/>
<path d="M25.4276 49.0425C25.559 49.0425 25.6623 48.9298 25.6623 48.7984V47.2866C25.6623 47.1552 25.559 47.0425 25.4276 47.0425H21.2773C21.1459 47.0425 21.0332 47.1552 21.0332 47.2866V48.7984C21.0332 48.9298 21.1459 49.0425 21.2773 49.0425H25.4276ZM21.5121 48.5542V47.5307H25.1834V48.5542H21.5121Z" stroke="#3271B2" stroke-width="0.5"/>
<path d="M19.6338 54.5166H27.0704C27.2019 54.5166 27.3051 54.4134 27.3051 54.2819V48.7983C27.3051 48.6669 27.2019 48.5542 27.0704 48.5542H19.6338C19.5023 48.5542 19.3896 48.6669 19.3896 48.7983V54.2819C19.3896 54.4134 19.5023 54.5166 19.6338 54.5166ZM26.8263 54.0378H19.8685V49.0331H26.8263V54.0378Z" fill="#3271B2"/>
<path d="M27.0704 54.5166C27.2019 54.5166 27.3051 54.4134 27.3051 54.2819V48.7983C27.3051 48.6669 27.2019 48.5542 27.0704 48.5542H19.6338C19.5023 48.5542 19.3896 48.6669 19.3896 48.7983V54.2819C19.3896 54.4134 19.5023 54.5166 19.6338 54.5166H27.0704ZM19.8685 54.0378V49.0331H26.8263V54.0378H19.8685Z" stroke="#3271B2" stroke-width="0.5"/>
<path d="M25.43 40.2959H21.2793V41.8067H25.43V40.2959Z" fill="white"/>
<path d="M21.2773 42.0469H25.4276C25.559 42.0469 25.6623 41.9342 25.6623 41.8027V40.291C25.6623 40.1595 25.559 40.0469 25.4276 40.0469H21.2773C21.1459 40.0469 21.0332 40.1595 21.0332 40.291V41.8027C21.0332 41.9342 21.1459 42.0469 21.2773 42.0469ZM25.1834 41.5586H21.5121V40.5351H25.1834V41.5586Z" fill="#3271B2"/>
<path d="M25.4276 42.0469C25.559 42.0469 25.6623 41.9342 25.6623 41.8027V40.291C25.6623 40.1595 25.559 40.0469 25.4276 40.0469H21.2773C21.1459 40.0469 21.0332 40.1595 21.0332 40.291V41.8027C21.0332 41.9342 21.1459 42.0469 21.2773 42.0469H25.4276ZM21.5121 41.5586V40.5351H25.1834V41.5586H21.5121Z" stroke="#3271B2" stroke-width="0.5"/>
<path d="M27.0714 41.8071H19.6377V47.2894H27.0714V41.8071Z" fill="white"/>
<path d="M19.6338 47.5304H27.0704C27.2019 47.5304 27.3051 47.4178 27.3051 47.2863V41.8027C27.3051 41.6713 27.2019 41.5586 27.0704 41.5586H19.6338C19.5023 41.5586 19.3896 41.6713 19.3896 41.8027V47.2863C19.3896 47.4178 19.5023 47.5304 19.6338 47.5304ZM26.8263 47.0422H19.8685V42.0469H26.8263V47.0422Z" fill="#3271B2"/>
<path d="M27.0704 47.5304C27.2019 47.5304 27.3051 47.4178 27.3051 47.2863V41.8027C27.3051 41.6713 27.2019 41.5586 27.0704 41.5586H19.6338C19.5023 41.5586 19.3896 41.6713 19.3896 41.8027V47.2863C19.3896 47.4178 19.5023 47.5304 19.6338 47.5304H27.0704ZM19.8685 47.0422V42.0469H26.8263V47.0422H19.8685Z" stroke="#3271B2" stroke-width="0.5"/>
<path d="M25.43 33.3032H21.2793V34.8137H25.43V33.3032Z" fill="white"/>
<path d="M21.2773 35.0516H25.4276C25.559 35.0516 25.6623 34.939 25.6623 34.8075V33.2958C25.6623 33.1643 25.559 33.061 25.4276 33.061H21.2773C21.1459 33.061 21.0332 33.1643 21.0332 33.2958V34.8075C21.0332 34.939 21.1459 35.0516 21.2773 35.0516ZM25.1834 34.5634H21.5121V33.5399H25.1834V34.5634Z" fill="#3271B2"/>
<path d="M25.4276 35.0516C25.559 35.0516 25.6623 34.939 25.6623 34.8075V33.2958C25.6623 33.1643 25.559 33.061 25.4276 33.061H21.2773C21.1459 33.061 21.0332 33.1643 21.0332 33.2958V34.8075C21.0332 34.939 21.1459 35.0516 21.2773 35.0516H25.4276ZM21.5121 34.5634V33.5399H25.1834V34.5634H21.5121Z" stroke="#3271B2" stroke-width="0.5"/>
<path d="M27.0714 34.8145H19.6377V40.2968H27.0714V34.8145Z" fill="white"/>
<path d="M19.6338 40.5353H27.0704C27.2019 40.5353 27.3051 40.4226 27.3051 40.2912V34.8076C27.3051 34.6762 27.2019 34.5635 27.0704 34.5635H19.6338C19.5023 34.5635 19.3896 34.6762 19.3896 34.8076V40.2912C19.3896 40.4226 19.5023 40.5353 19.6338 40.5353ZM26.8263 40.047H19.8685V35.0517H26.8263V40.047Z" fill="#3271B2"/>
<path d="M27.0704 40.5353C27.2019 40.5353 27.3051 40.4226 27.3051 40.2912V34.8076C27.3051 34.6762 27.2019 34.5635 27.0704 34.5635H19.6338C19.5023 34.5635 19.3896 34.6762 19.3896 34.8076V40.2912C19.3896 40.4226 19.5023 40.5353 19.6338 40.5353H27.0704ZM19.8685 40.047V35.0517H26.8263V40.047H19.8685Z" stroke="#3271B2" stroke-width="0.5"/>
<path d="M29.3285 30.9458H17.3804V33.3041H29.3285V30.9458Z" fill="white"/>
<path d="M17.371 33.5398H29.324C29.4555 33.5398 29.5588 33.4365 29.5588 33.2956V30.9388C29.5588 30.8074 29.4555 30.7041 29.324 30.7041H17.371C17.2395 30.7041 17.1362 30.8074 17.1362 30.9388V33.2956C17.1362 33.4365 17.2395 33.5398 17.371 33.5398ZM29.0799 33.0609H17.6151V31.183H29.0799V33.0609Z" fill="#3271B2"/>
<path d="M29.324 33.5398C29.4555 33.5398 29.5588 33.4365 29.5588 33.2956V30.9388C29.5588 30.8074 29.4555 30.7041 29.324 30.7041H17.371C17.2395 30.7041 17.1362 30.8074 17.1362 30.9388V33.2956C17.1362 33.4365 17.2395 33.5398 17.371 33.5398H29.324ZM17.6151 33.0609V31.183H29.0799V33.0609H17.6151Z" stroke="#3271B2" stroke-width="0.5"/>
<path d="M27.0714 28.5874H19.6377V30.9457H27.0714V28.5874Z" fill="white"/>
<path d="M19.6338 31.183H27.0704C27.2019 31.183 27.3051 31.0703 27.3051 30.9388V28.582C27.3051 28.4506 27.2019 28.3379 27.0704 28.3379H19.6338C19.5023 28.3379 19.3896 28.4506 19.3896 28.582V30.9388C19.3896 31.0703 19.5023 31.183 19.6338 31.183ZM26.8263 30.7041H19.8685V28.8262H26.8263V30.7041Z" fill="#3271B2"/>
<path d="M27.0704 31.183C27.2019 31.183 27.3051 31.0703 27.3051 30.9388V28.582C27.3051 28.4506 27.2019 28.3379 27.0704 28.3379H19.6338C19.5023 28.3379 19.3896 28.4506 19.3896 28.582V30.9388C19.3896 31.0703 19.5023 31.183 19.6338 31.183H27.0704ZM19.8685 30.7041V28.8262H26.8263V30.7041H19.8685Z" stroke="#3271B2" stroke-width="0.5"/>
<path d="M25.1502 8.74805H21.5591V28.587H25.1502V8.74805Z" fill="white"/>
<path d="M21.5591 28.8262H25.1459C25.2774 28.8262 25.3807 28.7135 25.3807 28.5821V8.74169C25.3807 8.61023 25.2774 8.49756 25.1459 8.49756H21.5591C21.4182 8.49756 21.3149 8.61023 21.3149 8.74169V28.5821C21.3149 28.7135 21.4182 28.8262 21.5591 28.8262ZM24.9018 28.3379H21.7938V8.98582H24.9018V28.3379Z" fill="#3271B2"/>
<path d="M25.1459 28.8262C25.2774 28.8262 25.3807 28.7135 25.3807 28.5821V8.74169C25.3807 8.61023 25.2774 8.49756 25.1459 8.49756H21.5591C21.4182 8.49756 21.3149 8.61023 21.3149 8.74169V28.5821C21.3149 28.7135 21.4182 28.8262 21.5591 28.8262H25.1459ZM21.7938 28.3379V8.98582H24.9018V28.3379H21.7938Z" stroke="#3271B2" stroke-width="0.5"/>
<path d="M24.2443 2.73438H22.4648V8.74754H24.2443V2.73438Z" fill="white"/>
<path d="M22.4604 8.98593H24.2445C24.3759 8.98593 24.4792 8.87326 24.4792 8.7418V2.73241C24.4792 2.60096 24.3759 2.48828 24.2445 2.48828H22.4604C22.329 2.48828 22.2163 2.60096 22.2163 2.73241V8.7418C22.2163 8.87326 22.329 8.98593 22.4604 8.98593ZM24.0003 8.49767H22.6952V2.96715H24.0003V8.49767Z" fill="#3271B2"/>
<path d="M24.2445 8.98593C24.3759 8.98593 24.4792 8.87326 24.4792 8.7418V2.73241C24.4792 2.60096 24.3759 2.48828 24.2445 2.48828H22.4604C22.329 2.48828 22.2163 2.60096 22.2163 2.73241V8.7418C22.2163 8.87326 22.329 8.98593 22.4604 8.98593H24.2445ZM22.6952 8.49767V2.96715H24.0003V8.49767H22.6952Z" stroke="#3271B2" stroke-width="0.5"/>
<path d="M32.8639 81.5674H28.7139V153.428H32.8639V81.5674Z" fill="white"/>
<path d="M28.7139 153.662H32.8641C32.9955 153.662 33.0988 153.558 33.0988 153.418V81.5585C33.0988 81.427 32.9955 81.3237 32.8641 81.3237H28.7139C28.573 81.3237 28.4697 81.427 28.4697 81.5585V153.418C28.4697 153.558 28.573 153.662 28.7139 153.662ZM32.62 153.183H28.9486V81.8026H32.62V153.183Z" fill="#3271B2"/>
<path d="M32.8641 153.662C32.9955 153.662 33.0988 153.558 33.0988 153.418V81.5585C33.0988 81.427 32.9955 81.3237 32.8641 81.3237H28.7139C28.573 81.3237 28.4697 81.427 28.4697 81.5585V153.418C28.4697 153.558 28.573 153.662 28.7139 153.662H32.8641ZM28.9486 153.183V81.8026H32.62V153.183H28.9486Z" stroke="#3271B2" stroke-width="0.5"/>
<path d="M17.995 81.5674H13.8452V153.428H17.995V81.5674Z" fill="white"/>
<path d="M13.8407 153.662H17.9909C18.1224 153.662 18.2257 153.558 18.2257 153.418V81.5585C18.2257 81.427 18.1224 81.3237 17.9909 81.3237H13.8407C13.7092 81.3237 13.606 81.427 13.606 81.5585V153.418C13.606 153.558 13.7092 153.662 13.8407 153.662ZM17.7562 153.183H14.0848V81.8026H17.7562V153.183Z" fill="#3271B2"/>
<path d="M17.9909 153.662C18.1224 153.662 18.2257 153.558 18.2257 153.418V81.5585C18.2257 81.427 18.1224 81.3237 17.9909 81.3237H13.8407C13.7092 81.3237 13.606 81.427 13.606 81.5585V153.418C13.606 153.558 13.7092 153.662 13.8407 153.662H17.9909ZM14.0848 153.183V81.8026H17.7562V153.183H14.0848Z" stroke="#3271B2" stroke-width="0.5"/>
<path d="M28.7128 81.5684H25.4292V87.3757H28.7128V81.5684Z" fill="white"/>
<path d="M25.4272 87.6148H28.7136C28.8451 87.6148 28.9484 87.5021 28.9484 87.3707V81.5585C28.9484 81.427 28.8451 81.3237 28.7136 81.3237H25.4272C25.2958 81.3237 25.1831 81.427 25.1831 81.5585V87.3707C25.1831 87.5021 25.2958 87.6148 25.4272 87.6148ZM28.4695 87.1265H25.662V81.8026H28.4695V87.1265Z" fill="#3271B2"/>
<path d="M28.7136 87.6148C28.8451 87.6148 28.9484 87.5021 28.9484 87.3707V81.5585C28.9484 81.427 28.8451 81.3237 28.7136 81.3237H25.4272C25.2958 81.3237 25.1831 81.427 25.1831 81.5585V87.3707C25.1831 87.5021 25.2958 87.6148 25.4272 87.6148H28.7136ZM25.662 87.1265V81.8026H28.4695V87.1265H25.662Z" stroke="#3271B2" stroke-width="0.5"/>
<path d="M21.2786 81.5684H17.9946V87.3757H21.2786V81.5684Z" fill="white"/>
<path d="M17.9907 87.6148H21.2771C21.4086 87.6148 21.5118 87.5021 21.5118 87.3707V81.5585C21.5118 81.427 21.4086 81.3237 21.2771 81.3237H17.9907C17.8593 81.3237 17.7466 81.427 17.7466 81.5585V87.3707C17.7466 87.5021 17.8593 87.6148 17.9907 87.6148ZM21.033 87.1265H18.2255V81.8026H21.033V87.1265Z" fill="#3271B2"/>
<path d="M21.2771 87.6148C21.4086 87.6148 21.5118 87.5021 21.5118 87.3707V81.5585C21.5118 81.427 21.4086 81.3237 21.2771 81.3237H17.9907C17.8593 81.3237 17.7466 81.427 17.7466 81.5585V87.3707C17.7466 87.5021 17.8593 87.6148 17.9907 87.6148H21.2771ZM18.2255 87.1265V81.8026H21.033V87.1265H18.2255Z" stroke="#3271B2" stroke-width="0.5"/>
<path d="M28.7128 114.595H25.4292V120.403H28.7128V114.595Z" fill="white"/>
<path d="M25.4272 120.639H28.7136C28.8451 120.639 28.9484 120.535 28.9484 120.395V114.592C28.9484 114.46 28.8451 114.348 28.7136 114.348H25.4272C25.2958 114.348 25.1831 114.46 25.1831 114.592V120.395C25.1831 120.535 25.2958 120.639 25.4272 120.639ZM28.4695 120.16H25.662V114.836H28.4695V120.16Z" fill="#3271B2"/>
<path d="M28.7136 120.639C28.8451 120.639 28.9484 120.535 28.9484 120.395V114.592C28.9484 114.46 28.8451 114.348 28.7136 114.348H25.4272C25.2958 114.348 25.1831 114.46 25.1831 114.592V120.395C25.1831 120.535 25.2958 120.639 25.4272 120.639H28.7136ZM25.662 120.16V114.836H28.4695V120.16H25.662Z" stroke="#3271B2" stroke-width="0.5"/>
<path d="M21.2786 114.595H17.9946V120.403H21.2786V114.595Z" fill="white"/>
<path d="M17.9907 120.639H21.2771C21.4086 120.639 21.5118 120.535 21.5118 120.395V114.592C21.5118 114.46 21.4086 114.348 21.2771 114.348H17.9907C17.8593 114.348 17.7466 114.46 17.7466 114.592V120.395C17.7466 120.535 17.8593 120.639 17.9907 120.639ZM21.033 120.16H18.2255V114.836H21.033V120.16Z" fill="#3271B2"/>
<path d="M21.2771 120.639C21.4086 120.639 21.5118 120.535 21.5118 120.395V114.592C21.5118 114.46 21.4086 114.348 21.2771 114.348H17.9907C17.8593 114.348 17.7466 114.46 17.7466 114.592V120.395C17.7466 120.535 17.8593 120.639 17.9907 120.639H21.2771ZM18.2255 120.16V114.836H21.033V120.16H18.2255Z" stroke="#3271B2" stroke-width="0.5"/>
<path d="M28.7128 147.623H25.4292V153.43H28.7128V147.623Z" fill="white"/>
<path d="M25.4272 153.662H28.7136C28.8451 153.662 28.9484 153.559 28.9484 153.427V147.615C28.9484 147.484 28.8451 147.38 28.7136 147.38H25.4272C25.2958 147.38 25.1831 147.484 25.1831 147.615V153.427C25.1831 153.559 25.2958 153.662 25.4272 153.662ZM28.4695 153.183H25.662V147.859H28.4695V153.183Z" fill="#3271B2"/>
<path d="M28.7136 153.662C28.8451 153.662 28.9484 153.559 28.9484 153.427V147.615C28.9484 147.484 28.8451 147.38 28.7136 147.38H25.4272C25.2958 147.38 25.1831 147.484 25.1831 147.615V153.427C25.1831 153.559 25.2958 153.662 25.4272 153.662H28.7136ZM25.662 153.183V147.859H28.4695V153.183H25.662Z" stroke="#3271B2" stroke-width="0.5"/>
<path d="M21.2786 147.623H17.9946V153.43H21.2786V147.623Z" fill="white"/>
<path d="M17.9907 153.662H21.2771C21.4086 153.662 21.5118 153.559 21.5118 153.427V147.615C21.5118 147.484 21.4086 147.38 21.2771 147.38H17.9907C17.8593 147.38 17.7466 147.484 17.7466 147.615V153.427C17.7466 153.559 17.8593 153.662 17.9907 153.662ZM21.033 153.183H18.2255V147.859H21.033V153.183Z" fill="#3271B2"/>
<path d="M21.2771 153.662C21.4086 153.662 21.5118 153.559 21.5118 153.427V147.615C21.5118 147.484 21.4086 147.38 21.2771 147.38H17.9907C17.8593 147.38 17.7466 147.484 17.7466 147.615V153.427C17.7466 153.559 17.8593 153.662 17.9907 153.662H21.2771ZM18.2255 153.183V147.859H21.033V153.183H18.2255Z" stroke="#3271B2" stroke-width="0.5"/>
</g>
</svg>
