<svg width="31" height="31" viewBox="0 0 31 31" fill="none" xmlns="http://www.w3.org/2000/svg">
<path fill-rule="evenodd" clip-rule="evenodd" d="M15.2213 30.4426C23.6278 30.4426 30.4426 23.6278 30.4426 15.2213C30.4426 6.8148 23.6278 0 15.2213 0C6.8148 0 0 6.8148 0 15.2213C0 23.6278 6.8148 30.4426 15.2213 30.4426ZM8.83879 12.3891H11.7435V21.8634H8.83879V12.3891ZM10.3068 7.71445C10.6467 7.71036 10.98 7.8078 11.2642 7.9943C11.5484 8.1808 11.7704 8.44788 11.9019 8.76132C12.0333 9.07477 12.0683 9.42031 12.0022 9.75373C11.9361 10.0871 11.772 10.3932 11.5309 10.6328C11.2898 10.8724 10.9827 11.0347 10.6489 11.0987C10.3151 11.1627 9.96976 11.1256 9.65714 10.9922C9.34451 10.8588 9.07882 10.6351 8.89408 10.3498C8.70934 10.0645 8.61396 9.73051 8.62016 9.39066C8.62561 8.946 8.80538 8.52122 9.1208 8.20775C9.43623 7.89427 9.86209 7.71714 10.3068 7.71445ZM16.4597 12.389H13.6278V21.8737H16.5742V17.1886C16.5742 15.9497 16.8137 14.7524 18.3441 14.7524C19.8746 14.7524 19.8746 16.2203 19.8746 17.2615V21.8737H22.7793V16.668C22.7793 14.1173 22.2275 12.16 19.2499 12.16C18.6914 12.1405 18.1379 12.2713 17.6471 12.5387C17.1563 12.806 16.7463 13.2002 16.4597 13.68V12.389Z" fill="#00AEEF"/>
</svg>
