<svg width="70" height="70" viewBox="0 0 70 70" fill="none" xmlns="http://www.w3.org/2000/svg">
<g clip-path="url(#clip0_106_3161)">
<path d="M35 70C54.33 70 70 54.33 70 35C70 15.67 54.33 0 35 0C15.67 0 0 15.67 0 35C0 54.33 15.67 70 35 70Z" fill="#E0027A"/>
<path d="M28.8011 29.9365H32.5033L34.9922 32.4176L37.4733 29.9365H41.1755C42.1088 29.9365 42.8633 29.1821 42.8633 28.2487V19.8098C42.8633 18.8843 42.1088 18.1298 41.1755 18.1221H28.8011C27.8677 18.1298 27.1133 18.8843 27.1133 19.8098V28.2487C27.1133 29.1821 27.8677 29.9365 28.8011 29.9365ZM28.2411 19.8098C28.2411 19.4987 28.4899 19.2498 28.8011 19.2498H41.1755C41.4866 19.2498 41.7355 19.4987 41.7355 19.8098V28.2487C41.7355 28.5598 41.4866 28.8087 41.1755 28.8087H37.0066L34.9922 30.8232L32.9699 28.8087H28.8011C28.4899 28.8087 28.2411 28.5598 28.2411 28.2487V19.8098Z" fill="#F7F9FC"/>
<path d="M39.6357 41.9379L36.6646 40.9424C37.7146 40.3435 38.3679 39.2235 38.3602 38.0179V36.8824C38.3602 35.0235 36.8513 33.5068 34.9924 33.5068C33.1257 33.5068 31.6168 35.0235 31.6168 36.8824V38.0179C31.6168 39.2235 32.2624 40.3435 33.3124 40.9424L30.3413 41.9379C29.4235 42.2413 28.8013 43.1046 28.8013 44.0691V51.8546H29.929V44.0691C29.929 43.5868 30.2402 43.1591 30.699 43.0035L34.9924 41.5724L39.2779 43.0035C39.7446 43.1591 40.0479 43.5868 40.0479 44.0691V51.8546H41.1757V44.0691C41.1757 43.1046 40.5535 42.2413 39.6357 41.9379ZM35.7002 40.1491L34.9924 40.3902L34.2768 40.1491C33.359 39.8457 32.7368 38.9824 32.7368 38.0179V36.8824C32.7368 35.6457 33.7479 34.6346 34.9924 34.6346C36.229 34.6346 37.2402 35.6457 37.2402 36.8824V38.0179C37.2402 38.9824 36.6179 39.8457 35.7002 40.1491Z" fill="#F7F9FC"/>
<path d="M37.7998 45.1035H38.9198V51.8546H37.7998V45.1035Z" fill="#F7F9FC"/>
<path d="M31.0566 45.1035H32.1766V51.8546H31.0566V45.1035Z" fill="#F7F9FC"/>
<path d="M50.7421 44.31L48.891 43.6333C49.6844 43.1122 50.1666 42.2255 50.1666 41.2767V40.8722C50.1666 39.8067 49.5677 38.8267 48.611 38.3522C47.8177 37.9633 46.8844 37.9633 46.0988 38.3522C45.1421 38.8267 44.5355 39.8067 44.5432 40.8722V41.2767C44.5432 42.2255 45.0255 43.1122 45.8188 43.6333L43.9677 44.31C43.2988 44.5511 42.8555 45.1811 42.8555 45.8889V51.8544H43.9755V45.8889C43.9755 45.6555 44.131 45.4455 44.3488 45.3678L47.351 44.2711L50.361 45.3678C50.5788 45.4455 50.7266 45.6555 50.7266 45.8889V51.8544H51.8544V45.8889C51.8544 45.1811 51.411 44.5511 50.7421 44.31ZM47.9266 42.8633L47.351 43.0733L46.7755 42.8633C46.1144 42.6222 45.671 41.9922 45.6632 41.2767V40.8722C45.6632 39.9389 46.4255 39.1844 47.351 39.1844C48.2844 39.1844 49.0388 39.9389 49.0388 40.8722V41.2767C49.0388 41.9922 48.5955 42.6222 47.9266 42.8633Z" fill="#F7F9FC"/>
<path d="M48.479 47.3516H49.6068V51.8549H48.479V47.3516Z" fill="#F7F9FC"/>
<path d="M45.1035 47.3516H46.2313V51.8549H45.1035V47.3516Z" fill="#F7F9FC"/>
<path d="M26.0087 44.31L24.1576 43.6333C24.951 43.1122 25.4332 42.2255 25.4332 41.2767V40.8722C25.441 39.8067 24.8343 38.8267 23.8854 38.3522C23.0921 37.9633 22.1587 37.9633 21.3654 38.3522C20.4087 38.8267 19.8098 39.8067 19.8098 40.8722V41.2767C19.8176 42.2255 20.2921 43.1122 21.0854 43.6333L19.2343 44.31C18.5732 44.5511 18.1298 45.1811 18.1221 45.8889V51.8544H19.2498V45.8889C19.2498 45.6555 19.3976 45.4455 19.6232 45.3678L22.6254 44.2711L25.6276 45.3678C25.8532 45.4455 26.001 45.6555 26.001 45.8889V51.8544H27.121V45.8889C27.121 45.1811 26.6776 44.5511 26.0087 44.31ZM23.201 42.8633L22.6254 43.0733L22.0498 42.8633C21.381 42.6222 20.9376 41.9922 20.9376 41.2767V40.8722C20.9376 39.9389 21.6921 39.1844 22.6254 39.1844C23.5587 39.1844 24.3132 39.9389 24.3132 40.8722V41.2767C24.3132 41.9922 23.8698 42.6222 23.201 42.8633Z" fill="#F7F9FC"/>
<path d="M23.7456 47.3516H24.8734V51.8549H23.7456V47.3516Z" fill="#F7F9FC"/>
<path d="M20.3779 47.3516H21.4979V51.8549H20.3779V47.3516Z" fill="#F7F9FC"/>
<path d="M24.8732 32.1762V30.4884H26.561V29.3684H24.8732V27.6807H23.7454V29.3684H22.0654V30.4884H23.7454V32.1762H24.8732Z" fill="#F7F9FC"/>
<path d="M33.8644 23.979L35.5522 25.6668L38.9278 22.2913V23.7457H40.0478V20.3779H36.68V21.4979H38.1267L35.5522 24.0802L33.8644 22.3924L29.5322 26.7246L30.3256 27.5179L33.8644 23.979Z" fill="#F7F9FC"/>
<path d="M19.8098 34.9919H22.3454L24.3132 37.613L26.281 34.9919H28.8087C29.7421 34.9919 30.4965 34.2375 30.4965 33.3041V31.0563H29.3687V33.3041C29.3687 33.6152 29.1198 33.8641 28.8087 33.8641H25.721L24.3132 35.7386L22.9054 33.8641H19.8098C19.4987 33.8641 19.2498 33.6152 19.2498 33.3041V26.553C19.2498 26.2419 19.4987 25.993 19.8098 25.993H26.001V24.8652H19.8098C18.8843 24.873 18.1221 25.6275 18.1221 26.553V33.3041C18.1221 34.2375 18.8843 34.9919 19.8098 34.9919Z" fill="#F7F9FC"/>
<path d="M45.1033 32.1762H46.2311V30.4884H47.9189V29.3684H46.2311V27.6807H45.1033V29.3684H43.4155V30.4884H45.1033V32.1762Z" fill="#F7F9FC"/>
<path d="M50.1666 24.8652H43.9755V25.993H50.1666C50.4778 25.993 50.7266 26.2419 50.7266 26.553V33.3041C50.7266 33.6152 50.4778 33.8641 50.1666 33.8641H47.0711L45.6633 35.7386L44.2633 33.8641H41.1678C40.8566 33.8641 40.6078 33.6152 40.6078 33.3041V31.0563H39.48V33.3041C39.48 34.2375 40.2344 34.9919 41.1678 34.9919H43.6955L45.6633 37.613L47.6311 34.9919H50.1666C51.1 34.9919 51.8544 34.2375 51.8544 33.3041V26.553C51.8544 25.6275 51.1 24.873 50.1666 24.8652Z" fill="#F7F9FC"/>
</g>
<defs>
<clipPath id="clip0_106_3161">
<rect width="70" height="70" fill="white"/>
</clipPath>
</defs>
</svg>
