<svg width="70" height="70" viewBox="0 0 70 70" fill="none" xmlns="http://www.w3.org/2000/svg">
<g clip-path="url(#clip0_106_3223)">
<path d="M35 70C54.33 70 70 54.33 70 35C70 15.67 54.33 0 35 0C15.67 0 0 15.67 0 35C0 54.33 15.67 70 35 70Z" fill="#52B6D2"/>
<path d="M41.821 47.9499C41.7433 47.9499 41.6733 47.9343 41.6033 47.9032C41.331 47.7866 35.0388 45.0721 35.0388 39.5188V34.7899C35.0388 34.5488 35.1944 34.3388 35.4199 34.261L41.6344 32.161C41.751 32.1221 41.8833 32.1221 41.9999 32.161L48.2144 34.261C48.4399 34.331 48.5955 34.5488 48.5955 34.7899V39.5188C48.5955 45.0721 42.3033 47.7866 42.0388 47.9032C41.9688 47.9343 41.891 47.9499 41.821 47.9499ZM36.1666 35.2021V39.5188C36.1666 43.7888 40.7477 46.2466 41.821 46.7599C42.8866 46.2466 47.4677 43.781 47.4677 39.5188V35.2021L41.821 33.2888L36.1666 35.2021Z" fill="#F7F9FC"/>
<path d="M41.2534 42.2957C41.0901 42.2879 40.9112 42.2101 40.8101 42.0857L38.5545 39.2624C38.3601 39.0135 38.399 38.6635 38.6401 38.469C38.889 38.2746 39.239 38.3135 39.4334 38.5546L41.3001 40.8879L44.8079 37.3801C45.0257 37.1624 45.3834 37.1624 45.609 37.3801C45.8268 37.5979 45.8268 37.9557 45.609 38.1812L41.6501 42.1323C41.549 42.2412 41.4012 42.2957 41.2534 42.2957Z" fill="#F7F9FC"/>
<path d="M42.3811 29.867H25.4333C23.2555 29.867 21.4822 28.0937 21.4822 25.9159C21.4822 23.7304 23.2555 21.957 25.4333 21.957H42.3811C44.5666 21.957 46.34 23.7304 46.34 25.9159C46.34 28.0937 44.5666 29.867 42.3811 29.867ZM25.4333 23.0926C23.8777 23.0926 22.61 24.3604 22.61 25.9159C22.61 27.4715 23.8777 28.7393 25.4333 28.7393H42.3811C43.9444 28.7393 45.2044 27.4715 45.2044 25.9159C45.2044 24.3604 43.9444 23.0926 42.3811 23.0926H25.4333Z" fill="#F7F9FC"/>
<path d="M26.5688 27.6108C25.6277 27.6108 24.8733 26.8486 24.8733 25.9153C24.8733 24.9819 25.6277 24.2197 26.5688 24.2197C27.5022 24.2197 28.2566 24.9819 28.2566 25.9153C28.2566 26.8486 27.5022 27.6108 26.5688 27.6108ZM26.5688 25.3475C26.25 25.3475 26.0011 25.6042 26.0011 25.9153C26.0011 26.2264 26.25 26.4831 26.5688 26.4831C26.8722 26.4831 27.1288 26.2264 27.1288 25.9153C27.1288 25.6042 26.8722 25.3475 26.5688 25.3475Z" fill="#F7F9FC"/>
<path d="M32.2156 27.6108C31.2822 27.6108 30.52 26.8486 30.52 25.9153C30.52 24.9819 31.2822 24.2197 32.2156 24.2197C33.1489 24.2197 33.9111 24.9819 33.9111 25.9153C33.9111 26.8486 33.1489 27.6108 32.2156 27.6108ZM32.2156 25.3475C31.9045 25.3475 31.6478 25.6042 31.6478 25.9153C31.6478 26.2264 31.9045 26.4831 32.2156 26.4831C32.5267 26.4831 32.7834 26.2264 32.7834 25.9153C32.7834 25.6042 32.5267 25.3475 32.2156 25.3475Z" fill="#F7F9FC"/>
<path d="M32.2155 36.6493H25.4333C23.2555 36.6493 21.4822 34.8759 21.4822 32.6904C21.4822 31.6404 21.8944 30.6448 22.6411 29.8981C23.3877 29.1515 24.3755 28.7393 25.4333 28.7393H42.3811C43.2677 28.7393 44.1 29.027 44.7844 29.5559C45.0333 29.7504 45.08 30.1081 44.8855 30.3493C44.6911 30.5981 44.3411 30.6448 44.0922 30.4504C43.6022 30.0693 43.0111 29.867 42.3811 29.867H25.4333C24.6788 29.867 23.9711 30.1626 23.4344 30.6993C22.9055 31.2281 22.61 31.9437 22.61 32.6904C22.61 34.2537 23.8777 35.5215 25.4333 35.5215H32.2155C32.5266 35.5215 32.7755 35.7704 32.7755 36.0815C32.7755 36.3926 32.5266 36.6493 32.2155 36.6493Z" fill="#F7F9FC"/>
<path d="M26.5688 34.3853C25.6277 34.3853 24.8733 33.6308 24.8733 32.6975C24.8733 31.7564 25.6277 31.002 26.5688 31.002C27.5022 31.002 28.2566 31.7564 28.2566 32.6975C28.2566 33.6308 27.5022 34.3853 26.5688 34.3853ZM26.5688 32.1297C26.25 32.1297 26.0011 32.3864 26.0011 32.6975C26.0011 33.0008 26.25 33.2575 26.5688 33.2575C26.8722 33.2575 27.1288 33.0008 27.1288 32.6975C27.1288 32.3864 26.8722 32.1297 26.5688 32.1297Z" fill="#F7F9FC"/>
<path d="M32.2156 34.3853C31.2822 34.3853 30.52 33.6308 30.52 32.6975C30.52 31.7564 31.2822 31.002 32.2156 31.002C33.1489 31.002 33.9111 31.7564 33.9111 32.6975C33.9111 33.6308 33.1489 34.3853 32.2156 34.3853ZM32.2156 32.1297C31.9045 32.1297 31.6478 32.3864 31.6478 32.6975C31.6478 33.0008 31.9045 33.2575 32.2156 33.2575C32.5267 33.2575 32.7834 33.0008 32.7834 32.6975C32.7834 32.3864 32.5267 32.1297 32.2156 32.1297Z" fill="#F7F9FC"/>
<path d="M32.2155 43.4315H25.4333C23.2555 43.4315 21.4822 41.6582 21.4822 39.4726C21.4822 38.4226 21.8944 37.427 22.6411 36.6804C23.3877 35.9337 24.3755 35.5215 25.4333 35.5215H32.2155C32.5266 35.5215 32.7755 35.7704 32.7755 36.0815C32.7755 36.3926 32.5266 36.6493 32.2155 36.6493H25.4333C24.6788 36.6493 23.9711 36.9448 23.4344 37.4737C22.9055 38.0104 22.61 38.7182 22.61 39.4726C22.61 41.0282 23.8777 42.2959 25.4333 42.2959H32.2155C32.5266 42.2959 32.7755 42.5526 32.7755 42.8637C32.7755 43.1748 32.5266 43.4315 32.2155 43.4315Z" fill="#F7F9FC"/>
<path d="M26.5688 41.1675C25.6277 41.1675 24.8733 40.4053 24.8733 39.4719C24.8733 38.5386 25.6277 37.7764 26.5688 37.7764C27.5022 37.7764 28.2566 38.5386 28.2566 39.4719C28.2566 40.4053 27.5022 41.1675 26.5688 41.1675ZM26.5688 38.9119C26.25 38.9119 26.0011 39.1608 26.0011 39.4719C26.0011 39.783 26.25 40.0397 26.5688 40.0397C26.8722 40.0397 27.1288 39.783 27.1288 39.4719C27.1288 39.1608 26.8722 38.9119 26.5688 38.9119Z" fill="#F7F9FC"/>
<path d="M32.2156 41.1675C31.2822 41.1675 30.52 40.4053 30.52 39.4719C30.52 38.5386 31.2822 37.7764 32.2156 37.7764C33.1489 37.7764 33.9111 38.5386 33.9111 39.4719C33.9111 40.4053 33.1489 41.1675 32.2156 41.1675ZM32.2156 38.9119C31.9045 38.9119 31.6478 39.1608 31.6478 39.4719C31.6478 39.783 31.9045 40.0397 32.2156 40.0397C32.5267 40.0397 32.7834 39.783 32.7834 39.4719C32.7834 39.1608 32.5267 38.9119 32.2156 38.9119Z" fill="#F7F9FC"/>
</g>
<defs>
<clipPath id="clip0_106_3223">
<rect width="70" height="70" fill="white"/>
</clipPath>
</defs>
</svg>
