<svg width="72" height="72" viewBox="0 0 72 72" fill="none" xmlns="http://www.w3.org/2000/svg">
<path d="M36.013 72C31.035 72 26.3547 71.0553 21.972 69.166C17.59 67.2767 13.778 64.7127 10.536 61.474C7.294 58.2353 4.72767 54.4267 2.837 50.048C0.945666 45.67 0 40.9917 0 36.013C0 31.035 0.945001 26.3547 2.835 21.972C4.725 17.59 7.29 13.778 10.53 10.536C13.77 7.294 17.58 4.72767 21.96 2.837C26.34 0.945666 31.02 0 36 0C40.094 0 43.9673 0.633333 47.62 1.9C51.2733 3.16667 54.605 4.93333 57.615 7.2L54.738 10.177C52.1027 8.21767 49.2033 6.69833 46.04 5.619C42.8773 4.53967 39.5307 4 36 4C27.1333 4 19.5833 7.11667 13.35 13.35C7.11667 19.5833 4 27.1333 4 36C4 44.8667 7.11667 52.4167 13.35 58.65C19.5833 64.8833 27.1333 68 36 68C44.8667 68 52.4167 64.8833 58.65 58.65C64.8833 52.4167 68 44.8667 68 36C68 34.39 67.882 32.8107 67.646 31.262C67.41 29.714 67.0563 28.2087 66.585 26.746L69.777 23.477C70.5103 25.4563 71.064 27.4873 71.438 29.57C71.8127 31.652 72 33.7953 72 36C72 40.98 71.0553 45.66 69.166 50.04C67.2767 54.42 64.7127 58.23 61.474 61.47C58.2353 64.71 54.4267 67.275 50.048 69.165C45.67 71.055 40.9917 72 36.013 72ZM30.246 51.631L16.015 37.4L18.846 34.569L30.246 45.969L69.169 7.023L72 9.854L30.246 51.631Z" fill="#00AEEF"/>
</svg>
