<svg width="100" height="200" viewBox="0 0 100 200" fill="none" xmlns="http://www.w3.org/2000/svg">
<mask id="mask0_67_12996" style="mask-type:alpha" maskUnits="userSpaceOnUse" x="-1" y="-1" width="102" height="202">
<path d="M100 0H0V200H100V0Z" fill="white"/>
<path d="M99.505 0.495117H0.495117V199.505H99.505V0.495117Z" stroke="#707070"/>
</mask>
<g mask="url(#mask0_67_12996)">
<mask id="mask1_67_12996" style="mask-type:alpha" maskUnits="userSpaceOnUse" x="-182" y="0" width="464" height="738">
<path d="M281.435 0.707031H-181.465V737.421H281.435V0.707031Z" fill="#C4C4C4"/>
</mask>
<g mask="url(#mask1_67_12996)">
<path d="M91.5115 121.337H69.5376V177.191H91.5115V121.337Z" fill="#00AEEF"/>
</g>
<mask id="mask2_67_12996" style="mask-type:alpha" maskUnits="userSpaceOnUse" x="-182" y="0" width="464" height="738">
<path d="M281.435 0.707031H-181.465V737.421H281.435V0.707031Z" fill="#C4C4C4"/>
</mask>
<g mask="url(#mask2_67_12996)">
<path d="M91.5115 128.984H69.5376V130.439H91.5115V128.984Z" fill="#3271B2"/>
</g>
<mask id="mask3_67_12996" style="mask-type:alpha" maskUnits="userSpaceOnUse" x="-182" y="0" width="464" height="738">
<path d="M281.435 0.707031H-181.465V737.421H281.435V0.707031Z" fill="#C4C4C4"/>
</mask>
<g mask="url(#mask3_67_12996)">
<path d="M91.5115 168.091H69.5376V169.545H91.5115V168.091Z" fill="#3271B2"/>
</g>
<mask id="mask4_67_12996" style="mask-type:alpha" maskUnits="userSpaceOnUse" x="-182" y="0" width="464" height="738">
<path d="M281.435 0.707031H-181.465V737.421H281.435V0.707031Z" fill="#C4C4C4"/>
</mask>
<g mask="url(#mask4_67_12996)">
<mask id="mask5_67_12996" style="mask-type:luminance" maskUnits="userSpaceOnUse" x="5" y="113" width="65" height="17">
<path fill-rule="evenodd" clip-rule="evenodd" d="M69.5367 113.691H8.43488H5.34082V120.61H8.43488V129.712H69.5367V113.691Z" fill="black"/>
</mask>
<g mask="url(#mask5_67_12996)">
<path fill-rule="evenodd" clip-rule="evenodd" d="M69.5367 113.691H8.43488H5.34082V120.61H8.43488V129.712H69.5367V113.691Z" fill="#D0ECF6"/>
</g>
</g>
<mask id="mask6_67_12996" style="mask-type:alpha" maskUnits="userSpaceOnUse" x="-182" y="0" width="464" height="738">
<path d="M281.435 0.707031H-181.465V737.421H281.435V0.707031Z" fill="#C4C4C4"/>
</mask>
<g mask="url(#mask6_67_12996)">
<path d="M63.0491 113.683H36.6333V55.6934H63.0491V113.683ZM38.0887 112.228H61.5937V57.1488H38.0887V112.228Z" fill="#00AEEF"/>
</g>
<mask id="mask7_67_12996" style="mask-type:alpha" maskUnits="userSpaceOnUse" x="-182" y="0" width="464" height="738">
<path d="M281.435 0.707031H-181.465V737.421H281.435V0.707031Z" fill="#C4C4C4"/>
</mask>
<g mask="url(#mask7_67_12996)">
<path d="M76.5938 113.683H61.5938V55.6934H76.5938V113.683ZM63.0492 112.228H75.1383V57.1488H63.0492V112.228Z" fill="#3271B2"/>
</g>
<mask id="mask8_67_12996" style="mask-type:alpha" maskUnits="userSpaceOnUse" x="-182" y="0" width="464" height="738">
<path d="M281.435 0.707031H-181.465V737.421H281.435V0.707031Z" fill="#C4C4C4"/>
</mask>
<g mask="url(#mask8_67_12996)">
<path d="M37.9303 113.683H22.9204V55.6934H37.9303V113.683ZM24.3759 112.228H36.4749V57.1488H24.3759V112.228Z" fill="#3271B2"/>
</g>
<mask id="mask9_67_12996" style="mask-type:alpha" maskUnits="userSpaceOnUse" x="-182" y="0" width="464" height="738">
<path d="M281.435 0.707031H-181.465V737.421H281.435V0.707031Z" fill="#C4C4C4"/>
</mask>
<g mask="url(#mask9_67_12996)">
<path d="M70.2571 440.426H29.7026V198.436H70.2571V440.426ZM31.1482 438.971H68.8016V199.891H31.1482V438.971Z" fill="#00AEEF"/>
</g>
<mask id="mask10_67_12996" style="mask-type:alpha" maskUnits="userSpaceOnUse" x="-182" y="0" width="464" height="738">
<path d="M281.435 0.707031H-181.465V737.421H281.435V0.707031Z" fill="#C4C4C4"/>
</mask>
<g mask="url(#mask10_67_12996)">
<path d="M87.6212 199.166H69.5376V439.699H87.6212V199.166Z" fill="#00AEEF"/>
</g>
<mask id="mask11_67_12996" style="mask-type:alpha" maskUnits="userSpaceOnUse" x="-182" y="0" width="464" height="738">
<path d="M281.435 0.707031H-181.465V737.421H281.435V0.707031Z" fill="#C4C4C4"/>
</mask>
<g mask="url(#mask11_67_12996)">
<path d="M88.3463 440.426H68.8018V198.436H88.3463V440.426ZM70.2572 438.971H86.8909V199.891H70.2572V438.971Z" fill="#00AEEF"/>
</g>
<mask id="mask12_67_12996" style="mask-type:alpha" maskUnits="userSpaceOnUse" x="-182" y="0" width="464" height="738">
<path d="M281.435 0.707031H-181.465V737.421H281.435V0.707031Z" fill="#C4C4C4"/>
</mask>
<g mask="url(#mask12_67_12996)">
<path d="M31.1484 440.426H11.6138V198.436H31.1484V440.426ZM13.0692 438.971H29.7029V199.891H13.0692V438.971Z" fill="#00AEEF"/>
</g>
<mask id="mask13_67_12996" style="mask-type:alpha" maskUnits="userSpaceOnUse" x="-182" y="0" width="464" height="738">
<path d="M281.435 0.707031H-181.465V737.421H281.435V0.707031Z" fill="#C4C4C4"/>
</mask>
<g mask="url(#mask13_67_12996)">
<path d="M31.1483 199.891H11.7325L7.58398 176.456H31.1483V199.891ZM12.9503 198.436H29.7028V177.911H9.31666L12.9503 198.436Z" fill="#3271B2"/>
</g>
<mask id="mask14_67_12996" style="mask-type:alpha" maskUnits="userSpaceOnUse" x="-182" y="0" width="464" height="738">
<path d="M281.435 0.707031H-181.465V737.421H281.435V0.707031Z" fill="#C4C4C4"/>
</mask>
<g mask="url(#mask14_67_12996)">
<path d="M69.5347 177.188H91.505L87.6139 199.159H69.5347V177.188Z" fill="#00AEEF"/>
</g>
<mask id="mask15_67_12996" style="mask-type:alpha" maskUnits="userSpaceOnUse" x="-182" y="0" width="464" height="738">
<path d="M281.435 0.707031H-181.465V737.421H281.435V0.707031Z" fill="#C4C4C4"/>
</mask>
<g mask="url(#mask15_67_12996)">
<path d="M88.2275 199.891H68.8018V176.456H92.376L88.2275 199.891ZM70.2572 198.436H87.0097L90.6334 177.911H70.2572V198.436Z" fill="#00AEEF"/>
</g>
<mask id="mask16_67_12996" style="mask-type:alpha" maskUnits="userSpaceOnUse" x="-182" y="0" width="464" height="738">
<path d="M281.435 0.707031H-181.465V737.421H281.435V0.707031Z" fill="#C4C4C4"/>
</mask>
<g mask="url(#mask16_67_12996)">
<path d="M70.2571 169.545H29.7026V128.98H70.2571V169.545ZM31.1482 168.089H68.8016V130.436H31.1482V168.089Z" fill="#00AEEF"/>
</g>
<mask id="mask17_67_12996" style="mask-type:alpha" maskUnits="userSpaceOnUse" x="-182" y="0" width="464" height="738">
<path d="M281.435 0.707031H-181.465V737.421H281.435V0.707031Z" fill="#C4C4C4"/>
</mask>
<g mask="url(#mask17_67_12996)">
<path d="M49.9802 163.357C42.2079 163.357 35.8911 157.03 35.8911 149.258C35.8911 141.485 42.2079 135.168 49.9802 135.168C57.7525 135.168 64.0693 141.485 64.0693 149.258C64.0693 157.03 57.7525 163.357 49.9802 163.357ZM49.9802 136.624C43.0099 136.624 37.3367 142.287 37.3367 149.258C37.3367 156.228 43.0099 161.901 49.9802 161.901C56.9505 161.901 62.6238 156.228 62.6238 149.258C62.6238 142.287 56.9505 136.624 49.9802 136.624Z" fill="#00AEEF"/>
</g>
<mask id="mask18_67_12996" style="mask-type:alpha" maskUnits="userSpaceOnUse" x="-182" y="0" width="464" height="738">
<path d="M281.435 0.707031H-181.465V737.421H281.435V0.707031Z" fill="#C4C4C4"/>
</mask>
<g mask="url(#mask18_67_12996)">
<path d="M70.2573 130.436H7.72266V120.604H70.2573V130.436ZM9.1781 128.98H68.8019V122.059H9.1781V128.98Z" fill="#3271B2"/>
</g>
<mask id="mask19_67_12996" style="mask-type:alpha" maskUnits="userSpaceOnUse" x="-182" y="0" width="464" height="738">
<path d="M281.435 0.707031H-181.465V737.421H281.435V0.707031Z" fill="#C4C4C4"/>
</mask>
<g mask="url(#mask19_67_12996)">
<path d="M71.0393 122.06H4.2373V112.228H71.0393V122.06ZM5.69275 120.604H69.5838V113.683H5.69275V120.604Z" fill="#3271B2"/>
</g>
<mask id="mask20_67_12996" style="mask-type:alpha" maskUnits="userSpaceOnUse" x="-182" y="0" width="464" height="738">
<path d="M281.435 0.707031H-181.465V737.421H281.435V0.707031Z" fill="#C4C4C4"/>
</mask>
<g mask="url(#mask20_67_12996)">
<path d="M70.2573 177.911H7.72266V168.089H70.2573V177.911ZM9.1781 176.456H68.8019V169.545H9.1781V176.456Z" fill="#3271B2"/>
</g>
<mask id="mask21_67_12996" style="mask-type:alpha" maskUnits="userSpaceOnUse" x="-182" y="0" width="464" height="738">
<path d="M281.435 0.707031H-181.465V737.421H281.435V0.707031Z" fill="#C4C4C4"/>
</mask>
<g mask="url(#mask21_67_12996)">
<path d="M50.3266 149.891L49.2969 149.01L52.5147 140.06L53.881 140.545L51.3167 147.703L55.5939 145.357L56.2969 146.634L50.3266 149.891Z" fill="#00AEEF"/>
</g>
<mask id="mask22_67_12996" style="mask-type:alpha" maskUnits="userSpaceOnUse" x="-182" y="0" width="464" height="738">
<path d="M281.435 0.707031H-181.465V737.421H281.435V0.707031Z" fill="#C4C4C4"/>
</mask>
<g mask="url(#mask22_67_12996)">
<path d="M30.3819 112.964H28.9272V121.338H30.3819V112.964Z" fill="#3271B2"/>
</g>
<mask id="mask23_67_12996" style="mask-type:alpha" maskUnits="userSpaceOnUse" x="-182" y="0" width="464" height="738">
<path d="M281.435 0.707031H-181.465V737.421H281.435V0.707031Z" fill="#C4C4C4"/>
</mask>
<g mask="url(#mask23_67_12996)">
<path d="M71.0416 112.964H69.5869V121.338H71.0416V112.964Z" fill="#00AEEF"/>
</g>
<mask id="mask24_67_12996" style="mask-type:alpha" maskUnits="userSpaceOnUse" x="-182" y="0" width="464" height="738">
<path d="M281.435 0.707031H-181.465V737.421H281.435V0.707031Z" fill="#C4C4C4"/>
</mask>
<g mask="url(#mask24_67_12996)">
<path d="M82.2275 102.772C81.8711 102.456 81.4157 102.277 80.9503 102.277C80.485 102.277 80.0295 102.456 79.6632 102.772L77.485 104.713C76.4652 105.624 75.8711 107 75.8711 108.446C75.8711 109.139 76.0097 109.832 76.2671 110.456L77.3067 112.961H80.9503H84.5939L85.6335 110.456C85.8909 109.832 86.0295 109.139 86.0295 108.446C86.0295 107 85.4355 105.624 84.4157 104.713L82.2275 102.772Z" fill="white"/>
</g>
<mask id="mask25_67_12996" style="mask-type:alpha" maskUnits="userSpaceOnUse" x="-182" y="0" width="464" height="738">
<path d="M281.435 0.707031H-181.465V737.421H281.435V0.707031Z" fill="#C4C4C4"/>
</mask>
<g mask="url(#mask25_67_12996)">
<path d="M85.0793 113.684H76.8218L75.5941 110.733C75.2971 110.02 75.1387 109.238 75.1387 108.446C75.1387 106.783 75.8218 105.218 77.0001 104.169L79.1783 102.228C79.6733 101.792 80.307 101.545 80.9506 101.545C81.5941 101.545 82.2179 101.792 82.7129 102.228L84.901 104.169C86.0793 105.218 86.7525 106.783 86.7525 108.446C86.7525 109.238 86.5941 110.02 86.2971 110.733L85.0793 113.684ZM77.7921 112.228H84.109L84.9605 110.179C85.1783 109.644 85.2971 109.04 85.2971 108.446C85.2971 107.198 84.802 106.03 83.9307 105.258L81.7525 103.317C81.2872 102.911 80.604 102.911 80.1486 103.317L77.9704 105.258C77.0991 106.03 76.5941 107.198 76.5941 108.446C76.5941 109.04 76.7129 109.644 76.9407 110.179L77.7921 112.228Z" fill="#3271B2"/>
</g>
<mask id="mask26_67_12996" style="mask-type:alpha" maskUnits="userSpaceOnUse" x="-182" y="0" width="464" height="738">
<path d="M281.435 0.707031H-181.465V737.421H281.435V0.707031Z" fill="#C4C4C4"/>
</mask>
<g mask="url(#mask26_67_12996)">
<path d="M94.9899 102.277C94.5245 102.277 94.0691 102.456 93.7027 102.772L91.5245 104.713C90.5047 105.624 89.9106 107 89.9106 108.446C89.9106 109.139 90.0493 109.832 90.3067 110.456L91.3463 112.961H94.9899V102.277Z" fill="white"/>
</g>
<mask id="mask27_67_12996" style="mask-type:alpha" maskUnits="userSpaceOnUse" x="-182" y="0" width="464" height="738">
<path d="M281.435 0.707031H-181.465V737.421H281.435V0.707031Z" fill="#C4C4C4"/>
</mask>
<g mask="url(#mask27_67_12996)">
<path d="M95.7127 113.684H90.8613L89.6335 110.733C89.3365 110.03 89.188 109.238 89.188 108.446C89.188 106.783 89.8613 105.218 91.0395 104.169L93.2177 102.228C93.7226 101.792 94.3464 101.545 94.99 101.545H95.7127V113.684ZM91.8316 112.228H94.2672V103.258L92.0098 105.258C91.1385 106.03 90.6434 107.198 90.6434 108.446C90.6434 109.04 90.7523 109.644 90.9801 110.179L91.8316 112.228Z" fill="#3271B2"/>
</g>
<mask id="mask28_67_12996" style="mask-type:alpha" maskUnits="userSpaceOnUse" x="-182" y="0" width="464" height="738">
<path d="M281.435 0.707031H-181.465V737.421H281.435V0.707031Z" fill="#C4C4C4"/>
</mask>
<g mask="url(#mask28_67_12996)">
<path d="M6.25734 102.772C5.89101 102.456 5.43556 102.277 4.97021 102.277V112.961H8.63358L9.67319 110.456C9.94051 109.832 10.0791 109.139 10.0791 108.446C10.0791 107 9.47516 105.624 8.45536 104.713L6.25734 102.772Z" fill="white"/>
</g>
<mask id="mask29_67_12996" style="mask-type:alpha" maskUnits="userSpaceOnUse" x="-182" y="0" width="464" height="738">
<path d="M281.435 0.707031H-181.465V737.421H281.435V0.707031Z" fill="#C4C4C4"/>
</mask>
<g mask="url(#mask29_67_12996)">
<path d="M9.11836 113.684H4.24707V101.545H4.96984C5.61341 101.545 6.24707 101.792 6.74212 102.228L8.94014 104.169C10.1184 105.218 10.8015 106.783 10.8015 108.446C10.8015 109.238 10.6431 110.03 10.3461 110.743L9.11836 113.684ZM5.69261 112.228H8.14806L9.00945 110.179C9.22727 109.644 9.34608 109.04 9.34608 108.446C9.34608 107.198 8.85103 106.04 7.96984 105.258L5.78172 103.317L5.69261 112.228Z" fill="#3271B2"/>
</g>
<mask id="mask30_67_12996" style="mask-type:alpha" maskUnits="userSpaceOnUse" x="-182" y="0" width="464" height="738">
<path d="M281.435 0.707031H-181.465V737.421H281.435V0.707031Z" fill="#C4C4C4"/>
</mask>
<g mask="url(#mask30_67_12996)">
<path d="M20.3462 102.772C19.9799 102.456 19.5245 102.277 19.0591 102.277C18.5839 102.277 18.1383 102.456 17.7621 102.772L15.574 104.713C14.5443 105.624 13.9502 107 13.9502 108.446C13.9502 109.139 14.0888 109.832 14.3462 110.456L15.3957 112.961H19.0591H22.7225L23.7621 110.456C24.0294 109.832 24.168 109.139 24.168 108.446C24.168 107 23.5641 105.624 22.5443 104.713L20.3462 102.772Z" fill="white"/>
</g>
<mask id="mask31_67_12996" style="mask-type:alpha" maskUnits="userSpaceOnUse" x="-182" y="0" width="464" height="738">
<path d="M281.435 0.707031H-181.465V737.421H281.435V0.707031Z" fill="#C4C4C4"/>
</mask>
<g mask="url(#mask31_67_12996)">
<path d="M23.2077 113.684H14.9107L13.683 110.743C13.386 110.03 13.2275 109.238 13.2275 108.446C13.2275 106.783 13.9008 105.218 15.0889 104.169L17.2869 102.228C17.782 101.792 18.4157 101.545 19.0592 101.545C19.7028 101.545 20.3365 101.792 20.8315 102.228L23.0196 104.169C24.2077 105.218 24.8909 106.783 24.8909 108.446C24.8909 109.238 24.7325 110.03 24.4355 110.743L23.2077 113.684ZM15.881 112.228H22.2374L23.0988 110.179C23.3166 109.644 23.4355 109.04 23.4355 108.446C23.4355 107.198 22.9305 106.04 22.0592 105.258L19.8711 103.317C19.4058 102.911 18.7127 102.911 18.2473 103.317L16.0592 105.258C15.178 106.04 14.683 107.198 14.683 108.446C14.683 109.04 14.8018 109.644 15.0196 110.179L15.881 112.228Z" fill="#3271B2"/>
</g>
<mask id="mask32_67_12996" style="mask-type:alpha" maskUnits="userSpaceOnUse" x="-182" y="0" width="464" height="738">
<path d="M281.435 0.707031H-181.465V737.421H281.435V0.707031Z" fill="#C4C4C4"/>
</mask>
<g mask="url(#mask32_67_12996)">
<path d="M34.9898 102.772C34.6235 102.456 34.168 102.277 33.6928 102.277C33.2274 102.277 32.772 102.456 32.4056 102.772L30.2076 104.713C29.1878 105.624 28.5938 107 28.5938 108.446C28.5938 109.139 28.7225 109.832 28.9898 110.456L30.0294 112.961H33.6928H37.3561L38.4056 110.456C38.6631 109.832 38.8017 109.139 38.8017 108.446C38.8017 107 38.2076 105.624 37.1779 104.713L34.9898 102.772Z" fill="white"/>
</g>
<mask id="mask33_67_12996" style="mask-type:alpha" maskUnits="userSpaceOnUse" x="-182" y="0" width="464" height="738">
<path d="M281.435 0.707031H-181.465V737.421H281.435V0.707031Z" fill="#C4C4C4"/>
</mask>
<g mask="url(#mask33_67_12996)">
<path d="M37.8415 113.684H29.5544L28.3168 110.743C28.0197 110.03 27.8613 109.238 27.8613 108.446C27.8613 106.783 28.5445 105.218 29.7326 104.169L31.9207 102.228C32.4257 101.792 33.0494 101.545 33.693 101.545C34.3465 101.545 34.9702 101.792 35.4653 102.228L37.6633 104.169C38.8514 105.218 39.5346 106.783 39.5346 108.446C39.5346 109.238 39.3762 110.03 39.0792 110.743L37.8415 113.684ZM30.5247 112.228H36.8712L37.7326 110.179C37.9603 109.644 38.0791 109.04 38.0791 108.446C38.0791 107.198 37.5742 106.04 36.7029 105.258L34.5049 103.317C34.0395 102.911 33.3564 102.911 32.891 103.317L30.693 105.258C29.8217 106.03 29.3168 107.198 29.3168 108.446C29.3168 109.04 29.4356 109.644 29.6633 110.179L30.5247 112.228Z" fill="#3271B2"/>
</g>
<mask id="mask34_67_12996" style="mask-type:alpha" maskUnits="userSpaceOnUse" x="-182" y="0" width="464" height="738">
<path d="M281.435 0.707031H-181.465V737.421H281.435V0.707031Z" fill="#C4C4C4"/>
</mask>
<g mask="url(#mask34_67_12996)">
<path d="M67.6134 102.772C67.2471 102.456 66.7916 102.277 66.3263 102.277C65.8609 102.277 65.4055 102.456 65.049 102.772L62.8609 104.713C61.8411 105.624 61.2471 107 61.2471 108.446C61.2471 109.139 61.3857 109.832 61.6431 110.456L62.6926 112.961H66.3263H69.9698L71.0094 110.456C71.2768 109.832 71.4055 109.139 71.4055 108.446C71.4055 107 70.8114 105.624 69.7916 104.713L67.6134 102.772Z" fill="white"/>
</g>
<mask id="mask35_67_12996" style="mask-type:alpha" maskUnits="userSpaceOnUse" x="-182" y="0" width="464" height="738">
<path d="M281.435 0.707031H-181.465V737.421H281.435V0.707031Z" fill="#C4C4C4"/>
</mask>
<g mask="url(#mask35_67_12996)">
<path d="M70.4551 113.684H62.1977L60.9799 110.733C60.6828 110.02 60.5244 109.238 60.5244 108.446C60.5244 106.783 61.1977 105.218 62.3759 104.169L64.564 102.228C65.0591 101.792 65.6828 101.545 66.3264 101.545C66.97 101.545 67.6036 101.792 68.0987 102.228L70.2769 104.169C71.4551 105.218 72.1383 106.783 72.1383 108.446C72.1383 109.238 71.9799 110.02 71.6828 110.733L70.4551 113.684ZM63.168 112.228H69.4848L70.3363 110.179C70.564 109.644 70.6828 109.04 70.6828 108.446C70.6828 107.198 70.1779 106.03 69.3066 105.258L67.1284 103.317C66.6729 102.911 65.9898 102.911 65.5244 103.317L63.3462 105.258C62.4749 106.03 61.9799 107.198 61.9799 108.446C61.9799 109.04 62.0987 109.644 62.3165 110.179L63.168 112.228Z" fill="#3271B2"/>
</g>
<mask id="mask36_67_12996" style="mask-type:alpha" maskUnits="userSpaceOnUse" x="-182" y="0" width="464" height="738">
<path d="M281.435 0.707031H-181.465V737.421H281.435V0.707031Z" fill="#C4C4C4"/>
</mask>
<g mask="url(#mask36_67_12996)">
<path d="M51.4059 102.772C50.9999 102.456 50.495 102.277 49.9801 102.277C49.4554 102.277 48.9603 102.456 48.5544 102.772L46.1187 104.713C44.9801 105.624 44.3267 107 44.3267 108.446C44.3267 109.139 44.4752 109.832 44.7623 110.456L45.9207 112.961H49.9801H54.0395L55.1979 110.456C55.4851 109.832 55.6336 109.139 55.6336 108.446C55.6336 107 54.9702 105.624 53.8415 104.713L51.4059 102.772Z" fill="white"/>
</g>
<mask id="mask37_67_12996" style="mask-type:alpha" maskUnits="userSpaceOnUse" x="-182" y="0" width="464" height="738">
<path d="M281.435 0.707031H-181.465V737.421H281.435V0.707031Z" fill="#C4C4C4"/>
</mask>
<g mask="url(#mask37_67_12996)">
<path d="M54.5046 113.684H45.4551L44.1086 110.763C43.772 110.04 43.5938 109.248 43.5938 108.446C43.5938 106.763 44.3462 105.198 45.6631 104.149L48.0987 102.208C48.6334 101.783 49.2967 101.545 49.9799 101.545C50.6631 101.545 51.3363 101.783 51.8611 102.208L54.2967 104.149C55.6136 105.198 56.366 106.763 56.366 108.446C56.366 109.248 56.1878 110.04 55.8512 110.763L54.5046 113.684ZM46.3858 112.228H53.5739L54.5343 110.149C54.7819 109.624 54.9106 109.03 54.9106 108.446C54.9106 107.208 54.3561 106.06 53.3858 105.287L50.9601 103.347C50.4056 102.901 49.5541 102.901 48.9997 103.347L46.574 105.287C45.6037 106.06 45.0492 107.208 45.0492 108.446C45.0492 109.03 45.1779 109.624 45.4254 110.149L46.3858 112.228Z" fill="#3271B2"/>
</g>
<mask id="mask38_67_12996" style="mask-type:alpha" maskUnits="userSpaceOnUse" x="-182" y="0" width="464" height="738">
<path d="M281.435 0.707031H-181.465V737.421H281.435V0.707031Z" fill="#C4C4C4"/>
</mask>
<g mask="url(#mask38_67_12996)">
<path d="M70.2571 199.891H29.7026V176.456H70.2571V199.891ZM31.1482 198.436H68.8016V177.911H31.1482V198.436Z" fill="#3271B2"/>
</g>
<mask id="mask39_67_12996" style="mask-type:alpha" maskUnits="userSpaceOnUse" x="-182" y="0" width="464" height="738">
<path d="M281.435 0.707031H-181.465V737.421H281.435V0.707031Z" fill="#C4C4C4"/>
</mask>
<g mask="url(#mask39_67_12996)">
<path d="M31.1583 177.911H7.72266V120.604H31.1583V177.911ZM9.1781 176.455H29.7029V122.059H9.1781V176.455Z" fill="#3271B2"/>
</g>
<mask id="mask40_67_12996" style="mask-type:alpha" maskUnits="userSpaceOnUse" x="-182" y="0" width="464" height="738">
<path d="M281.435 0.707031H-181.465V737.421H281.435V0.707031Z" fill="#C4C4C4"/>
</mask>
<g mask="url(#mask40_67_12996)">
<path d="M92.2374 177.911H68.8018V120.604H92.2374V177.911ZM70.2572 176.455H90.782V122.059H70.2572V176.455Z" fill="#3271B2"/>
</g>
<mask id="mask41_67_12996" style="mask-type:alpha" maskUnits="userSpaceOnUse" x="-182" y="0" width="464" height="738">
<path d="M281.435 0.707031H-181.465V737.421H281.435V0.707031Z" fill="#C4C4C4"/>
</mask>
<g mask="url(#mask41_67_12996)">
<path d="M95.7127 122.06H69.584V112.228H95.7127V122.06ZM71.0394 120.604H94.2672V113.683H71.0394V120.604Z" fill="#3271B2"/>
</g>
<mask id="mask42_67_12996" style="mask-type:alpha" maskUnits="userSpaceOnUse" x="-182" y="0" width="464" height="738">
<path d="M281.435 0.707031H-181.465V737.421H281.435V0.707031Z" fill="#C4C4C4"/>
</mask>
<g mask="url(#mask42_67_12996)">
<path d="M45.307 66.604C43.7129 66.604 42.4258 67.8911 42.4258 69.4852V100.584H48.1783V69.4852C48.1783 67.8911 46.8911 66.604 45.307 66.604Z" fill="#00AEEF"/>
</g>
<mask id="mask43_67_12996" style="mask-type:alpha" maskUnits="userSpaceOnUse" x="-182" y="0" width="464" height="738">
<path d="M281.435 0.707031H-181.465V737.421H281.435V0.707031Z" fill="#C4C4C4"/>
</mask>
<g mask="url(#mask43_67_12996)">
<path d="M54.6237 66.604C53.0396 66.604 51.7524 67.8911 51.7524 69.4852V100.584H57.495V69.4852C57.495 67.8911 56.2079 66.604 54.6237 66.604Z" fill="#00AEEF"/>
</g>
<mask id="mask44_67_12996" style="mask-type:alpha" maskUnits="userSpaceOnUse" x="-182" y="0" width="464" height="738">
<path d="M281.435 0.707031H-181.465V737.421H281.435V0.707031Z" fill="#C4C4C4"/>
</mask>
<g mask="url(#mask44_67_12996)">
<path d="M76.5937 56.426H75.1382C75.1382 42.4755 63.7521 31.119 49.762 31.119C35.762 31.119 24.3759 42.4755 24.3759 56.426H22.9204C22.9204 41.6735 34.96 29.6636 49.762 29.6636C64.564 29.6636 76.5937 41.6735 76.5937 56.426Z" fill="#3271B2"/>
</g>
<mask id="mask45_67_12996" style="mask-type:alpha" maskUnits="userSpaceOnUse" x="-182" y="0" width="464" height="738">
<path d="M281.435 0.707031H-181.465V737.421H281.435V0.707031Z" fill="#C4C4C4"/>
</mask>
<g mask="url(#mask45_67_12996)">
<path d="M50.4933 6.98779H49.0386V30.4002H50.4933V6.98779Z" fill="#3271B2"/>
</g>
<mask id="mask46_67_12996" style="mask-type:alpha" maskUnits="userSpaceOnUse" x="-182" y="0" width="464" height="738">
<path d="M281.435 0.707031H-181.465V737.421H281.435V0.707031Z" fill="#C4C4C4"/>
</mask>
<g mask="url(#mask46_67_12996)">
<path d="M49.7623 7.71303C45.901 7.71303 42.7524 4.56451 42.7524 0.703125H44.2079C44.2079 3.76253 46.7029 6.25758 49.7623 6.25758C52.8217 6.25758 55.3168 3.76253 55.3168 0.703125H56.7722C56.7722 4.56451 53.6237 7.71303 49.7623 7.71303Z" fill="#3271B2"/>
</g>
<mask id="mask47_67_12996" style="mask-type:alpha" maskUnits="userSpaceOnUse" x="-182" y="0" width="464" height="738">
<path d="M281.435 0.707031H-181.465V737.421H281.435V0.707031Z" fill="#C4C4C4"/>
</mask>
<g mask="url(#mask47_67_12996)">
<path d="M80.9533 55.7031H19.062V57.1578H80.9533V55.7031Z" fill="#3271B2"/>
</g>
<mask id="mask48_67_12996" style="mask-type:alpha" maskUnits="userSpaceOnUse" x="-182" y="0" width="464" height="738">
<path d="M281.435 0.707031H-181.465V737.421H281.435V0.707031Z" fill="#C4C4C4"/>
</mask>
<g mask="url(#mask48_67_12996)">
<path d="M99.9573 120.61H-0.266113V122.065H99.9573V120.61Z" fill="#3271B2"/>
</g>
</g>
</svg>
