<svg width="56" height="72" viewBox="0 0 56 72" fill="none" xmlns="http://www.w3.org/2000/svg">
<path d="M11.231 68H44.769V56C44.769 51.292 43.151 47.269 39.915 43.931C36.6797 40.5923 32.708 38.923 28 38.923C23.292 38.923 19.3203 40.5923 16.085 43.931C12.849 47.269 11.231 51.292 11.231 56V68ZM28 33.077C32.708 33.077 36.6797 31.4077 39.915 28.069C43.151 24.731 44.769 20.708 44.769 16V4H11.231V16C11.231 20.708 12.849 24.731 16.085 28.069C19.3203 31.4077 23.292 33.077 28 33.077ZM0 72V68H7.231V56C7.231 51.0613 8.745 46.6807 11.773 42.858C14.801 39.0347 18.6817 36.7487 23.415 36C18.6817 35.2 14.801 32.9013 11.773 29.104C8.745 25.3067 7.231 20.9387 7.231 16V4H0V0H56V4H48.769V16C48.769 20.9387 47.255 25.3067 44.227 29.104C41.199 32.9013 37.3183 35.2 32.585 36C37.3183 36.7487 41.199 39.0347 44.227 42.858C47.255 46.6807 48.769 51.0613 48.769 56V68H56V72H0Z" fill="#00AEEF"/>
</svg>
