<svg width="31" height="31" viewBox="0 0 31 31" fill="none" xmlns="http://www.w3.org/2000/svg">
<g clip-path="url(#clip0_111_9485)">
<path d="M8.56641 8.4668L19.4525 23.0224H21.9178L11.0317 8.4668H8.56641Z" fill="#00AEEF"/>
<path d="M15.22 0.524414C6.81415 0.524414 0 7.33856 0 15.7444C0 24.1503 6.81415 30.9644 15.22 30.9644C23.6259 30.9644 30.44 24.1503 30.44 15.7444C30.44 7.33856 23.6259 0.524414 15.22 0.524414ZM18.8706 24.1838L13.9141 17.5571L7.77979 24.1838H6.20279L13.2094 16.6148L6.24723 7.30499H11.6136L16.1783 13.4083L21.8276 7.30499H23.4046L16.883 14.3506L24.2375 24.1838H18.8712H18.8706Z" fill="#00AEEF"/>
</g>
<defs>
<clipPath id="clip0_111_9485">
<rect width="30.44" height="30.44" fill="white" transform="translate(0 0.524414)"/>
</clipPath>
</defs>
</svg>
