<svg width="70" height="70" viewBox="0 0 70 70" fill="none" xmlns="http://www.w3.org/2000/svg">
<g clip-path="url(#clip0_106_3210)">
<path d="M35 70C54.33 70 70 54.33 70 35C70 15.67 54.33 0 35 0C15.67 0 0 15.67 0 35C0 54.33 15.67 70 35 70Z" fill="#3271B2"/>
<path d="M45.0721 40.6617H43.431L41.5488 40.6695C41.1677 40.6695 40.8565 40.9651 40.8565 41.3384C40.8565 41.7117 41.1677 42.0073 41.5488 42.0073H43.3999H45.0954C48.8443 41.9451 51.8621 38.9817 51.8621 35.3417C51.8621 31.9195 49.1865 29.0962 45.741 28.7229C45.0254 26.3195 42.7388 24.5695 40.0243 24.5695C39.6354 24.5695 39.2465 24.6006 38.8732 24.6706C37.4188 22.2829 34.7277 20.6729 31.6477 20.6729C27.0277 20.6729 23.271 24.2973 23.271 28.7773C23.271 29.104 23.2943 29.4306 23.3332 29.7573C20.3699 30.294 18.1299 32.8062 18.1299 35.8317C18.1299 39.2151 20.9454 41.9606 24.4299 42.0073H26.5377H28.4277C28.8088 42.0073 29.1199 41.7117 29.1199 41.3384C29.1199 40.9651 28.8088 40.6695 28.4277 40.6695H26.5765L24.4921 40.6617C21.7621 40.6306 19.5221 38.4762 19.5221 35.8317C19.5221 33.4673 21.2721 31.4917 23.5899 31.0717L24.8654 30.8462L24.7099 29.594C24.6788 29.3295 24.6632 29.0495 24.6632 28.7773C24.6632 25.044 27.7899 22.0184 31.6477 22.0184C34.2143 22.0184 36.4621 23.3562 37.6832 25.3551L38.1732 26.1717L39.1454 25.9929C39.4254 25.9384 39.721 25.9073 40.0243 25.9073C42.101 25.9073 43.8588 27.2529 44.411 29.0962L44.6677 29.9595L45.5932 30.0529C48.3388 30.3484 50.4699 32.604 50.4699 35.3417C50.4699 38.2506 48.0588 40.6151 45.0721 40.6617Z" fill="#F7F9FC"/>
<path d="M37.4421 37.4736V48.3236C37.4421 48.7514 37.7844 49.0936 38.2121 49.0936C38.6321 49.0936 38.9744 48.7514 38.9744 48.3236V37.4736L40.3977 38.8892C40.701 39.1925 41.1832 39.1925 41.4866 38.8892C41.7899 38.5936 41.7899 38.1036 41.4866 37.8003L38.7488 35.0781C38.4532 34.7748 37.9632 34.7748 37.6677 35.0781L34.9299 37.8003C34.6344 38.1036 34.6266 38.5936 34.9299 38.8892C35.2332 39.1925 35.7155 39.1925 36.0188 38.8892L37.4421 37.4736Z" fill="#F7F9FC"/>
<path d="M31.01 46.6981L29.5945 45.2748C29.2912 44.9792 28.8089 44.9792 28.5056 45.2748C28.21 45.5781 28.21 46.0681 28.5056 46.3636L31.2356 49.0936C31.3834 49.2414 31.5778 49.3192 31.78 49.3192C31.9823 49.3192 32.1845 49.2414 32.3245 49.0936L35.0545 46.3636C35.3578 46.0681 35.3578 45.5781 35.0545 45.2748C34.7589 44.9792 34.2689 44.9792 33.9656 45.2748L32.55 46.6981V35.6225C32.55 35.1948 32.2078 34.8525 31.78 34.8525C31.36 34.8525 31.01 35.1948 31.01 35.6225V46.6981Z" fill="#F7F9FC"/>
</g>
<defs>
<clipPath id="clip0_106_3210">
<rect width="70" height="70" fill="white"/>
</clipPath>
</defs>
</svg>
